<?xml version="1.0" encoding="utf-8"?>
<!-- Generator: Adobe Illustrator 19.1.0, SVG Export Plug-In . SVG Version: 6.00 Build 0)  -->
<svg version="1.1" id="Layer_1" xmlns="http://www.w3.org/2000/svg" xmlns:xlink="http://www.w3.org/1999/xlink" x="0px" y="0px"
	 viewBox="-1201.1 491.2 1730 150" style="enable-background:new -1201.1 491.2 1730 150;" xml:space="preserve">
<style type="text/css">
	.st0{fill:#0A3C78;stroke:#0A3C78;stroke-miterlimit:10;}
	.st1{fill:#246EB9;stroke:#0A3C78;stroke-miterlimit:10;}
	.st2{fill:#20BF55;}
	.st3{fill:none;}
	.st4{fill:#246EB9;}
	.st5{fill:#D30C7B;}
	.st6{fill:#FFFFFF;}
	.st7{fill:#0A3C78;}
	.st8{fill:none;stroke:#246EB9;stroke-miterlimit:10;}
</style>
<g id="Layer_1_1_">
	<rect x="-1201.1" y="488.7" class="st0" width="1730" height="160.2"/>
	<g>
		<path class="st1" d="M-763.3,624.2c3,0,5.1,4.6,5.1,4.6c0.2,0.4,0,0.7-0.5,0.7l-9.1,0.1c-0.4,0-0.6-0.3-0.5-0.7
			C-768.2,628.9-766.3,624.3-763.3,624.2z"/>
		<path class="st2" d="M-760.5,606.4c-1.3-1.1-4-2.6-4-2.6c-0.2-0.1-0.3,0-0.3,0.2v2.5c-2.8,0.5-4.9,2-5.5,3.8
			c-1-1.5-3.7-2.6-3.7-2.6c-0.2-0.1-0.3,0-0.3,0.2v7.1c0,0.2,0.2,0.2,0.3,0.2c0,0,2.9-1.1,3.8-2.7c0.7,1.7,2.7,3,5.4,3.5v0.7
			c0,0.2,0.2,0.2,0.3,0.2c0,0,0.6-0.2,1.3-0.6c0.3,0,0.6,0,0.8,0c4.5,0,8.1-2.2,8.1-4.9C-754.2,608.8-756.9,606.8-760.5,606.4z
			 M-759.6,610.6c-1,0-1.7-0.7-1.7-1.5s0.8-1.5,1.7-1.5c1,0,1.7,0.7,1.7,1.5S-758.6,610.6-759.6,610.6z"/>
		<g>
			<path class="st3" d="M-721.6,628.8"/>
		</g>
		<path class="st4" d="M-721.4,579.5c-2.4-2.4-5-4.6-8-6.2c-0.2-0.2-0.5-0.2-0.8-0.2h-7.7c0.2,1.1,0,2.1-0.5,3h7.8
			c2.6,1.5,4.9,3.4,6.9,5.5c0.4,0.4,0.8,0.8,1.1,1.2c-0.4,0.1-0.8,0.2-1.1,0.3c-1.2,0.4-2.4,0.8-4.7,0.8s-3.5-0.4-4.7-0.8
			c-1.3-0.4-2.6-0.8-5.2-0.8s-3.9,0.4-5.2,0.8c-1.2,0.4-2.4,0.8-4.7,0.8s-3.5-0.4-4.7-0.8c-1.3-0.4-2.6-0.8-5.2-0.8
			s-3.9,0.4-5.2,0.8c-1.2,0.4-2.4,0.8-4.7,0.8c-2.4,0-3.5-0.4-4.7-0.8c-0.3-0.1-0.6-0.2-0.9-0.3c0.4-0.5,0.8-0.9,1.2-1.3
			c2.1-2.1,4.4-4,6.9-5.5h6.9c-0.3-1-0.2-2.1,0.3-3h-7.6c-0.3,0-0.5,0.1-0.8,0.2c-2.9,1.7-5.6,3.8-8,6.2c-6.7,6.9-10.3,16-10.3,25.5
			c0,14.1,8.2,27.1,20.8,33.1c0.2,0.1,0.5,0.2,0.7,0.2c2.7,0,8.4,0,14.4,0c6.4,0,12.9,0,16.3,0c0.2,0,0.5-0.1,0.7-0.2
			c12.6-6.1,20.8-19.2,20.8-33.1C-711.1,595.4-714.8,586.4-721.4,579.5z M-732.9,635.3c-3.4,0-9.7,0-15.9,0c-5.7,0-11.2,0-14.1,0
			c-2.1-1.1-4.1-2.3-5.9-3.7c2.3-0.2,3.8-0.5,5.3-0.9c2.2-0.5,4.3-1,8.5-1c4.3,0,6.3,0.5,8.5,1c2.2,0.5,4.5,1.1,9,1.1
			c4.5,0,6.8-0.5,9-1.1c1.1-0.2,2.1-0.5,3.3-0.7C-727.5,632.1-730.1,633.9-732.9,635.3z M-722.7,627.4c-2.8,0.2-4.6,0.6-6.2,1
			c-2.2,0.5-4.3,1-8.5,1s-6.3-0.5-8.5-1c-2.2-0.5-4.5-1.1-9-1.1c-4.5,0-6.8,0.5-9,1.1c-2,0.5-3.8,0.9-7.2,1
			c-6.5-6.3-10.5-15.1-10.5-24.4c0-7.7,2.5-14.9,7.2-20.8c0.5,0.2,1.1,0.3,1.5,0.5c1.3,0.4,2.6,0.8,5.2,0.8c2.6,0,3.9-0.4,5.2-0.8
			c1.2-0.4,2.4-0.8,4.7-0.8c2.4,0,3.5,0.4,4.7,0.8c1.3,0.4,2.6,0.8,5.2,0.8c2.6,0,3.9-0.4,5.2-0.8c1.2-0.4,2.4-0.8,4.7-0.8
			c2.4,0,3.5,0.4,4.7,0.8c1.3,0.4,2.6,0.8,5.2,0.8c2.6,0,3.9-0.4,5.2-0.8c0.6-0.2,1.1-0.4,1.8-0.5c4.7,5.9,7.2,13.2,7.2,20.9
			C-714.1,613.4-717.3,621.3-722.7,627.4z"/>
		<g>
			<path class="st1" d="M-724.3,625.5c0.2,2.4-2.1,4.6-5.2,4.9l-8.2,0.6c0,0-1.2-1.9-1.4-4.4l0,0C-739,626.6-730,625.9-724.3,625.5
				L-724.3,625.5z"/>
		</g>
		<g>
			<path class="st1" d="M-730.4,624.8l-0.6-7.9l6.1,7.4L-730.4,624.8L-730.4,624.8z"/>
		</g>
		<g>
			<path class="st1" d="M-738.1,625.5l5.9-12l0.8,11.5L-738.1,625.5L-738.1,625.5z"/>
		</g>
		<g>
			<path d="M-814.7,555.9L-814.7,555.9"/>
		</g>
		<g>
			<path d="M-747,599.2"/>
		</g>
	</g>
	<path class="st1" d="M-759.7,549.9h1.4V572c-0.6,0.2-1.1,0.5-1.7,0.8c0,0,0,0,0,0.1c0.4,1.1,1,1.9,1.9,2.4c0.6,0.5,1.1,1,1.5,1.5
		h7.4c1.1,0,1.9-1.1,1.9-2.4s-0.8-2.4-1.9-2.4h-5.3v-6.3h5.3c1.1,0,1.9-1.1,1.9-2.4c0-1.3-0.8-2.4-1.9-2.4h-5.3v-6.3h5.3
		c1.1,0,1.9-1.1,1.9-2.4s-0.8-2.4-1.9-2.4h-5.3v-2.3c0-1.3-0.8-2.4-1.9-2.4h-3.3l0,0c-1.1,0-2-1.1-2-2.4s0.8-2.4,2-2.4h23
		c1.1,0,2,1.1,2,2.4s-0.8,2.4-2,2.4h-3.1c-1.1,0-1.9,1.1-1.9,2.4v26.3c0,1.1,0.5,2,1.4,2.3c0.2,0.1,0.5,0.2,0.8,0.3
		c1.4-1.6,3.3-2.6,5.2-2.4c-1.1-0.7-2.3-1.3-3.5-1.8v-22.5h1.1c3.2,0,5.9-3.2,5.9-7.1c0-4-2.6-7.1-5.9-7.1h-22.9
		c-3.2,0-5.9,3.2-5.9,7.1C-765.6,546.7-762.9,549.9-759.7,549.9z"/>
	<g transform="matrix(0.960564,0,0,0.960564,-1.58784,7.58658)">
		<path class="st5" d="M-765.8,527.5c2.3-2.4,5-1.5,6-0.2c1,1.4,0.4,3.2-1.5,4.6c-1.4,1.1-4.3,1.6-6.6,1.8c-1.7-1.6-3.6-3.8-4.1-5.5
			c-0.7-2.3-0.1-4.1,1.5-4.6C-768.9,523.3-766.2,524.2-765.8,527.5z"/>
	</g>
	<g transform="matrix(0.960564,0,0,0.960564,-1.58784,7.58658)">
		<path class="st5" d="M-780.5,539.9c0.7-3,3.5-3.8,5.2-3.3s2.1,2.1,1.1,4.2c-0.7,1.5-2.9,3.5-4.8,4.9c-2.4-0.2-5.2-0.8-6.6-1.8
			c-1.9-1.3-2.4-3-1.1-4.2C-785.4,538.4-782.6,537.6-780.5,539.9z"/>
	</g>
	<g transform="matrix(0.960564,0,0,0.960564,-1.58784,7.58658)">
		<path class="st5" d="M-781.7,511.4c1.2-4.7,4.9-5.2,6.9-4c2.1,1.1,2.4,4,1,7.1c-1,2.3-4,4.9-6.5,6.6c-3-1.1-6.5-2.7-8.1-4.6
			c-2.2-2.6-2.6-5.4-1-7.1C-787.8,507.6-784.1,507.2-781.7,511.4z"/>
	</g>
	<path class="st4" d="M-760.9,573c1.9-0.4,4.1,0.8,4.8,2.7c0.1,0.2,0.1,0.5-0.1,0.5c-0.1,0.1-0.2,0.1-0.3,0.1c-1,0-1.9-0.2-2.9-0.4
		c-0.2,0-0.3-0.1-0.5-0.2c-0.2-0.1-0.2-0.2-0.4-0.4c-0.5-0.7-0.9-1.4-1-2.2c0.2,0,0.4,0,0.6-0.1"/>
	<rect x="-759.4" y="575.8" class="st6" width="12.4" height="3.7"/>
	<rect x="-764.4" y="569.4" class="st7" width="6.5" height="3.7"/>
	<rect x="-754.8" y="572" class="st7" width="7.5" height="4.7"/>
	<path class="st4" d="M-738.2,572.4c1.7-0.2,3.5,0.3,4.9,1.2c0.2,0.2,0.4,0.2,0.5,0.5c0.1,0.2,0,0.5-0.2,0.7
		c-0.2,0.2-0.4,0.2-0.6,0.4c-0.9,0.3-1.8,0.5-2.8,0.5c-1,0.2-2.1,0.2-3,0.2c-0.2,0-0.5-0.1-0.6-0.3c-0.1-0.2,0-0.4,0.1-0.5
		c0.3-0.7,0.6-1.4,0.9-2.1c0.1-0.2,0.2-0.3,0.2-0.4c0.2-0.2,0.7-0.1,0.8-0.4"/>
	<rect x="-765.2" y="575.8" class="st7" width="34.7" height="4.9"/>
	<rect x="-738.3" y="568.3" class="st7" width="7.8" height="4.7"/>
	<rect x="-741.4" y="573.2" class="st4" width="2.6" height="2.7"/>
	<path class="st2" d="M-742.2,594.9c-1.3-1.1-4-2.6-4-2.6c-0.2-0.1-0.3,0-0.3,0.2v2.5c-2.8,0.5-4.9,2-5.5,3.8
		c-1-1.5-3.7-2.6-3.7-2.6c-0.2-0.1-0.3,0-0.3,0.2v7.1c0,0.2,0.2,0.2,0.3,0.2c0,0,2.9-1.1,3.8-2.7c0.7,1.7,2.7,3,5.4,3.5v0.7
		c0,0.2,0.2,0.2,0.3,0.2c0,0,0.6-0.2,1.3-0.6c0.3,0,0.6,0,0.8,0c4.5,0,8.1-2.2,8.1-4.9C-736,597.4-738.7,595.4-742.2,594.9z
		 M-741.3,599.2c-1,0-1.7-0.7-1.7-1.5s0.8-1.5,1.7-1.5c1,0,1.7,0.7,1.7,1.5S-740.4,599.2-741.3,599.2z"/>
	<g>
		<g>
			<g>
				<path class="st6" d="M-649.9,608.5c-5.2,0-10.1-1.5-14.2-4c-1.3,1-2.8,1.6-4.5,1.9c-4.5,1.1-8.8,1.6-13.5,1.6
					c-3,0-5.6-0.2-8.4-0.5c-4.1-0.5-7.9-2.7-10.3-6.3c-2.4-3.6-3.4-7.9-2.6-12.3l9.4-49.4c-1.9-3.2-4.3-8.9-4.5-15.8
					c-0.2-6.1,3.2-11.6,8.2-14.4c5.1-2.6,13.7-5.5,20.2-5.5c8.1,0,15,3.1,19.5,8.9c3.9,5,5.6,11.8,4.9,18.9
					c12.2,3.9,20.4,15.2,20.4,29.6c0,2.7-0.2,5.2-0.7,7.6l-0.6,2.7c3.6,4.7,5.2,9.9,5.6,13.9c0.4,4.7-1.1,9.4-4.5,12.8
					C-626.9,599.8-636.2,608.5-649.9,608.5z"/>
				<path class="st6" d="M-608.5,608.5c-20.4,0-35.4-14.5-35.4-34.6c0-2.9,0.2-5.5,0.7-7.9c4.1-21.2,21.7-35.9,42.9-35.9
					c19.9,0,34.7,15.3,34.7,35.9c0,2.7-0.4,5-0.6,6.8c0,0.2,0,0.3,0,0.3C-569.5,594-587,608.5-608.5,608.5z"/>
				<path class="st6" d="M-536,608.3c-2.8,0-5.2-0.8-7.5-2.1c-0.7,0.3-1.7,0.6-2.6,0.8c-6.2,1.3-12.2,1.3-16.1,1.3
					c-7.1,0-13.3-5.3-14.8-12.6l-4.5-23.7c-1.1-0.8-2.2-1.8-3.2-3.1c-1.1-1.3-6.2-8.4-6.6-18.6c-0.2-6.1,3-11.8,8.1-14.5
					c1.9-1,11.2-5.8,19.1-5.8c8.4,0,14.2,2.9,18,7.3c1.1-0.3,6-1.6,11.6-1.6c0.6,0,1.1,0,1.7,0c0.2,0,0.6,0,0.7,0
					c1.1,0.2,3.4,0.5,4.3,0.5c1.3-1.6,3.2-2.9,5.1-3.7c1.3-0.6,5.4-2.6,16.7-2.6c6.6,0,12.2,4.4,14.2,10.8c0.9,3.1,1.3,6.1,1.3,9.4
					c0,6.6-1.9,13.6-5.1,19.4l-15.9,29.4c-2.1,3.6-5.2,6.3-9.2,7.4C-526.4,608.2-534.5,608.3-536,608.3z"/>
				<path class="st6" d="M-419.7,608.5c-4.5,0-8.6-1.1-12.2-3.1c-0.9,0.5-1.9,0.8-3,1c-4.7,1.1-8.2,1.6-12,1.6
					c-2.6,0-5.4-0.3-8.6-0.8c-0.9-0.2-1.7-0.3-2.4-0.6c-4.5,1.1-8.6,1.6-12.9,1.6c-3.2,0-6.2-0.3-8.2-0.6c-4.1-0.5-7.9-2.9-10.3-6.3
					c-2.4-3.6-3.4-7.9-2.6-12.1l4.3-23.4c-1.7-3.1-4.3-8.4-4.7-15c-0.4-6.3,2.8-12.1,8.1-14.9c3.2-1.6,11.2-5.5,19.1-5.5
					c3.6,0,6.9,0.6,9.9,1.9c3.4-1.3,6.9-1.9,10.7-1.9c4.3,0,8.2,0.8,11.6,2.3c5.1-1.9,9.2-2.3,11.4-2.3c16.7,0,27.4,10.7,27.4,27.1
					c0,3.1-0.4,6.1-0.9,9.2l-0.9,5.3c4.3,5.5,5.4,11,5.6,12.8c0.7,5-0.9,10-4.3,13.4C-396.1,599.8-405.4,608.5-419.7,608.5z"/>
				<path class="st6" d="M-379.4,608.5c-0.4,0-0.9,0-1.3,0h-0.4c-15.5,0-32-11.8-32-33.4c0-31,24.7-44.9,42.5-44.9
					c3,0,5.8,0.3,8.4,1.3c2.8-0.6,6-1,9.4-1c4.7,0,8.4,0.6,9,0.6c4.1,0.6,7.7,3.1,9.9,6.6c2.2,3.6,3.2,7.9,2.2,12.1
					c-1.3,6.6-3,15.5-4.3,22.1c4.5,5.8,5.4,11.3,5.6,13.2c0.6,4.7-0.9,9.4-4.1,12.8c-1.7,1.8-10.9,10.8-25.3,10.8l-0.2-7.8l-0.2,0.2
					v7.6c-3.9,0-7.1-0.6-9.9-1.6C-372.6,608-376,608.5-379.4,608.5z"/>
				<path class="st6" d="M-301.3,608.5c-4.7,0-8.8-1.1-12.4-3.2c-0.9,0.5-1.9,0.8-3,1.1c-4.7,1.1-9,1.8-13.5,1.8
					c-3.2,0-6.2-0.3-8.6-0.6c-4.1-0.5-7.9-2.7-10.3-6.3c-2.4-3.6-3.4-7.9-2.6-12.3l4.3-23.3c-1.7-3.1-4.1-8.4-4.7-15.2
					c-0.4-6.1,2.6-12,7.9-14.7c4.7-2.6,11.8-5.8,19.7-5.8c3.6,0,6.9,0.6,9.9,1.9c3.4-1.3,7.1-1.8,10.9-1.8
					c17.2,0,28.5,11.5,28.5,29.1c0,3.4-0.2,6.3-0.9,9l-0.6,3.4c4.5,5.7,5.6,11.1,5.8,12.9c0.7,5.2-1.1,10.5-4.9,13.9
					C-277.8,600.1-287.4,608.5-301.3,608.5z"/>
				<path class="st6" d="M-279.9,633.7c-2.4,0-4.9-0.6-7.1-1.8c-11.4-6.5-14.4-18.4-14.8-20.8c-1.1-5.8,0.9-11.6,5.4-15.3
					c2.1-1.8,4.1-3.2,5.8-4.7c3.2-2.6,5.2-4.2,7.3-6.3l-3-13.2c-0.9-0.8-1.7-1.6-2.4-2.6c-1.1-1.3-6.2-8.4-6.6-18.6
					c-0.2-6.1,3-11.8,8.1-14.5c5.2-2.7,13.9-5.8,20.4-5.8c4.9,0,9.4,1.3,12.9,3.6c0.6-0.3,1.3-0.8,2.1-1c1.5-0.6,5.8-2.6,19.1-2.6
					c7.3,0,13.7,5.5,14.8,13.1c0.2,1.8,0.6,4,0.6,6.8c0,7.4-2.1,14.9-5.6,20.7c0,0-16.7,27.9-16.7,28.1c-6.6,10.3-16.7,20.8-31.3,32
					C-273.7,632.6-276.9,633.7-279.9,633.7z"/>
				<path class="st6" d="M-202.7,633.7c-3.4,0-6.7-1.1-9.6-3.6c-8.8-7.6-11.8-15-12.6-17.1c-1.5-4.5-0.9-9.5,1.5-13.6
					c1.3-2.1,2.8-7.1,3.4-9.7l3.9-20.3c-0.4-0.3-0.6-0.6-0.9-1.1c-2.8-3.6-4.1-8.2-3.4-12.8c0.2-1.3,1.5-8.4,5.8-16.5
					c1.3-2.4,3.2-4.5,5.4-6c4.1-17.9,18.2-29.2,36.2-29.2c9.2,0,15.2,2.4,18.9,4.7h0.2c13.1,0,23.8,10.7,23.8,23.6
					c0,5-1.5,9.7-4.1,13.4c0.4,1.9,0.6,4.5,0.6,7.4c0,2.7-0.2,5.2-0.7,7.4l-2.2,11.5c4.1,5.3,5.2,10.5,5.6,12.3
					c0.9,5.2-0.9,10.5-4.5,14.1c-1.7,1.8-11.2,10.3-24.7,10.3c-5.8,0-11.1-1.6-15.4-4.7c-2.6,9.7-7.3,19.7-19.1,27.6
					C-197.3,632.9-199.9,633.7-202.7,633.7z"/>
				<path class="st6" d="M-123.7,608.5c-19.5,0-31.1-13.9-32.2-26.8c-0.4-5.5,2.1-10.8,6.2-13.9c-0.7-3.6-0.6-7.4,0.2-11.3
					c3-15.5,17.6-26.3,35.4-26.3c18.2,0,27.9,11.1,30.5,20.7c1.3,4.8,0.4,10-2.4,13.9c-0.2,0.3-0.7,1-1.3,1.5
					c1.1,3.4,1.7,7.3,1.3,12C-87.1,593.2-100.4,608.5-123.7,608.5z"/>
				<path class="st6" d="M-55.1,608.5c-5.2,0-10.1-1.5-14.2-4c-1.3,1-2.8,1.6-4.5,1.9c-4.5,1.1-8.8,1.6-13.5,1.6
					c-3,0-5.6-0.2-8.4-0.5c-4.1-0.5-7.9-2.7-10.3-6.3c-2.4-3.6-3.4-7.9-2.6-12.3l9.4-49.4c-1.9-3.2-4.3-8.9-4.5-15.8
					c-0.2-6.1,3.2-11.6,8.2-14.4c5.1-2.6,13.7-5.5,20.2-5.5c8.1,0,15,3.1,19.5,8.9c3.9,5,5.6,11.8,4.9,18.9
					c12.2,3.9,20.4,15.2,20.4,29.6c0,2.6-0.2,5.2-0.7,7.6l-0.6,2.7c3.6,4.7,5.2,9.9,5.6,13.9c0.4,4.7-1.1,9.4-4.5,12.8
					C-32.2,599.8-41.4,608.5-55.1,608.5z"/>
				<path class="st6" d="M-23.1,608.7c-12.6,0-22.7-10.2-22.7-22.4c0-3.9,0.9-7.4,2.6-10.7c-0.6-1.9-0.7-4-0.4-6.1
					c0.9-7.9,3.2-13.9,5.8-18.7c-3.4-2.6-7.1-6.1-9.2-10.8c-2.6-5.7-1.9-12.4,2.2-17.1l0.2-0.2c3.2-3.9,13.1-15.8,32.6-15.8
					c19.3,0,33.3,12.9,33.3,30.8c0,2.1-0.2,4.2-0.6,6.5c0,0.2,0,0.5-0.2,0.6c-2.8,12.3-10.1,18.7-15,23.1c-4.5,3.9-5.4,4.8-5.8,8.6
					c-0.2,1.5-0.6,2.9-0.9,4.2c0.6,1.9,0.7,3.9,0.7,5.8C-0.4,598.7-10.5,608.7-23.1,608.7z"/>
			</g>
			<g>
				<path class="st4" d="M-656.6,564.7c0.9-4.8-0.9-8.1-4.3-8.1c-0.7,0-2.4,0.2-4.7,1.8l-6.2,32.8c-3.7,1-6.9,1.1-10.1,1.1
					c-2.1,0-4.3-0.2-6.6-0.3l11.1-57.8c0.6-2.9-2.8-1.5-2.8-1.5s-3-3.9-3-9.2c4.3-2.3,10.5-3.9,13.7-3.9c6.6,0,10.9,3.6,9.4,11.3
					l-3.2,17.6c1.5-1.3,4.9-2.6,8.4-2.6c9.7,0,15.2,6.6,15.2,15.3c0,1.5-0.2,2.9-0.4,4.4l-2.1,11.3c-0.7,3.9,2.2,1.9,2.2,1.9
					c4.3,3.6,4.9,8.1,4.9,8.1s-6,6.1-14.2,6.1c-8.4,0-11.2-6.6-9.9-12.6L-656.6,564.7z"/>
				<path class="st4" d="M-608.5,592.8c-12.9,0-20.4-8.4-20.4-18.9c0-1.5,0.2-3.1,0.4-4.7c3-15.7,15.7-23.6,28.3-23.6
					c12.6,0,19.7,9.2,19.7,20.2c0,1.5-0.2,3.1-0.4,4.5C-583.4,585.7-596.3,592.8-608.5,592.8z M-597.8,569.7
					c0.4-1.3,0.6-3.4,0.6-5.7c0-3.6-0.9-7.1-4.9-7.1c-4.9,0-8.1,6-9.6,12.8c-0.4,1.5-0.6,3.2-0.6,5c0,3.6,1.1,7.1,5.1,7.1
					C-602.5,581.9-598.6,575.2-597.8,569.7z"/>
				<path class="st4" d="M-537.9,578.5c-0.6-4.5-0.9-10-0.9-10s-2.2,6.9-4.1,10.3l-6.4,12.9c-4.7,1-9.6,1-13.1,1l-6-32
					c-0.6-3.2-4.7-1.8-4.7-1.8s-3-3.9-3.2-9.2c4.5-2.4,9.7-4,12.2-4c5.2,0,8.4,1.9,9,6.6l1.9,12.9c0.7,5.2,0.7,12.1,0.7,12.1
					s2.1-6.1,4.3-11.3l5.8-13.7c0,0,4.3-1.1,9-1c1.1,0.2,3.7,0.5,3.7,0.5l1.1,14.5c0.4,4.5,0.2,11.1,0.2,11.1s1.9-5.8,4.9-11.1
					l4.5-8.4c2.4-4.4,2.2-11.1,2.2-11.1c2.6-1.1,10.7-1.1,10.7-1.1c0.4,1.5,0.6,2.9,0.6,4.5c0,3.7-1.1,8.1-3,11.6l-15.9,29.6
					c-4.5,1.3-11.8,1.3-11.8,1.3L-537.9,578.5z"/>
				<path class="st4" d="M-425.1,563.9c0.4-2.3,0.9-6.1-2.2-6.1c-2.6,0-4.5,1.5-4.5,1.5l-6.2,31.8c-3.4,0.8-6,1.1-8.8,1.1
					c-1.9,0-3.7-0.2-6.2-0.6l5.4-29.1c0.6-2.7-0.4-4.8-2.6-4.8c-2.6,0-4.7,1.3-4.7,1.3l-6.2,32c-3.6,1-6.6,1.3-9.9,1.3
					c-2.1,0-4.1-0.2-6.4-0.5l6-32c0.6-2.7-2.8-1.5-2.8-1.5s-3-4-3.2-9.2c3.9-2.1,8.8-3.7,12.4-3.7c3,0,7.1,1,8.8,4.8
					c4.3-3.7,8.2-4.8,12-4.8c4.9,0,7.7,1.3,10.3,5.3c5.1-4.4,10.1-5.3,12.7-5.3c9.4,0,12.4,4.8,12.4,11.6c0,1.9-0.2,4-0.6,6.1
					l-2.8,14.2c-0.6,3.7,2.6,1.9,2.6,1.9c4.1,3.6,4.5,7.4,4.5,7.4s-6,6.1-14.8,6.1c-6.6,0-9.2-4.5-9.2-9.5c0-1,0.2-2.1,0.4-3.1
					L-425.1,563.9z"/>
				<path class="st4" d="M-360.1,546.8c2.4-0.6,5.1-1,7.5-1c3.7,0,6.6,0.5,6.6,0.5s-5.4,27.3-6.2,31.2c-0.7,3.9,2.8,1.8,2.8,1.8
					c4.1,3.6,4.5,7.4,4.5,7.4s-5.6,6.1-14.4,6.1c-2.1,0-7.3,0.2-9.4-4.4c-5.2,5-10.1,4.4-12.2,4.4c-7.3,0-17-4.8-17-17.9
					c0-21.3,17.4-29.4,27.5-29.4c4.5,0,6.9,1.5,8.8,3.7L-360.1,546.8z M-365,558.8c0,0-2.1-2.4-5.2-2.4c-5.8,0-11.1,8.4-11.1,18.7
					c0,4.7,2.1,6.9,6,6.9c1.9,0,4.3-0.6,6.2-1.8L-365,558.8z"/>
				<path class="st4" d="M-307.3,564.9c0-0.2,0.4-1.5,0.4-2.9c0-1.9-0.6-4.4-3.6-4.4c-1.9,0-3.7,1.5-3.7,1.5l-6.2,32
					c-3.6,1-6.7,1.3-9.9,1.3c-2.2,0-4.3-0.2-6.9-0.5l6-32c0.6-2.7-2.8-1.5-2.8-1.5s-2.8-3.9-3.2-9.2c3.4-1.9,8.2-3.9,12.6-3.9
					c3.6,0,6.7,1.3,8.4,5c3.7-3.6,7.9-4.8,12.2-4.8c9.6,0,13.5,5.3,13.5,13.4c0,1.9-0.2,3.9-0.6,6l-2.2,12.4
					c-0.6,3.7,2.8,1.9,2.8,1.9c4.1,3.6,4.5,7.4,4.5,7.4s-6.6,6.1-15.4,6.1c-6.6,0-9.2-4.7-9.2-9.7c0-1,0.2-1.9,0.4-2.9L-307.3,564.9
					z"/>
				<path class="st4" d="M-273.4,560.7c-0.7-2.7-3.9-1.8-3.9-1.8s-3-3.9-3.2-9.2c4.5-2.4,10.5-4,13.7-4c4.7,0,7.5,2.1,8.1,6.6
					l2.1,14.2c0.6,4.2,0.6,9.4,0.6,9.4s2.6-6.6,3.9-9l4.5-8.7c1.3-2.6,1.7-5.7,1.7-7.8c0-1.9-0.2-3.2-0.2-3.2
					c3-1.3,13.1-1.3,13.1-1.3c0.2,1.5,0.4,2.7,0.4,4.4c0,4.2-1.1,8.7-3.2,12.4l-16.5,27.8c-6,9.5-15.7,18.9-27.5,27.8
					c-5.8-3.2-7.1-10-7.1-10c9.4-7.8,13.7-10.2,20-18.9L-273.4,560.7z"/>
				<path class="st4" d="M-198.8,558.1h-6.9c0,0,0.9-5.3,4.1-11.6h5.1l1.7-8.9c2.6-13.4,12.9-18.1,21.7-18.1c9,0,12.2,3.2,12.2,3.2
					s-3.2,6.3-8.6,10c0,0-1.1-0.6-3.2-0.6c-1.9,0-4.3,0.6-5.4,5.7l-1.7,8.7h30.3c0,0,0.7,3.1,0.7,6.5c0,1.3-0.2,2.7-0.4,3.9
					l-4.1,20.7c-0.9,4.2,2.6,1.9,2.6,1.9c3.9,3.4,4.5,7.4,4.5,7.4s-6.2,6.1-14.4,6.1c-8.4,0-11.1-6.5-9.9-12.6l4.1-22.1h-15.5
					l-6.7,35.7c-2.2,11.3-4.9,18.4-13.9,24.2c-6.4-5.3-7.9-10.2-7.9-10.2c3-5,4.9-12.8,5.2-15L-198.8,558.1z M-153.8,539.9
					c-4.9,0-8.6-3.2-8.6-7.8c0-4.4,3.7-7.9,8.6-7.9c4.9,0,8.8,3.6,8.8,7.9C-145.2,536.6-149.1,539.9-153.8,539.9z"/>
				<path class="st4" d="M-125.9,573.5c-6.9-2.4-10.3-7.3-8.8-13.7c1.3-6.9,8.4-14.1,20.8-14.1c12,0,15.5,7.1,16.3,9.5
					c0,0-3,4-11.2,5.3c0,0-2.2-4-5.4-4c-1.5,0-3,0.3-3.4,1.9c-0.4,1.6,0.4,2.7,2.2,3.4l4.5,1.6c7.7,2.7,10.9,6.9,10.3,13.2
					c-0.6,6.1-6.7,16.1-23,16.1c-12.4,0-16.9-8.2-17.2-12.4c5.4-2.9,11.1-3.9,11.1-3.9s1.7,5.7,7.3,5.7c3.2,0,4.3-1.9,4.7-3.2
					c0.4-1.5-0.4-2.6-3.2-3.6L-125.9,573.5z"/>
				<path class="st4" d="M-62,564.7c0.9-4.8-0.9-8.1-4.3-8.1c-0.7,0-2.4,0.2-4.7,1.8l-6.2,32.8c-3.7,1-6.9,1.1-10.1,1.1
					c-2.1,0-4.3-0.2-6.6-0.3l11.1-57.8c0.6-2.9-2.8-1.5-2.8-1.5s-3-3.9-3-9.2c4.3-2.3,10.5-3.9,13.7-3.9c6.6,0,10.9,3.6,9.4,11.3
					l-3.2,17.6c1.5-1.3,4.9-2.6,8.4-2.6c9.7,0,15.2,6.6,15.2,15.3c0,1.5-0.2,2.9-0.4,4.4l-2.1,11.3c-0.7,3.9,2.2,1.9,2.2,1.9
					c4.3,3.6,4.9,8.1,4.9,8.1s-6,6.1-14.2,6.1c-8.4,0-11.2-6.6-9.9-12.6L-62,564.7z"/>
				<path class="st4" d="M-28.7,571.2c2.4-20,15.4-21,17.6-30.2c0.6-3.1-0.2-6.9-4.1-6.9c-4.5,0-9.7,6.5-9.7,6.5s-6.7-3.6-8.8-7.8
					c2.4-3.1,8.6-10.7,21.5-10.7c10.5,0,18.4,6,18.4,15.2c0,1.1-0.2,2.3-0.4,3.6c-3.6,15.5-19.1,14.9-21,33.6
					C-25.5,575.1-28.7,571.2-28.7,571.2z M-23.1,593c-4.1,0-7.7-3.1-7.7-6.9c0-3.9,3.6-7.1,7.7-7.1s7.7,3.2,7.7,7.1
					C-15.4,589.9-18.9,593-23.1,593z"/>
			</g>
			<g>
				<path class="st8" d="M-656.6,564.7c0.9-4.8-0.9-8.1-4.3-8.1c-0.7,0-2.4,0.2-4.7,1.8l-6.2,32.8c-3.7,1-6.9,1.1-10.1,1.1
					c-2.1,0-4.3-0.2-6.6-0.3l11.1-57.8c0.6-2.9-2.8-1.5-2.8-1.5s-3-3.9-3-9.2c4.3-2.3,10.5-3.9,13.7-3.9c6.6,0,10.9,3.6,9.4,11.3
					l-3.2,17.6c1.5-1.3,4.9-2.6,8.4-2.6c9.7,0,15.2,6.6,15.2,15.3c0,1.5-0.2,2.9-0.4,4.4l-2.1,11.3c-0.7,3.9,2.2,1.9,2.2,1.9
					c4.3,3.6,4.9,8.1,4.9,8.1s-6,6.1-14.2,6.1c-8.4,0-11.2-6.6-9.9-12.6L-656.6,564.7z"/>
				<path class="st8" d="M-608.5,592.8c-12.9,0-20.4-8.4-20.4-18.9c0-1.5,0.2-3.1,0.4-4.7c3-15.7,15.7-23.6,28.3-23.6
					c12.6,0,19.7,9.2,19.7,20.2c0,1.5-0.2,3.1-0.4,4.5C-583.4,585.7-596.3,592.8-608.5,592.8z M-597.8,569.7
					c0.4-1.3,0.6-3.4,0.6-5.7c0-3.6-0.9-7.1-4.9-7.1c-4.9,0-8.1,6-9.6,12.8c-0.4,1.5-0.6,3.2-0.6,5c0,3.6,1.1,7.1,5.1,7.1
					C-602.5,581.9-598.6,575.2-597.8,569.7z"/>
				<path class="st8" d="M-537.9,578.5c-0.6-4.5-0.9-10-0.9-10s-2.2,6.9-4.1,10.3l-6.4,12.9c-4.7,1-9.6,1-13.1,1l-6-32
					c-0.6-3.2-4.7-1.8-4.7-1.8s-3-3.9-3.2-9.2c4.5-2.4,9.7-4,12.2-4c5.2,0,8.4,1.9,9,6.6l1.9,12.9c0.7,5.2,0.7,12.1,0.7,12.1
					s2.1-6.1,4.3-11.3l5.8-13.7c0,0,4.3-1.1,9-1c1.1,0.2,3.7,0.5,3.7,0.5l1.1,14.5c0.4,4.5,0.2,11.1,0.2,11.1s1.9-5.8,4.9-11.1
					l4.5-8.4c2.4-4.4,2.2-11.1,2.2-11.1c2.6-1.1,10.7-1.1,10.7-1.1c0.4,1.5,0.6,2.9,0.6,4.5c0,3.7-1.1,8.1-3,11.6l-15.9,29.6
					c-4.5,1.3-11.8,1.3-11.8,1.3L-537.9,578.5z"/>
				<path class="st8" d="M-425.1,563.9c0.4-2.3,0.9-6.1-2.2-6.1c-2.6,0-4.5,1.5-4.5,1.5l-6.2,31.8c-3.4,0.8-6,1.1-8.8,1.1
					c-1.9,0-3.7-0.2-6.2-0.6l5.4-29.1c0.6-2.7-0.4-4.8-2.6-4.8c-2.6,0-4.7,1.3-4.7,1.3l-6.2,32c-3.6,1-6.6,1.3-9.9,1.3
					c-2.1,0-4.1-0.2-6.4-0.5l6-32c0.6-2.7-2.8-1.5-2.8-1.5s-3-4-3.2-9.2c3.9-2.1,8.8-3.7,12.4-3.7c3,0,7.1,1,8.8,4.8
					c4.3-3.7,8.2-4.8,12-4.8c4.9,0,7.7,1.3,10.3,5.3c5.1-4.4,10.1-5.3,12.7-5.3c9.4,0,12.4,4.8,12.4,11.6c0,1.9-0.2,4-0.6,6.1
					l-2.8,14.2c-0.6,3.7,2.6,1.9,2.6,1.9c4.1,3.6,4.5,7.4,4.5,7.4s-6,6.1-14.8,6.1c-6.6,0-9.2-4.5-9.2-9.5c0-1,0.2-2.1,0.4-3.1
					L-425.1,563.9z"/>
				<path class="st8" d="M-360.1,546.8c2.4-0.6,5.1-1,7.5-1c3.7,0,6.6,0.5,6.6,0.5s-5.4,27.3-6.2,31.2c-0.7,3.9,2.8,1.8,2.8,1.8
					c4.1,3.6,4.5,7.4,4.5,7.4s-5.6,6.1-14.4,6.1c-2.1,0-7.3,0.2-9.4-4.4c-5.2,5-10.1,4.4-12.2,4.4c-7.3,0-17-4.8-17-17.9
					c0-21.3,17.4-29.4,27.5-29.4c4.5,0,6.9,1.5,8.8,3.7L-360.1,546.8z M-365,558.8c0,0-2.1-2.4-5.2-2.4c-5.8,0-11.1,8.4-11.1,18.7
					c0,4.7,2.1,6.9,6,6.9c1.9,0,4.3-0.6,6.2-1.8L-365,558.8z"/>
				<path class="st8" d="M-307.3,564.9c0-0.2,0.4-1.5,0.4-2.9c0-1.9-0.6-4.4-3.6-4.4c-1.9,0-3.7,1.5-3.7,1.5l-6.2,32
					c-3.6,1-6.7,1.3-9.9,1.3c-2.2,0-4.3-0.2-6.9-0.5l6-32c0.6-2.7-2.8-1.5-2.8-1.5s-2.8-3.9-3.2-9.2c3.4-1.9,8.2-3.9,12.6-3.9
					c3.6,0,6.7,1.3,8.4,5c3.7-3.6,7.9-4.8,12.2-4.8c9.6,0,13.5,5.3,13.5,13.4c0,1.9-0.2,3.9-0.6,6l-2.2,12.4
					c-0.6,3.7,2.8,1.9,2.8,1.9c4.1,3.6,4.5,7.4,4.5,7.4s-6.6,6.1-15.4,6.1c-6.6,0-9.2-4.7-9.2-9.7c0-1,0.2-1.9,0.4-2.9L-307.3,564.9
					z"/>
				<path class="st8" d="M-273.4,560.7c-0.7-2.7-3.9-1.8-3.9-1.8s-3-3.9-3.2-9.2c4.5-2.4,10.5-4,13.7-4c4.7,0,7.5,2.1,8.1,6.6
					l2.1,14.2c0.6,4.2,0.6,9.4,0.6,9.4s2.6-6.6,3.9-9l4.5-8.7c1.3-2.6,1.7-5.7,1.7-7.8c0-1.9-0.2-3.2-0.2-3.2
					c3-1.3,13.1-1.3,13.1-1.3c0.2,1.5,0.4,2.7,0.4,4.4c0,4.2-1.1,8.7-3.2,12.4l-16.5,27.8c-6,9.5-15.7,18.9-27.5,27.8
					c-5.8-3.2-7.1-10-7.1-10c9.4-7.8,13.7-10.2,20-18.9L-273.4,560.7z"/>
				<path class="st8" d="M-198.8,558.1h-6.9c0,0,0.9-5.3,4.1-11.6h5.1l1.7-8.9c2.6-13.4,12.9-18.1,21.7-18.1c9,0,12.2,3.2,12.2,3.2
					s-3.2,6.3-8.6,10c0,0-1.1-0.6-3.2-0.6c-1.9,0-4.3,0.6-5.4,5.7l-1.7,8.7h30.3c0,0,0.7,3.1,0.7,6.5c0,1.3-0.2,2.7-0.4,3.9
					l-4.1,20.7c-0.9,4.2,2.6,1.9,2.6,1.9c3.9,3.4,4.5,7.4,4.5,7.4s-6.2,6.1-14.4,6.1c-8.4,0-11.1-6.5-9.9-12.6l4.1-22.1h-15.5
					l-6.7,35.7c-2.2,11.3-4.9,18.4-13.9,24.2c-6.4-5.3-7.9-10.2-7.9-10.2c3-5,4.9-12.8,5.2-15L-198.8,558.1z M-153.8,539.9
					c-4.9,0-8.6-3.2-8.6-7.8c0-4.4,3.7-7.9,8.6-7.9c4.9,0,8.8,3.6,8.8,7.9C-145.2,536.6-149.1,539.9-153.8,539.9z"/>
				<path class="st8" d="M-125.9,573.5c-6.9-2.4-10.3-7.3-8.8-13.7c1.3-6.9,8.4-14.1,20.8-14.1c12,0,15.5,7.1,16.3,9.5
					c0,0-3,4-11.2,5.3c0,0-2.2-4-5.4-4c-1.5,0-3,0.3-3.4,1.9c-0.4,1.6,0.4,2.7,2.2,3.4l4.5,1.6c7.7,2.7,10.9,6.9,10.3,13.2
					c-0.6,6.1-6.7,16.1-23,16.1c-12.4,0-16.9-8.2-17.2-12.4c5.4-2.9,11.1-3.9,11.1-3.9s1.7,5.7,7.3,5.7c3.2,0,4.3-1.9,4.7-3.2
					c0.4-1.5-0.4-2.6-3.2-3.6L-125.9,573.5z"/>
				<path class="st8" d="M-62,564.7c0.9-4.8-0.9-8.1-4.3-8.1c-0.7,0-2.4,0.2-4.7,1.8l-6.2,32.8c-3.7,1-6.9,1.1-10.1,1.1
					c-2.1,0-4.3-0.2-6.6-0.3l11.1-57.8c0.6-2.9-2.8-1.5-2.8-1.5s-3-3.9-3-9.2c4.3-2.3,10.5-3.9,13.7-3.9c6.6,0,10.9,3.6,9.4,11.3
					l-3.2,17.6c1.5-1.3,4.9-2.6,8.4-2.6c9.7,0,15.2,6.6,15.2,15.3c0,1.5-0.2,2.9-0.4,4.4l-2.1,11.3c-0.7,3.9,2.2,1.9,2.2,1.9
					c4.3,3.6,4.9,8.1,4.9,8.1s-6,6.1-14.2,6.1c-8.4,0-11.2-6.6-9.9-12.6L-62,564.7z"/>
				<path class="st8" d="M-28.7,571.2c2.4-20,15.4-21,17.6-30.2c0.6-3.1-0.2-6.9-4.1-6.9c-4.5,0-9.7,6.5-9.7,6.5s-6.7-3.6-8.8-7.8
					c2.4-3.1,8.6-10.7,21.5-10.7c10.5,0,18.4,6,18.4,15.2c0,1.1-0.2,2.3-0.4,3.6c-3.6,15.5-19.1,14.9-21,33.6
					C-25.5,575.1-28.7,571.2-28.7,571.2z M-23.1,593c-4.1,0-7.7-3.1-7.7-6.9c0-3.9,3.6-7.1,7.7-7.1s7.7,3.2,7.7,7.1
					C-15.4,589.9-18.9,593-23.1,593z"/>
			</g>
		</g>
	</g>
	<rect x="-425.9" y="753.2" class="st3" width="349" height="42"/>
</g>
</svg>
