<?xml version="1.0" encoding="utf-8"?>
<!-- Generator: Adobe Illustrator 19.1.0, SVG Export Plug-In . SVG Version: 6.00 Build 0)  -->
<svg version="1.1" id="Layer_1" xmlns="http://www.w3.org/2000/svg" xmlns:xlink="http://www.w3.org/1999/xlink" x="0px" y="0px"
	 viewBox="0 0 270 120" style="enable-background:new 0 0 270 120;" xml:space="preserve">
<style type="text/css">
	.st0{fill:#3366CC;stroke:#246EB9;stroke-miterlimit:10;}
	.st1{fill:#FFFFFF;}
	.st2{fill:#246EB9;}
	.st3{fill:none;stroke:#246EB9;stroke-miterlimit:10;}
</style>
<rect x="-3.3" y="138.9" class="st0" width="270" height="65"/>
<g>
	<g>
		<path class="st1" d="M20,99.5c-1.9,0-3.7-0.6-5.3-1.7c-0.5,0.4-1.1,0.7-1.7,0.9c-1.7,0.5-3.3,0.7-5,0.7c-1.1,0-2.1-0.1-3.1-0.2
			c-1.5-0.2-2.9-1.2-3.8-2.7c-0.9-1.5-1.2-3.3-1-5.2l3.5-20.9C2.9,69,2,66.6,1.9,63.6c-0.1-2.6,1.2-4.9,3.1-6.1
			c1.9-1.1,5.1-2.3,7.5-2.3c3,0,5.6,1.3,7.2,3.8c1.5,2.1,2.1,5,1.8,8c4.5,1.6,7.6,6.4,7.6,12.5c0,1.2-0.1,2.2-0.3,3.2l-0.2,1.1
			c1.3,2,1.9,4.2,2.1,5.9c0.2,2-0.4,3.9-1.7,5.4C28.6,95.8,25.1,99.5,20,99.5z"/>
		<path class="st1" d="M35.4,99.5c-7.6,0-13.1-6.2-13.1-14.6c0-1.2,0.1-2.3,0.3-3.3c1.5-9,8.1-15.2,15.9-15.2
			c7.4,0,12.9,6.5,12.9,15.2c0,1.2-0.2,2.1-0.2,2.9c0,0.1,0,0.2,0,0.2C49.8,93.3,43.4,99.5,35.4,99.5z"/>
		<path class="st1" d="M62.3,99.4c-1.1,0-1.9-0.3-2.8-0.9c-0.3,0.2-0.6,0.3-1,0.3c-2.3,0.5-4.5,0.5-6,0.5c-2.6,0-5-2.2-5.5-5.3
			L45.4,84c-0.4-0.3-0.9-0.8-1.2-1.3c-0.4-0.5-2.3-3.6-2.4-7.9c-0.1-2.6,1.1-5,3-6.2c0.7-0.4,4.2-2.5,7.1-2.5c3.1,0,5.3,1.2,6.7,3.1
			c0.4-0.2,2.2-0.7,4.3-0.7c0.2,0,0.4,0,0.6,0c0.1,0,0.2,0,0.3,0c0.4,0.1,1.2,0.2,1.6,0.2c0.5-0.7,1.2-1.2,1.9-1.5
			c0.5-0.3,2-1.1,6.2-1.1c2.4,0,4.5,1.9,5.3,4.6c0.3,1.3,0.5,2.6,0.5,3.9c0,2.8-0.7,5.7-1.9,8.2l-5.9,12.5c-0.8,1.5-1.9,2.7-3.4,3.2
			C65.9,99.3,62.9,99.4,62.3,99.4z"/>
		<path class="st1" d="M105.5,99.5c-1.7,0-3.2-0.5-4.5-1.3c-0.3,0.2-0.7,0.3-1.1,0.4c-1.7,0.5-3.1,0.7-4.5,0.7c-1,0-2-0.2-3.2-0.3
			c-0.3-0.1-0.6-0.2-0.9-0.3c-1.7,0.5-3.2,0.7-4.8,0.7c-1.2,0-2.3-0.2-3.1-0.3c-1.5-0.2-2.9-1.2-3.8-2.7c-0.9-1.5-1.2-3.3-1-5.1
			l1.6-9.9c-0.6-1.3-1.6-3.6-1.7-6.3c-0.2-2.7,1.1-5.1,3-6.3c1.2-0.7,4.2-2.3,7.1-2.3c1.3,0,2.6,0.3,3.7,0.9c1.2-0.5,2.6-0.9,4-0.9
			c1.6,0,3.1,0.3,4.3,0.9c1.9-0.9,3.4-0.9,4.3-0.9c6.2,0,10.2,4.5,10.2,11.5c0,1.3-0.2,2.6-0.3,3.9l-0.3,2.2c1.6,2.3,2,4.6,2.1,5.4
			c0.3,2.1-0.3,4.3-1.6,5.6C114.3,95.8,110.9,99.5,105.5,99.5z"/>
		<path class="st1" d="M120.5,99.5c-0.2,0-0.3,0-0.5,0h-0.1c-5.8,0-11.9-5-11.9-14.2c0-13.1,9.2-19,15.8-19c1.1,0,2.2,0.2,3.1,0.5
			c1.1-0.3,2.2-0.4,3.5-0.4c1.7,0,3.1,0.3,3.3,0.3c1.5,0.3,2.8,1.3,3.7,2.8c0.9,1.5,1.2,3.3,0.9,5.1c-0.5,2.8-1.1,6.6-1.6,9.4
			c1.7,2.5,2,4.8,2.1,5.6c0.2,2-0.3,3.9-1.5,5.4c-0.6,0.8-4,4.6-9.4,4.6l-0.1-3.3l-0.1,0.1v3.2c-1.5,0-2.6-0.3-3.7-0.7
			C123,99.2,121.8,99.5,120.5,99.5z"/>
		<path class="st1" d="M149.6,99.5c-1.7,0-3.3-0.5-4.6-1.4c-0.3,0.2-0.7,0.3-1.1,0.5c-1.7,0.5-3.3,0.8-5,0.8c-1.2,0-2.3-0.2-3.2-0.3
			c-1.5-0.2-2.9-1.2-3.8-2.7c-0.9-1.5-1.2-3.3-1-5.2l1.6-9.8c-0.6-1.3-1.5-3.6-1.7-6.4c-0.2-2.6,1-5,2.9-6.2
			c1.7-1.1,4.4-2.5,7.3-2.5c1.3,0,2.6,0.3,3.7,0.9c1.2-0.5,2.6-0.8,4-0.8c6.4,0,10.6,4.9,10.6,12.3c0,1.4-0.1,2.7-0.3,3.8l-0.2,1.4
			c1.7,2.4,2.1,4.7,2.2,5.5c0.3,2.2-0.4,4.4-1.8,5.9C158.3,95.9,154.7,99.5,149.6,99.5z"/>
		<path class="st1" d="M157.5,110.1c-0.9,0-1.8-0.3-2.6-0.8c-4.3-2.7-5.4-7.8-5.5-8.8c-0.4-2.5,0.3-4.9,2-6.5c0.8-0.8,1.5-1.4,2.2-2
			c1.2-1.1,1.9-1.8,2.7-2.7l-1.1-5.6c-0.3-0.3-0.6-0.7-0.9-1.1c-0.4-0.5-2.3-3.6-2.4-7.9c-0.1-2.6,1.1-5,3-6.2
			c1.9-1.2,5.1-2.5,7.6-2.5c1.8,0,3.5,0.5,4.8,1.5c0.2-0.2,0.5-0.3,0.8-0.4c0.6-0.3,2.2-1.1,7.1-1.1c2.7,0,5.1,2.3,5.5,5.5
			c0.1,0.8,0.2,1.7,0.2,2.9c0,3.2-0.8,6.3-2.1,8.7c0,0-6.2,11.8-6.2,11.9c-2.4,4.4-6.2,8.8-11.6,13.5
			C159.8,109.7,158.6,110.1,157.5,110.1z"/>
		<path class="st1" d="M186.2,110.1c-1.2,0-2.5-0.5-3.6-1.5c-3.3-3.2-4.4-6.3-4.7-7.3c-0.6-1.9-0.3-4,0.6-5.7c0.5-0.9,1.1-3,1.2-4.1
			l1.5-8.6c-0.2-0.2-0.2-0.3-0.3-0.5c-1.1-1.5-1.5-3.5-1.2-5.4c0.1-0.5,0.6-3.6,2.2-7c0.5-1,1.2-1.9,2-2.6
			c1.5-7.6,6.8-12.4,13.4-12.4c3.4,0,5.6,1,7.1,2h0.1c4.9,0,8.8,4.5,8.8,10c0,2.1-0.6,4.1-1.5,5.6c0.2,0.9,0.2,1.9,0.2,3.2
			c0,1.2-0.1,2.2-0.3,3.2l-0.9,4.9c1.5,2.2,1.9,4.4,2.1,5.2c0.3,2.2-0.3,4.4-1.7,6c-0.6,0.8-4.2,4.4-9.2,4.4c-2.2,0-4.1-0.7-5.7-2
			c-1,4.1-2.7,8.4-7.1,11.7C188.2,109.8,187.2,110.1,186.2,110.1z"/>
		<path class="st1" d="M215.5,99.5c-7.2,0-11.6-5.9-12-11.4c-0.2-2.3,0.8-4.6,2.3-5.9c-0.3-1.5-0.2-3.2,0.1-4.8
			c1.1-6.6,6.5-11.1,13.1-11.1c6.8,0,10.4,4.7,11.3,8.7c0.5,2.1,0.2,4.3-0.9,5.9c-0.1,0.2-0.3,0.4-0.5,0.6c0.4,1.5,0.6,3.1,0.5,5
			C229.1,93,224.2,99.5,215.5,99.5z"/>
		<path class="st1" d="M241,99.5c-1.9,0-3.7-0.6-5.3-1.7c-0.5,0.4-1.1,0.7-1.7,0.9c-1.7,0.5-3.3,0.7-5,0.7c-1.1,0-2.1-0.1-3.1-0.2
			c-1.5-0.2-2.9-1.2-3.8-2.7c-0.9-1.5-1.2-3.3-1-5.2l3.5-20.9c-0.7-1.4-1.6-3.8-1.7-6.7c-0.1-2.6,1.2-4.9,3.1-6.1
			c1.9-1.1,5.1-2.3,7.5-2.3c3,0,5.6,1.3,7.2,3.8c1.5,2.1,2.1,5,1.8,8c4.5,1.6,7.6,6.4,7.6,12.5c0,1.1-0.1,2.2-0.3,3.2l-0.2,1.2
			c1.3,2,1.9,4.2,2.1,5.9c0.2,2-0.4,3.9-1.7,5.4C249.5,95.8,246.1,99.5,241,99.5z"/>
		<path class="st1" d="M252.9,99.5c-4.7,0-8.4-4.3-8.4-9.5c0-1.6,0.3-3.2,1-4.5c-0.2-0.9-0.3-1.7-0.2-2.6c0.3-3.3,1.2-5.9,2.2-7.9
			c-1.2-1.1-2.6-2.6-3.4-4.6c-1-2.4-0.7-5.3,0.9-7.3l0.1-0.1c1.2-1.6,4.9-6.7,12.1-6.7c7.1,0,12.4,5.5,12.4,13.1
			c0,0.9-0.1,1.8-0.2,2.7c0,0.1,0,0.2-0.1,0.3c-1.1,5.2-3.7,7.9-5.6,9.7c-1.7,1.6-2,2.1-2.2,3.6c-0.1,0.6-0.2,1.2-0.3,1.8
			c0.2,0.9,0.3,1.6,0.3,2.5C261.4,95.3,257.6,99.5,252.9,99.5z"/>
	</g>
	<g>
		<path class="st2" d="M17.5,80.9c0.3-2.1-0.3-3.4-1.6-3.4c-0.3,0-0.9,0.1-1.7,0.8l-2.3,13.9c-1.4,0.4-2.6,0.5-3.7,0.5
			c-0.8,0-1.6-0.1-2.4-0.2L9.8,68c0.2-1.2-1.1-0.6-1.1-0.6s-1.1-1.6-1.1-3.9c1.6-0.9,3.9-1.6,5.1-1.6c2.4,0,4,1.5,3.5,4.8l-1.2,7.4
			c0.6-0.5,1.8-1.1,3.1-1.1c3.7,0,5.6,2.8,5.6,6.5c0,0.6-0.1,1.2-0.2,1.9l-0.8,4.8c-0.3,1.6,0.8,0.9,0.8,0.9
			c1.6,1.5,1.8,3.4,1.8,3.4S23.2,93,20.1,93c-3.1,0-4.2-2.8-3.7-5.3L17.5,80.9z"/>
		<path class="st2" d="M35.4,92.8c-4.8,0-7.6-3.6-7.6-8c0-0.6,0.1-1.3,0.2-2c1.1-6.7,5.8-10,10.5-10s7.3,3.9,7.3,8.5
			c0,0.6-0.1,1.3-0.2,1.9C44.7,89.8,39.9,92.8,35.4,92.8z M39.4,83.1c0.2-0.5,0.2-1.4,0.2-2.4c0-1.5-0.3-3-1.8-3
			c-1.8,0-3,2.6-3.6,5.4C34,83.7,34,84.4,34,85.2c0,1.5,0.4,3,1.9,3C37.6,88.2,39.1,85.4,39.4,83.1z"/>
		<path class="st2" d="M61.7,86.8c-0.2-1.9-0.3-4.3-0.3-4.3s-0.9,2.9-1.5,4.4l-2.4,5.5c-1.7,0.4-3.6,0.4-4.9,0.4l-2.2-13.5
			c-0.2-1.4-1.7-0.8-1.7-0.8s-1.1-1.6-1.2-3.9c1.7-1,3.7-1.7,4.5-1.7c1.9,0,3.1,0.9,3.3,2.8l0.7,5.5c0.3,2.2,0.3,5.1,0.3,5.1
			s0.8-2.6,1.6-4.8l2.2-5.8c0,0,1.6-0.5,3.3-0.4c0.4,0.1,1.4,0.2,1.4,0.2l0.4,6.1c0.2,1.9,0.1,4.7,0.1,4.7s0.7-2.5,1.8-4.7l1.7-3.6
			c0.9-1.9,0.9-4.7,0.9-4.7c1-0.5,4-0.5,4-0.5c0.2,0.6,0.2,1.2,0.2,1.9c0,1.5-0.4,3.4-1.1,4.9l-5.9,12.5c-1.7,0.5-4.4,0.5-4.4,0.5
			L61.7,86.8z"/>
		<path class="st2" d="M103.5,80.6c0.2-0.9,0.3-2.6-0.9-2.6c-1,0-1.7,0.6-1.7,0.6l-2.3,13.5c-1.2,0.3-2.2,0.5-3.3,0.5
			c-0.7,0-1.4-0.1-2.3-0.3l2-12.3c0.2-1.2-0.2-2.1-1-2.1c-1,0-1.7,0.5-1.7,0.5L90.2,92c-1.3,0.4-2.4,0.5-3.7,0.5
			c-0.8,0-1.5-0.1-2.4-0.2l2.2-13.5c0.2-1.2-1.1-0.6-1.1-0.6s-1.1-1.7-1.2-3.9c1.5-0.9,3.3-1.5,4.6-1.5c1.1,0,2.6,0.4,3.3,2
			c1.6-1.5,3.1-2,4.5-2c1.8,0,2.8,0.5,3.8,2.2c1.9-1.9,3.7-2.2,4.7-2.2c3.5,0,4.6,2,4.6,4.9c0,0.9-0.1,1.7-0.2,2.6l-1.1,6
			c-0.2,1.5,1,0.9,1,0.9c1.5,1.5,1.7,3.2,1.7,3.2s-2.2,2.6-5.5,2.6c-2.4,0-3.4-1.9-3.4-4c0-0.4,0.1-0.9,0.2-1.3L103.5,80.6z"/>
		<path class="st2" d="M127.7,73.4c0.9-0.3,1.9-0.4,2.8-0.4c1.4,0,2.4,0.2,2.4,0.2s-2,11.5-2.3,13.2s1.1,0.8,1.1,0.8
			c1.5,1.5,1.7,3.2,1.7,3.2s-2.1,2.6-5.4,2.6c-0.8,0-2.7,0.1-3.5-1.9c-1.9,2.1-3.7,1.9-4.5,1.9c-2.7,0-6.3-2.1-6.3-7.6
			c0-9.1,6.5-12.5,10.2-12.5c1.7,0,2.6,0.6,3.3,1.5L127.7,73.4z M125.9,78.4c0,0-0.8-1-1.9-1c-2.2,0-4.1,3.6-4.1,7.9
			c0,2,0.8,2.9,2.2,2.9c0.7,0,1.6-0.3,2.3-0.8L125.9,78.4z"/>
		<path class="st2" d="M147.3,81c0-0.1,0.2-0.6,0.2-1.2c0-0.9-0.2-1.9-1.3-1.9c-0.7,0-1.4,0.6-1.4,0.6l-2.3,13.5
			c-1.3,0.4-2.5,0.5-3.7,0.5c-0.9,0-1.6-0.1-2.6-0.2l2.2-13.5c0.2-1.2-1.1-0.6-1.1-0.6s-1.1-1.6-1.2-3.9c1.2-0.9,3.1-1.6,4.7-1.6
			c1.3,0,2.5,0.5,3.1,2.1c1.4-1.5,2.9-2.1,4.5-2.1c3.6,0,5,2.2,5,5.6c0,0.9-0.1,1.6-0.2,2.6l-0.9,5.3c-0.2,1.5,1.1,0.9,1.1,0.9
			c1.5,1.5,1.7,3.2,1.7,3.2s-2.4,2.6-5.7,2.6c-2.4,0-3.4-2-3.4-4.1c0-0.4,0.1-0.9,0.2-1.2L147.3,81z"/>
		<path class="st2" d="M159.9,79.2c-0.3-1.2-1.5-0.8-1.5-0.8s-1.1-1.6-1.2-3.9c1.7-1,3.9-1.7,5.1-1.7c1.7,0,2.8,0.9,3,2.8l0.8,6
			c0.2,1.8,0.2,3.9,0.2,3.9s1-2.8,1.5-3.8l1.7-3.7c0.5-1.1,0.6-2.4,0.6-3.3c0-0.9-0.1-1.4-0.1-1.4c1.1-0.5,4.9-0.5,4.9-0.5
			c0.1,0.6,0.2,1.2,0.2,1.9c0,1.8-0.4,3.7-1.2,5.3l-6.1,11.8c-2.2,4-5.8,8-10.2,11.8c-2.2-1.4-2.6-4.3-2.6-4.3
			c3.5-3.3,5.1-4.3,7.5-8L159.9,79.2z"/>
		<path class="st2" d="M187.6,78.1H185c0,0,0.3-2.2,1.5-4.9h1.9l0.6-3.8c1-5.6,4.8-7.7,8.1-7.7c3.3,0,4.5,1.4,4.5,1.4
			s-1.2,2.7-3.2,4.3c0,0-0.4-0.3-1.2-0.3c-0.7,0-1.6,0.3-2,2.4l-0.6,3.7h11.3c0,0,0.3,1.3,0.3,2.7c0,0.5-0.1,1.2-0.2,1.6l-1.5,8.7
			c-0.3,1.8,1,0.9,1,0.9c1.5,1.4,1.7,3.2,1.7,3.2s-2.3,2.6-5.4,2.6c-3.1,0-4.1-2.7-3.7-5.3l1.5-9.4h-5.8l-2.5,15.1
			c-0.9,4.8-1.8,7.8-5.1,10.3c-2.4-2.2-2.9-4.3-2.9-4.3c1.1-2.1,1.8-5.4,1.9-6.3L187.6,78.1z M204.3,70.4c-1.8,0-3.2-1.4-3.2-3.3
			c0-1.9,1.4-3.3,3.2-3.3s3.3,1.5,3.3,3.3C207.5,69.1,206.1,70.4,204.3,70.4z"/>
		<path class="st2" d="M214.7,84.6c-2.6-1-3.8-3.1-3.3-5.8c0.5-2.9,3.1-6,7.7-6c4.5,0,5.8,3,6.1,4c0,0-1.1,1.7-4.2,2.2
			c0,0-0.9-1.7-2-1.7c-0.6,0-1.1,0.2-1.2,0.9c-0.2,0.7,0.2,1.2,0.9,1.4l1.7,0.7c2.9,1.2,4,2.9,3.8,5.6c-0.2,2.6-2.5,6.8-8.5,6.8
			c-4.6,0-6.2-3.5-6.4-5.3c2-1.2,4.1-1.6,4.1-1.6s0.6,2.4,2.7,2.4c1.2,0,1.6-0.9,1.7-1.4c0.2-0.6-0.2-1.1-1.2-1.5L214.7,84.6z"/>
		<path class="st2" d="M238.5,80.9c0.3-2.1-0.3-3.4-1.6-3.4c-0.3,0-0.9,0.1-1.7,0.8l-2.3,13.9c-1.4,0.4-2.6,0.5-3.7,0.5
			c-0.8,0-1.6-0.1-2.4-0.2l4.1-24.5c0.2-1.2-1.1-0.6-1.1-0.6s-1.1-1.6-1.1-3.9c1.6-0.9,3.9-1.6,5.1-1.6c2.4,0,4,1.5,3.5,4.8
			l-1.2,7.4c0.6-0.5,1.8-1.1,3.1-1.1c3.7,0,5.6,2.8,5.6,6.5c0,0.6-0.1,1.2-0.2,1.9l-0.8,4.8c-0.3,1.6,0.9,0.9,0.9,0.9
			c1.6,1.5,1.8,3.4,1.8,3.4s-2.2,2.6-5.3,2.6c-3.1,0-4.2-2.8-3.7-5.3L238.5,80.9z"/>
		<path class="st2" d="M250.8,83.7c0.9-8.5,5.7-8.9,6.5-12.8c0.2-1.3-0.1-2.9-1.5-2.9c-1.7,0-3.7,2.7-3.7,2.7s-2.5-1.5-3.3-3.3
			c0.9-1.3,3.2-4.5,8-4.5c3.9,0,6.8,2.6,6.8,6.4c0,0.5-0.1,0.9-0.2,1.5c-1.3,6.6-7.1,6.3-7.8,14.2C252,85.3,250.8,83.7,250.8,83.7z
			 M252.9,92.9c-1.5,0-2.9-1.3-2.9-2.9s1.3-3,2.9-3s2.8,1.4,2.8,3S254.5,92.9,252.9,92.9z"/>
	</g>
	<g>
		<path class="st3" d="M17.5,80.9c0.3-2.1-0.3-3.4-1.6-3.4c-0.3,0-0.9,0.1-1.7,0.8l-2.3,13.9c-1.4,0.4-2.6,0.5-3.7,0.5
			c-0.8,0-1.6-0.1-2.4-0.2L9.8,68c0.2-1.2-1.1-0.6-1.1-0.6s-1.1-1.6-1.1-3.9c1.6-0.9,3.9-1.6,5.1-1.6c2.4,0,4,1.5,3.5,4.8l-1.2,7.4
			c0.6-0.5,1.8-1.1,3.1-1.1c3.7,0,5.6,2.8,5.6,6.5c0,0.6-0.1,1.2-0.2,1.9l-0.8,4.8c-0.3,1.6,0.8,0.9,0.8,0.9
			c1.6,1.5,1.8,3.4,1.8,3.4S23.2,93,20.1,93c-3.1,0-4.2-2.8-3.7-5.3L17.5,80.9z"/>
		<path class="st3" d="M35.4,92.8c-4.8,0-7.6-3.6-7.6-8c0-0.6,0.1-1.3,0.2-2c1.1-6.7,5.8-10,10.5-10s7.3,3.9,7.3,8.5
			c0,0.6-0.1,1.3-0.2,1.9C44.7,89.8,39.9,92.8,35.4,92.8z M39.4,83.1c0.2-0.5,0.2-1.4,0.2-2.4c0-1.5-0.3-3-1.8-3
			c-1.8,0-3,2.6-3.6,5.4C34,83.7,34,84.4,34,85.2c0,1.5,0.4,3,1.9,3C37.6,88.2,39.1,85.4,39.4,83.1z"/>
		<path class="st3" d="M61.7,86.8c-0.2-1.9-0.3-4.3-0.3-4.3s-0.9,2.9-1.5,4.4l-2.4,5.5c-1.7,0.4-3.6,0.4-4.9,0.4l-2.2-13.5
			c-0.2-1.4-1.7-0.8-1.7-0.8s-1.1-1.6-1.2-3.9c1.7-1,3.7-1.7,4.5-1.7c1.9,0,3.1,0.9,3.3,2.8l0.7,5.5c0.3,2.2,0.3,5.1,0.3,5.1
			s0.8-2.6,1.6-4.8l2.2-5.8c0,0,1.6-0.5,3.3-0.4c0.4,0.1,1.4,0.2,1.4,0.2l0.4,6.1c0.2,1.9,0.1,4.7,0.1,4.7s0.7-2.5,1.8-4.7l1.7-3.6
			c0.9-1.9,0.9-4.7,0.9-4.7c1-0.5,4-0.5,4-0.5c0.2,0.6,0.2,1.2,0.2,1.9c0,1.5-0.4,3.4-1.1,4.9l-5.9,12.5c-1.7,0.5-4.4,0.5-4.4,0.5
			L61.7,86.8z"/>
		<path class="st3" d="M103.5,80.6c0.2-0.9,0.3-2.6-0.9-2.6c-1,0-1.7,0.6-1.7,0.6l-2.3,13.5c-1.2,0.3-2.2,0.5-3.3,0.5
			c-0.7,0-1.4-0.1-2.3-0.3l2-12.3c0.2-1.2-0.2-2.1-1-2.1c-1,0-1.7,0.5-1.7,0.5L90.2,92c-1.3,0.4-2.4,0.5-3.7,0.5
			c-0.8,0-1.5-0.1-2.4-0.2l2.2-13.5c0.2-1.2-1.1-0.6-1.1-0.6s-1.1-1.7-1.2-3.9c1.5-0.9,3.3-1.5,4.6-1.5c1.1,0,2.6,0.4,3.3,2
			c1.6-1.5,3.1-2,4.5-2c1.8,0,2.8,0.5,3.8,2.2c1.9-1.9,3.7-2.2,4.7-2.2c3.5,0,4.6,2,4.6,4.9c0,0.9-0.1,1.7-0.2,2.6l-1.1,6
			c-0.2,1.5,1,0.9,1,0.9c1.5,1.5,1.7,3.2,1.7,3.2s-2.2,2.6-5.5,2.6c-2.4,0-3.4-1.9-3.4-4c0-0.4,0.1-0.9,0.2-1.3L103.5,80.6z"/>
		<path class="st3" d="M127.7,73.4c0.9-0.3,1.9-0.4,2.8-0.4c1.4,0,2.4,0.2,2.4,0.2s-2,11.5-2.3,13.2s1.1,0.8,1.1,0.8
			c1.5,1.5,1.7,3.2,1.7,3.2s-2.1,2.6-5.4,2.6c-0.8,0-2.7,0.1-3.5-1.9c-1.9,2.1-3.7,1.9-4.5,1.9c-2.7,0-6.3-2.1-6.3-7.6
			c0-9.1,6.5-12.5,10.2-12.5c1.7,0,2.6,0.6,3.3,1.5L127.7,73.4z M125.9,78.4c0,0-0.8-1-1.9-1c-2.2,0-4.1,3.6-4.1,7.9
			c0,2,0.8,2.9,2.2,2.9c0.7,0,1.6-0.3,2.3-0.8L125.9,78.4z"/>
		<path class="st3" d="M147.3,81c0-0.1,0.2-0.6,0.2-1.2c0-0.9-0.2-1.9-1.3-1.9c-0.7,0-1.4,0.6-1.4,0.6l-2.3,13.5
			c-1.3,0.4-2.5,0.5-3.7,0.5c-0.9,0-1.6-0.1-2.6-0.2l2.2-13.5c0.2-1.2-1.1-0.6-1.1-0.6s-1.1-1.6-1.2-3.9c1.2-0.9,3.1-1.6,4.7-1.6
			c1.3,0,2.5,0.5,3.1,2.1c1.4-1.5,2.9-2.1,4.5-2.1c3.6,0,5,2.2,5,5.6c0,0.9-0.1,1.6-0.2,2.6l-0.9,5.3c-0.2,1.5,1.1,0.9,1.1,0.9
			c1.5,1.5,1.7,3.2,1.7,3.2s-2.4,2.6-5.7,2.6c-2.4,0-3.4-2-3.4-4.1c0-0.4,0.1-0.9,0.2-1.2L147.3,81z"/>
		<path class="st3" d="M159.9,79.2c-0.3-1.2-1.5-0.8-1.5-0.8s-1.1-1.6-1.2-3.9c1.7-1,3.9-1.7,5.1-1.7c1.7,0,2.8,0.9,3,2.8l0.8,6
			c0.2,1.8,0.2,3.9,0.2,3.9s1-2.8,1.5-3.8l1.7-3.7c0.5-1.1,0.6-2.4,0.6-3.3c0-0.9-0.1-1.4-0.1-1.4c1.1-0.5,4.9-0.5,4.9-0.5
			c0.1,0.6,0.2,1.2,0.2,1.9c0,1.8-0.4,3.7-1.2,5.3l-10.6,16.6c-2.2,4-1.4,3.2-5.7,6.9c-2.2-1.4-2.6-4.3-2.6-4.3
			c3.5-3.3,5.1-4.3,7.5-8L159.9,79.2z"/>
		<path class="st3" d="M187.6,78.1H185c0,0,0.3-2.2,1.5-4.9h1.9l0.6-3.8c1-5.6,4.8-7.7,8.1-7.7c3.3,0,4.5,1.4,4.5,1.4
			s-1.2,2.7-3.2,4.3c0,0-0.4-0.3-1.2-0.3c-0.7,0-1.6,0.3-2,2.4l-0.6,3.7h11.3c0,0,0.3,1.3,0.3,2.7c0,0.5-0.1,1.2-0.2,1.6l-1.5,8.7
			c-0.3,1.8,1,0.9,1,0.9c1.5,1.4,1.7,3.2,1.7,3.2s-2.3,2.6-5.4,2.6c-3.1,0-4.1-2.7-3.7-5.3l1.5-9.4h-5.8l-2.5,15.1
			c-0.9,4.8-1.8,7.8-5.1,10.3c-2.4-2.2-2.9-4.3-2.9-4.3c1.1-2.1,1.8-5.4,1.9-6.3L187.6,78.1z M204.3,70.4c-1.8,0-3.2-1.4-3.2-3.3
			c0-1.9,1.4-3.3,3.2-3.3s3.3,1.5,3.3,3.3C207.5,69.1,206.1,70.4,204.3,70.4z"/>
		<path class="st3" d="M214.7,84.6c-2.6-1-3.8-3.1-3.3-5.8c0.5-2.9,3.1-6,7.7-6c4.5,0,5.8,3,6.1,4c0,0-1.1,1.7-4.2,2.2
			c0,0-0.9-1.7-2-1.7c-0.6,0-1.1,0.2-1.2,0.9c-0.2,0.7,0.2,1.2,0.9,1.4l1.7,0.7c2.9,1.2,4,2.9,3.8,5.6c-0.2,2.6-2.5,6.8-8.5,6.8
			c-4.6,0-6.2-3.5-6.4-5.3c2-1.2,4.1-1.6,4.1-1.6s0.6,2.4,2.7,2.4c1.2,0,1.6-0.9,1.7-1.4c0.2-0.6-0.2-1.1-1.2-1.5L214.7,84.6z"/>
		<path class="st3" d="M238.5,80.9c0.3-2.1-0.3-3.4-1.6-3.4c-0.3,0-0.9,0.1-1.7,0.8l-2.3,13.9c-1.4,0.4-2.6,0.5-3.7,0.5
			c-0.8,0-1.6-0.1-2.4-0.2l4.1-24.5c0.2-1.2-1.1-0.6-1.1-0.6s-1.1-1.6-1.1-3.9c1.6-0.9,3.9-1.6,5.1-1.6c2.4,0,4,1.5,3.5,4.8
			l-1.2,7.4c0.6-0.5,1.8-1.1,3.1-1.1c3.7,0,5.6,2.8,5.6,6.5c0,0.6-0.1,1.2-0.2,1.9l-0.8,4.8c-0.3,1.6,0.9,0.9,0.9,0.9
			c1.6,1.5,1.8,3.4,1.8,3.4s-2.2,2.6-5.3,2.6c-3.1,0-4.2-2.8-3.7-5.3L238.5,80.9z"/>
		<path class="st3" d="M250.8,83.7c0.9-8.5,5.7-8.9,6.5-12.8c0.2-1.3-0.1-2.9-1.5-2.9c-1.7,0-3.7,2.7-3.7,2.7s-2.5-1.5-3.3-3.3
			c0.9-1.3,3.2-4.5,8-4.5c3.9,0,6.8,2.6,6.8,6.4c0,0.5-0.1,0.9-0.2,1.5c-1.3,6.6-7.1,6.3-7.8,14.2C252,85.3,250.8,83.7,250.8,83.7z
			 M252.9,92.9c-1.5,0-2.9-1.3-2.9-2.9s1.3-3,2.9-3s2.8,1.4,2.8,3S254.5,92.9,252.9,92.9z"/>
	</g>
</g>
<g>
	<path class="st1" d="M39.1,23.9c-2-1-3.6-2.4-3.6-4.7c0-3.1,2.4-6.5,7.6-6.5c3.3,0,5.7,1.9,5.7,1.9c-0.2,1.1-0.4,2.8-1,4.3
		C47.5,19,47,19,46.5,19c-0.8,0-1.6-0.1-2.4-0.3c0.3-1.4-0.4-2.3-1.5-2.3c-0.9,0-1.8,0.6-1.9,1.5c-0.2,0.9,0.4,1.7,1.2,2.1l2.2,1
		c3.1,1.5,4.1,3.1,4.1,5.2c0,3.9-2.9,7.2-8.3,7.2c-4,0-5.9-2.4-6.6-3.9c1-1.6,3.1-2.3,3.1-2.3s1,2.6,3.9,2.6c1.1,0,2.1-0.4,2.6-1.4
		c0.2-0.5,0.3-0.9,0.3-1.3c0-1-0.7-1.6-2.1-2.3L39.1,23.9z"/>
	<path class="st1" d="M52.6,22.9h-1.8c0,0,0.2-1.6,1.2-3.5h1.3c0.3-1.8,0.2-3.4,0.2-3.4c2.1-0.9,4.4-1,4.4-1
		c0.1,0.6,0.2,1.1,0.2,1.7c0,0.9-0.1,1.8-0.3,2.7h3.7c0,0-0.2,1.6-1.2,3.5h-3.1l-1,4.9c-0.1,0.4-0.1,0.7-0.1,0.9c0,0.8,0.4,1,0.7,1
		c0.9,0,2.3-0.8,2.3-0.8c0.7,1.3,0.7,2.5,0.7,2.5s-2.2,1.9-4.8,1.9c-2.3,0-4-1.4-3.5-4L52.6,22.9z"/>
	<path class="st1" d="M72.9,19.5c0.7-0.2,1.4-0.3,2.1-0.3c1,0,1.8,0.2,1.8,0.2s-1.5,8.2-1.7,9.4c-0.2,1.2,0.8,0.5,0.8,0.5
		c1.1,1,1.2,2.2,1.2,2.2s-1.6,1.8-4,1.8c-0.6,0-2,0-2.6-1.3c-1.4,1.5-2.8,1.3-3.4,1.3c-2,0-4.7-1.4-4.7-5.4c0-6.4,4.8-8.8,7.6-8.8
		c1.2,0,1.9,0.5,2.4,1.1L72.9,19.5z M71.5,23.1c0,0-0.6-0.8-1.4-0.8c-1.6,0-3,2.5-3,5.6c0,1.4,0.6,2.1,1.7,2.1
		c0.5,0,1.2-0.2,1.7-0.5L71.5,23.1z"/>
	<path class="st1" d="M80.9,23.5c0.2-0.8-0.8-0.4-0.8-0.4s-0.8-1.2-0.9-2.8c1-0.6,2.2-1.1,3.6-1.1c1.2,0,1.9,0.7,2.1,1.8
		c0.5-0.9,1.6-1.8,2.9-1.8c1,0,1.6,0.3,2,0.6c0,1.1-0.7,2.6-1.6,3.6C87.9,23.2,87.6,23,87,23c-0.4,0-1,0.2-1.6,0.5l-1.7,9.3
		c-1,0.3-1.9,0.4-2.8,0.4c-0.6,0-1.1,0-1.8-0.1L80.9,23.5z"/>
	<path class="st1" d="M92.1,22.9h-1.8c0,0,0.2-1.6,1.2-3.5h1.3C93.1,17.6,93,16,93,16c2.1-0.9,4.4-1,4.4-1c0.1,0.6,0.2,1.1,0.2,1.7
		c0,0.9-0.1,1.8-0.3,2.7h3.7c0,0-0.2,1.6-1.2,3.5h-3.1l-1,4.9c-0.1,0.4-0.1,0.7-0.1,0.9c0,0.8,0.4,1,0.7,1c0.9,0,2.3-0.8,2.3-0.8
		c0.7,1.3,0.7,2.5,0.7,2.5s-2.2,1.9-4.8,1.9c-2.3,0-4-1.4-3.5-4L92.1,22.9z"/>
	<path class="st1" d="M108.8,33.2l2.9-16.4c0.1-0.2-0.6-0.5-1.1-0.5c0,0,0-1.8,0.8-2.8c0,0,1.4-0.5,2.8-0.5h11.2c0,0-0.4,2.6-1,3.6
		h-8l-0.7,4.3h6.9c0,0-0.4,2.6-1.1,3.6h-6.5l-0.8,5h8.7c0,0-0.4,2.6-1,3.6H108.8z"/>
	<path class="st1" d="M131.8,30.7c-0.3-0.5-0.6-1.1-0.6-1.1c-1.7,3.7-5,3.9-5,3.9c0,0-1.2-1.5-1.3-3.3c0,0,3.1-0.8,4.8-4.1l-1.4-2.4
		c-0.5-1-1.4-0.5-1.4-0.5s-0.8-1.2-0.9-2.8c1.3-0.7,2.3-1.2,3.6-1.2c1.5,0,2,0.7,2.5,1.8l0.5,1.1c0.3,0.6,0.5,1.2,0.5,1.2
		c1.8-3.6,4.8-4.1,4.8-4.1s1,1,1.2,3.3c0,0-2.6,0.7-4.5,4l1.2,2.1c0.7,1.1,1.4,0.7,1.4,0.7c1.1,1,1.3,2.3,1.3,2.3
		c0-0.1-1.1,1.8-3.3,1.8c-1.7,0-2.5-1-2.8-1.4L131.8,30.7z"/>
	<path class="st1" d="M150.5,19.2c2.1,0,4.7,1.6,4.6,6c-0.2,6.1-4,8.2-6.7,8.2c-1.2,0-1.9-0.3-2.6-0.8l-0.4,2.2
		c-0.4,2.4-1,4.1-2.7,6.1c-2.3-1.2-3-2.9-3-2.9c0.8-1.4,1-2,1.3-3.6l1.9-11c0.2-0.8-0.8-0.4-0.8-0.4s-0.8-1.2-0.9-2.8
		c0.9-0.6,2.2-1.1,3.4-1.1c1,0,1.9,0.4,2.4,1.5C148.4,19.4,149.5,19.2,150.5,19.2z M146.4,29.3c0.3,0.3,0.7,0.5,1.4,0.5
		c1,0,2.3-1.5,2.5-4.4c0.1-1.8-0.3-3-1.3-3c-0.7,0-1.5,0.6-1.5,0.6L146.4,29.3z"/>
	<path class="st1" d="M159.7,15.7c0.1-0.9-0.8-0.4-0.8-0.4s-0.8-1.2-0.8-2.8c1.2-0.7,2.8-1.2,3.7-1.2c1.8,0,3,1.1,2.6,3.4l-2.5,14.1
		c-0.2,1.1,0.7,0.6,0.7,0.6c1.1,1,1.3,2.2,1.3,2.2s-1.7,1.8-4,1.8c-2.2,0-2.9-2-2.6-3.8L159.7,15.7z"/>
	<path class="st1" d="M171.6,33.4c-3.6,0-5.6-2.5-5.6-5.7c0-0.5,0-0.9,0.1-1.4c0.8-4.7,4.3-7.1,7.8-7.1c3.5,0,5.4,2.8,5.4,6.1
		c0,0.5-0.1,0.9-0.1,1.4C178.5,31.2,174.9,33.4,171.6,33.4z M174.5,26.4c0.1-0.4,0.2-1,0.2-1.7c0-1.1-0.3-2.2-1.3-2.2
		c-1.3,0-2.2,1.8-2.6,3.8c-0.1,0.4-0.1,1-0.1,1.5c0,1.1,0.3,2.1,1.4,2.1C173.2,30.1,174.3,28.1,174.5,26.4z"/>
	<path class="st1" d="M183,23.5c0.1-0.8-0.8-0.4-0.8-0.4s-0.8-1.2-0.9-2.8c1-0.6,2.2-1.1,3.6-1.1c1.2,0,1.9,0.7,2.1,1.8
		c0.5-0.9,1.6-1.8,2.9-1.8c1.1,0,1.7,0.3,2,0.6c0,1.1-0.7,2.6-1.6,3.6c-0.3-0.1-0.6-0.3-1.2-0.3c-0.5,0-1,0.2-1.6,0.5l-1.7,9.3
		c-1,0.3-1.9,0.4-2.8,0.4c-0.6,0-1.1,0-1.8-0.1L183,23.5z"/>
	<path class="st1" d="M194.5,23.6c0.1-0.8-0.8-0.4-0.8-0.4s-0.8-1.2-0.9-2.8c1.1-0.7,2.8-1.2,3.7-1.2c1.8,0,3,1.1,2.6,3.4l-1.1,6.2
		c-0.3,1.3,0.7,0.6,0.7,0.6c1.1,1,1.3,2.2,1.3,2.2s-1.7,1.8-4,1.8c-2.3,0-3.1-1.9-2.7-3.8L194.5,23.6z M197.9,17.4
		c-1.4,0-2.4-1-2.4-2.3c0-1.3,1-2.4,2.4-2.4c1.3,0,2.4,1.1,2.4,2.4C200.3,16.5,199.2,17.4,197.9,17.4z"/>
	<path class="st1" d="M210.5,25c0-0.1,0.1-0.5,0.1-0.9c0-0.6-0.2-1.3-1-1.3c-0.5,0-1,0.4-1,0.4l-1.7,9.6c-1,0.3-1.9,0.4-2.7,0.4
		c-0.6,0-1.2-0.1-1.9-0.1l1.7-9.6c0.1-0.8-0.8-0.4-0.8-0.4s-0.8-1.2-0.9-2.8c0.9-0.6,2.2-1.2,3.5-1.2c1,0,1.9,0.4,2.3,1.5
		c1-1.1,2.2-1.5,3.4-1.5c2.6,0,3.7,1.6,3.7,4c0,0.6,0,1.2-0.2,1.8l-0.6,3.8c-0.2,1.1,0.8,0.6,0.8,0.6c1.1,1,1.3,2.2,1.3,2.2
		s-1.8,1.8-4.2,1.8c-1.8,0-2.5-1.4-2.5-2.9c0-0.3,0-0.6,0.1-0.9L210.5,25z"/>
	<path class="st1" d="M225.3,32.5c-1,0.9-2.1,0.9-2.5,0.9c-2.8,0-4.8-2.4-4.8-5.7c0-0.5,0-1,0.1-1.5c0.8-5,4.5-7,7.1-7
		c1.8,0,2.5,1.1,2.5,1.1l0.4-0.5c0.8-0.2,1.6-0.3,2.2-0.3c1,0,1.7,0.2,1.7,0.2l-2.8,15.5c-0.8,4.6-4.3,5.8-7.8,5.8
		c-1.2,0-2.6,0-4.6-0.4c0,0-0.3-2.1,0.7-3.5c1.1,0.1,2.2,0.3,3.2,0.3c2.4,0,3.8-0.4,4.2-2.5L225.3,32.5z M226.9,23
		c0,0-0.5-0.7-1.4-0.7c-1.2,0-2.4,1.8-2.8,4.4c-0.1,0.3-0.1,0.7-0.1,1.1c0,1,0.3,2.1,1.6,2.1c0.9,0,1.6-0.5,1.6-0.5L226.9,23z"/>
</g>
</svg>
