<?xml version="1.0" encoding="utf-8"?>
<!-- Generator: Adobe Illustrator 19.1.0, SVG Export Plug-In . SVG Version: 6.00 Build 0)  -->
<svg version="1.1" id="Layer_1" xmlns="http://www.w3.org/2000/svg" xmlns:xlink="http://www.w3.org/1999/xlink" x="0px" y="0px"
	 viewBox="0 0 1808 1070" style="enable-background:new 0 0 1808 1070;" xml:space="preserve">
<style type="text/css">
	.st0{fill:#0A3C78;stroke:#0A3C78;stroke-miterlimit:10;}
	.st1{fill:none;stroke:#0A3C78;stroke-miterlimit:10;}
	.st2{fill:none;}
	.st3{fill:#246EB9;}
	.st4{font-family:'OpenSans-Bold';}
	.st5{font-size:40px;}
	.st6{font-size:20px;}
	.st7{font-family:'OpenSans-Italic';}
	.st8{font-size:25px;}
	.st9{fill:#FFFFFF;}
	.st10{font-family:'OpenSans';}
	.st11{fill:#333333;}
	.st12{fill:none;stroke:#246EB9;stroke-miterlimit:10;}
	.st13{fill:#246EB9;stroke:#246EB9;stroke-miterlimit:10;}
	.st14{font-family:'Otari-HeavyItalic';}
	.st15{font-size:54px;}
</style>
<rect y="849.7" class="st0" width="1808" height="227.4"/>
<rect x="158.6" y="392.3" class="st1" width="675" height="400"/>
<rect x="990.1" y="394.7" class="st1" width="675" height="400"/>
<polyline class="st2" points="-199.7,1139.7 540.6,1139.7 540.6,1944.5 -199.7,1944.5 "/>
<rect x="399.1" y="152.1" class="st2" width="965.2" height="241.1"/>
<text transform="matrix(1 0 0 1 422.8673 182.4909)"><tspan x="0" y="0" class="st3 st4 st5">Americans display strong racial biases in their </tspan><tspan x="225.2" y="48" class="st3 st4 st5">online dating practices.</tspan><tspan x="458.9" y="72" class="st3 st4 st6"> </tspan><tspan x="153.4" y="102" class="st3 st7 st8">- The Daily Show, NPR, Buzzfeed, and lots of sociologists</tspan></text>
<rect x="142" y="891.5" class="st2" width="1086.6" height="137.6"/>
<text transform="matrix(1 0 0 1 142.0001 921.8826)"><tspan x="0" y="0" class="st9 st10 st5">Much of OkCupid’s matching happens behind the scenes, </tspan><tspan x="0" y="48" class="st9 st10 st5">giving users few opportunities to gain awareness of, or </tspan><tspan x="0" y="96" class="st9 st10 st5">challenge their own assumptions and implicit biases.</tspan></text>
<rect x="156.7" y="348.6" class="st2" width="1221" height="51.9"/>
<text transform="matrix(1 0 0 1 156.7336 367.6223)" class="st11 st10 st8">Christian Rudder, founder of OkCupid, has examined the data:</text>
<g>
	<g>
		<path class="st9" d="M1362.2,1196.9c-1.9,0-3.8-0.6-5.3-1.7c-0.5,0.4-1.1,0.7-1.7,0.9c-1.7,0.5-3.3,0.7-5.1,0.7
			c-1.1,0-2.1-0.1-3.2-0.2c-1.6-0.2-3-1.2-3.9-2.7c-0.9-1.6-1.2-3.4-1-5.3l3.5-21.5c-0.7-1.4-1.6-3.9-1.7-6.9
			c-0.1-2.7,1.2-5.1,3.1-6.2c1.9-1.1,5.1-2.4,7.6-2.4c3,0,5.6,1.3,7.3,3.9c1.5,2.2,2.1,5.1,1.8,8.2c4.6,1.7,7.6,6.6,7.6,12.8
			c0,1.2-0.1,2.2-0.3,3.3l-0.2,1.1c1.3,2,1.9,4.3,2.1,6.1c0.2,2-0.4,4.1-1.7,5.6C1370.9,1193.2,1367.4,1196.9,1362.2,1196.9z"/>
		<path class="st9" d="M1377.8,1196.9c-7.6,0-13.3-6.3-13.3-15c0-1.2,0.1-2.4,0.3-3.4c1.6-9.2,8.1-15.6,16.1-15.6
			c7.5,0,13,6.7,13,15.6c0,1.2-0.2,2.2-0.2,3c0,0.1,0,0.2,0,0.2C1392.3,1190.6,1385.9,1196.9,1377.8,1196.9z"/>
		<path class="st9" d="M1404.9,1196.9c-1.1,0-1.9-0.3-2.8-0.9c-0.3,0.2-0.6,0.3-1,0.3c-2.3,0.5-4.6,0.5-6.1,0.5
			c-2.7,0-5-2.3-5.6-5.5l-1.7-10.3c-0.4-0.3-0.9-0.8-1.2-1.3c-0.4-0.5-2.3-3.7-2.5-8.1c-0.1-2.7,1.1-5.1,3-6.3
			c0.7-0.4,4.2-2.5,7.2-2.5c3.2,0,5.3,1.2,6.7,3.2c0.4-0.2,2.2-0.7,4.4-0.7c0.2,0,0.4,0,0.6,0c0.1,0,0.2,0,0.3,0
			c0.4,0.1,1.2,0.2,1.6,0.2c0.5-0.7,1.2-1.2,1.9-1.6c0.5-0.3,2-1.1,6.2-1.1c2.5,0,4.6,1.9,5.3,4.7c0.3,1.3,0.5,2.7,0.5,4.1
			c0,2.9-0.7,5.9-1.9,8.4l-6,12.8c-0.8,1.6-1.9,2.7-3.4,3.2C1408.5,1196.8,1405.5,1196.9,1404.9,1196.9z"/>
		<path class="st9" d="M1448.5,1196.9c-1.7,0-3.2-0.5-4.6-1.3c-0.3,0.2-0.7,0.3-1.1,0.4c-1.7,0.5-3.1,0.7-4.5,0.7
			c-1,0-2-0.2-3.2-0.3c-0.3-0.1-0.6-0.2-0.9-0.3c-1.7,0.5-3.2,0.7-4.8,0.7c-1.2,0-2.3-0.2-3.1-0.3c-1.6-0.2-3-1.2-3.9-2.7
			c-0.9-1.6-1.2-3.4-1-5.3l1.6-10.2c-0.6-1.3-1.6-3.7-1.7-6.5c-0.2-2.7,1.1-5.3,3-6.5c1.2-0.7,4.2-2.4,7.2-2.4
			c1.3,0,2.6,0.3,3.7,0.9c1.2-0.6,2.6-0.9,4-0.9c1.6,0,3.1,0.3,4.4,1c1.9-0.9,3.4-1,4.3-1c6.2,0,10.3,4.6,10.3,11.8
			c0,1.3-0.2,2.7-0.3,4l-0.3,2.3c1.6,2.4,2,4.8,2.1,5.6c0.3,2.2-0.3,4.4-1.6,5.8C1457.4,1193.2,1453.9,1196.9,1448.5,1196.9z"/>
		<path class="st9" d="M1463.6,1196.9c-0.2,0-0.3,0-0.5,0h-0.1c-5.8,0-12-5.1-12-14.5c0-13.5,9.3-19.5,15.9-19.5
			c1.1,0,2.2,0.2,3.2,0.6c1.1-0.3,2.2-0.4,3.5-0.4c1.7,0,3.2,0.3,3.4,0.3c1.6,0.3,2.9,1.3,3.7,2.9c0.9,1.6,1.2,3.4,0.9,5.3
			c-0.5,2.9-1.1,6.7-1.6,9.6c1.7,2.5,2,4.9,2.1,5.8c0.2,2-0.3,4.1-1.6,5.6c-0.6,0.8-4.1,4.7-9.5,4.7l-0.1-3.4l-0.1,0.1v3.3
			c-1.5,0-2.7-0.3-3.7-0.7C1466.1,1196.7,1464.9,1196.9,1463.6,1196.9z"/>
		<path class="st9" d="M1492.9,1196.9c-1.7,0-3.3-0.5-4.6-1.4c-0.3,0.2-0.7,0.3-1.1,0.5c-1.7,0.5-3.4,0.8-5.1,0.8
			c-1.2,0-2.3-0.2-3.2-0.3c-1.6-0.2-3-1.2-3.9-2.7c-0.9-1.6-1.2-3.4-1-5.3l1.6-10.1c-0.6-1.3-1.6-3.7-1.7-6.6c-0.2-2.7,1-5.2,3-6.4
			c1.7-1.1,4.4-2.5,7.4-2.5c1.3,0,2.6,0.3,3.7,0.9c1.2-0.6,2.7-0.8,4.1-0.8c6.5,0,10.7,5,10.7,12.6c0,1.5-0.1,2.7-0.3,3.9l-0.2,1.5
			c1.7,2.5,2.1,4.8,2.2,5.6c0.3,2.2-0.4,4.6-1.8,6.1C1501.7,1193.3,1498.1,1196.9,1492.9,1196.9z"/>
		<path class="st9" d="M1500.9,1207.9c-0.9,0-1.8-0.3-2.7-0.8c-4.3-2.8-5.4-8-5.6-9c-0.4-2.5,0.3-5.1,2-6.7c0.8-0.8,1.6-1.4,2.2-2
			c1.2-1.1,1.9-1.8,2.7-2.7l-1.1-5.8c-0.3-0.3-0.6-0.7-0.9-1.1c-0.4-0.6-2.3-3.7-2.5-8.1c-0.1-2.7,1.1-5.1,3-6.3
			c1.9-1.2,5.2-2.5,7.6-2.5c1.8,0,3.5,0.6,4.8,1.6c0.2-0.2,0.5-0.3,0.8-0.4c0.6-0.3,2.2-1.1,7.2-1.1c2.7,0,5.1,2.4,5.6,5.7
			c0.1,0.8,0.2,1.7,0.2,3c0,3.2-0.8,6.5-2.1,9c0,0-6.2,12.1-6.2,12.2c-2.5,4.5-6.2,9-11.7,13.9
			C1503.2,1207.4,1502,1207.9,1500.9,1207.9z"/>
		<path class="st9" d="M1529.8,1207.9c-1.2,0-2.5-0.5-3.6-1.6c-3.3-3.3-4.4-6.5-4.7-7.5c-0.6-1.9-0.3-4.1,0.6-5.9
			c0.5-0.9,1.1-3.1,1.2-4.2l1.5-8.9c-0.2-0.2-0.2-0.3-0.3-0.5c-1.1-1.6-1.6-3.6-1.2-5.6c0.1-0.6,0.6-3.7,2.2-7.2
			c0.5-1.1,1.2-1.9,2-2.6c1.6-7.8,6.8-12.7,13.5-12.7c3.4,0,5.7,1.1,7.1,2h0.1c4.9,0,8.9,4.6,8.9,10.3c0,2.2-0.6,4.2-1.6,5.8
			c0.2,0.9,0.2,1.9,0.2,3.2c0,1.2-0.1,2.2-0.3,3.2l-0.9,5c1.6,2.3,1.9,4.6,2.1,5.3c0.3,2.2-0.3,4.6-1.7,6.1
			c-0.6,0.8-4.2,4.5-9.3,4.5c-2.2,0-4.1-0.7-5.8-2c-1,4.2-2.7,8.6-7.2,12C1531.9,1207.6,1530.9,1207.9,1529.8,1207.9z"/>
		<path class="st9" d="M1559.4,1196.9c-7.3,0-11.7-6.1-12.1-11.7c-0.2-2.4,0.8-4.7,2.3-6.1c-0.3-1.6-0.2-3.2,0.1-4.9
			c1.1-6.7,6.6-11.4,13.3-11.4c6.8,0,10.5,4.8,11.4,9c0.5,2.1,0.2,4.4-0.9,6.1c-0.1,0.2-0.3,0.4-0.5,0.6c0.4,1.5,0.6,3.2,0.5,5.2
			C1573.1,1190.3,1568.2,1196.9,1559.4,1196.9z"/>
		<path class="st9" d="M1585.1,1196.9c-1.9,0-3.8-0.6-5.3-1.7c-0.5,0.4-1.1,0.7-1.7,0.9c-1.7,0.5-3.3,0.7-5.1,0.7
			c-1.1,0-2.1-0.1-3.2-0.2c-1.6-0.2-3-1.2-3.9-2.7c-0.9-1.6-1.2-3.4-1-5.3l3.5-21.5c-0.7-1.4-1.6-3.9-1.7-6.9
			c-0.1-2.7,1.2-5.1,3.1-6.2c1.9-1.1,5.1-2.4,7.6-2.4c3,0,5.6,1.3,7.3,3.9c1.5,2.2,2.1,5.1,1.8,8.2c4.6,1.7,7.6,6.6,7.6,12.8
			c0,1.1-0.1,2.2-0.3,3.3l-0.2,1.2c1.3,2,1.9,4.3,2.1,6.1c0.2,2-0.4,4.1-1.7,5.6C1593.7,1193.2,1590.3,1196.9,1585.1,1196.9z"/>
		<path class="st9" d="M1597.1,1197c-4.7,0-8.5-4.4-8.5-9.7c0-1.7,0.3-3.2,1-4.6c-0.2-0.9-0.3-1.7-0.2-2.7c0.3-3.4,1.2-6.1,2.2-8.1
			c-1.2-1.1-2.7-2.7-3.4-4.7c-1-2.5-0.7-5.4,0.9-7.5l0.1-0.1c1.2-1.7,4.9-6.9,12.2-6.9c7.2,0,12.5,5.6,12.5,13.4
			c0,0.9-0.1,1.8-0.2,2.8c0,0.1,0,0.2-0.1,0.3c-1.1,5.3-3.8,8.1-5.6,10c-1.7,1.7-2,2.1-2.2,3.7c-0.1,0.6-0.2,1.2-0.3,1.8
			c0.2,0.9,0.3,1.7,0.3,2.5C1605.7,1192.6,1601.8,1197,1597.1,1197z"/>
	</g>
	<g>
		<path class="st3" d="M1359.7,1177.9c0.3-2.1-0.3-3.5-1.6-3.5c-0.3,0-0.9,0.1-1.7,0.8l-2.3,14.2c-1.4,0.4-2.6,0.5-3.8,0.5
			c-0.8,0-1.6-0.1-2.5-0.2l4.1-25.1c0.2-1.2-1.1-0.6-1.1-0.6s-1.1-1.7-1.1-4c1.6-1,3.9-1.7,5.1-1.7c2.5,0,4.1,1.6,3.5,4.9l-1.2,7.6
			c0.6-0.6,1.8-1.1,3.2-1.1c3.7,0,5.7,2.9,5.7,6.7c0,0.6-0.1,1.2-0.2,1.9l-0.8,4.9c-0.3,1.7,0.8,0.9,0.8,0.9
			c1.6,1.6,1.8,3.5,1.8,3.5s-2.2,2.7-5.3,2.7c-3.2,0-4.2-2.9-3.7-5.5L1359.7,1177.9z"/>
		<path class="st3" d="M1377.8,1190.1c-4.8,0-7.6-3.7-7.6-8.2c0-0.6,0.1-1.3,0.2-2c1.1-6.8,5.9-10.3,10.6-10.3s7.4,4,7.4,8.8
			c0,0.6-0.1,1.3-0.2,1.9C1387.2,1187,1382.3,1190.1,1377.8,1190.1z M1381.8,1180.1c0.2-0.6,0.2-1.5,0.2-2.5c0-1.6-0.3-3.1-1.8-3.1
			c-1.8,0-3,2.6-3.6,5.6c-0.2,0.6-0.2,1.4-0.2,2.2c0,1.6,0.4,3.1,1.9,3.1C1380,1185.4,1381.5,1182.5,1381.8,1180.1z"/>
		<path class="st3" d="M1404.3,1183.9c-0.2-1.9-0.3-4.4-0.3-4.4s-0.9,3-1.6,4.5l-2.4,5.6c-1.7,0.4-3.6,0.4-4.9,0.4l-2.2-13.9
			c-0.2-1.4-1.7-0.8-1.7-0.8s-1.1-1.7-1.2-4c1.7-1.1,3.7-1.7,4.6-1.7c1.9,0,3.2,0.9,3.4,2.9l0.7,5.6c0.3,2.2,0.3,5.3,0.3,5.3
			s0.8-2.7,1.6-4.9l2.2-6c0,0,1.6-0.5,3.4-0.4c0.4,0.1,1.4,0.2,1.4,0.2l0.4,6.3c0.2,1.9,0.1,4.8,0.1,4.8s0.7-2.5,1.8-4.8l1.7-3.7
			c0.9-1.9,0.9-4.8,0.9-4.8c1-0.5,4-0.5,4-0.5c0.2,0.6,0.2,1.2,0.2,1.9c0,1.6-0.4,3.5-1.1,5.1l-6,12.8c-1.7,0.6-4.4,0.6-4.4,0.6
			L1404.3,1183.9z"/>
		<path class="st3" d="M1446.5,1177.6c0.2-1,0.3-2.7-0.9-2.7c-1,0-1.7,0.6-1.7,0.6l-2.3,13.8c-1.2,0.3-2.2,0.5-3.3,0.5
			c-0.7,0-1.4-0.1-2.3-0.3l2-12.6c0.2-1.2-0.2-2.1-1-2.1c-1,0-1.7,0.6-1.7,0.6l-2.3,13.9c-1.3,0.4-2.5,0.5-3.7,0.5
			c-0.8,0-1.6-0.1-2.4-0.2l2.2-13.9c0.2-1.2-1.1-0.6-1.1-0.6s-1.1-1.7-1.2-4c1.5-0.9,3.3-1.6,4.6-1.6c1.1,0,2.7,0.4,3.3,2.1
			c1.6-1.6,3.1-2.1,4.5-2.1c1.8,0,2.9,0.5,3.9,2.3c1.9-1.9,3.8-2.3,4.7-2.3c3.5,0,4.6,2.1,4.6,5.1c0,0.9-0.1,1.7-0.2,2.7l-1.1,6.2
			c-0.2,1.6,1,0.9,1,0.9c1.6,1.6,1.7,3.2,1.7,3.2s-2.2,2.7-5.6,2.7c-2.5,0-3.4-1.9-3.4-4.1c0-0.4,0.1-0.9,0.2-1.3L1446.5,1177.6z"/>
		<path class="st3" d="M1470.9,1170.1c0.9-0.3,1.9-0.4,2.8-0.4c1.4,0,2.5,0.2,2.5,0.2s-2,11.9-2.3,13.5s1.1,0.8,1.1,0.8
			c1.6,1.6,1.7,3.2,1.7,3.2s-2.1,2.7-5.4,2.7c-0.8,0-2.7,0.1-3.5-1.9c-1.9,2.2-3.8,1.9-4.6,1.9c-2.7,0-6.4-2.1-6.4-7.8
			c0-9.3,6.5-12.8,10.3-12.8c1.7,0,2.6,0.6,3.3,1.6L1470.9,1170.1z M1469,1175.3c0,0-0.8-1.1-1.9-1.1c-2.2,0-4.1,3.7-4.1,8.1
			c0,2,0.8,3,2.2,3c0.7,0,1.6-0.3,2.3-0.8L1469,1175.3z"/>
		<path class="st3" d="M1490.6,1178c0-0.1,0.2-0.6,0.2-1.2c0-0.9-0.2-1.9-1.3-1.9c-0.7,0-1.4,0.6-1.4,0.6l-2.3,13.9
			c-1.3,0.4-2.5,0.6-3.7,0.6c-0.9,0-1.6-0.1-2.6-0.2l2.2-13.9c0.2-1.2-1.1-0.6-1.1-0.6s-1.1-1.7-1.2-4c1.2-0.9,3.1-1.7,4.7-1.7
			c1.3,0,2.5,0.6,3.2,2.2c1.4-1.6,3-2.1,4.6-2.1c3.6,0,5.1,2.3,5.1,5.8c0,0.9-0.1,1.7-0.2,2.6l-0.9,5.4c-0.2,1.6,1.1,0.9,1.1,0.9
			c1.6,1.6,1.7,3.2,1.7,3.2s-2.5,2.7-5.8,2.7c-2.5,0-3.4-2-3.4-4.2c0-0.4,0.1-0.9,0.2-1.2L1490.6,1178z"/>
		<path class="st3" d="M1503.3,1176.2c-0.3-1.2-1.5-0.8-1.5-0.8s-1.1-1.7-1.2-4c1.7-1.1,3.9-1.7,5.1-1.7c1.7,0,2.8,0.9,3,2.9
			l0.8,6.1c0.2,1.8,0.2,4.1,0.2,4.1s1-2.9,1.5-3.9l1.7-3.8c0.5-1.1,0.6-2.5,0.6-3.4c0-0.9-0.1-1.4-0.1-1.4c1.1-0.6,4.9-0.6,4.9-0.6
			c0.1,0.6,0.2,1.2,0.2,1.9c0,1.8-0.4,3.8-1.2,5.4l-6.2,12.1c-2.2,4.1-5.9,8.2-10.3,12.1c-2.2-1.4-2.7-4.4-2.7-4.4
			c3.5-3.4,5.1-4.4,7.5-8.2L1503.3,1176.2z"/>
		<path class="st3" d="M1531.3,1175h-2.6c0,0,0.3-2.3,1.6-5.1h1.9l0.6-3.9c1-5.8,4.8-7.9,8.1-7.9c3.4,0,4.6,1.4,4.6,1.4
			s-1.2,2.7-3.2,4.4c0,0-0.4-0.3-1.2-0.3c-0.7,0-1.6,0.3-2,2.5l-0.6,3.8h11.4c0,0,0.3,1.3,0.3,2.8c0,0.5-0.1,1.2-0.2,1.7l-1.6,9
			c-0.3,1.8,1,0.9,1,0.9c1.5,1.5,1.7,3.2,1.7,3.2s-2.3,2.7-5.4,2.7c-3.2,0-4.1-2.8-3.7-5.5l1.6-9.6h-5.8l-2.5,15.5
			c-0.9,4.9-1.8,8-5.2,10.5c-2.4-2.3-3-4.4-3-4.4c1.1-2.2,1.8-5.6,1.9-6.5L1531.3,1175z M1548.2,1167.1c-1.8,0-3.2-1.4-3.2-3.4
			c0-1.9,1.4-3.4,3.2-3.4s3.3,1.6,3.3,3.4C1551.4,1165.7,1549.9,1167.1,1548.2,1167.1z"/>
		<path class="st3" d="M1558.6,1181.7c-2.6-1.1-3.9-3.2-3.3-6c0.5-3,3.2-6.1,7.8-6.1c4.5,0,5.8,3.1,6.1,4.1c0,0-1.1,1.7-4.2,2.3
			c0,0-0.9-1.7-2-1.7c-0.6,0-1.1,0.2-1.2,0.9c-0.2,0.7,0.2,1.2,0.9,1.5l1.7,0.7c2.9,1.2,4.1,3,3.9,5.8c-0.2,2.7-2.5,7-8.6,7
			c-4.6,0-6.3-3.6-6.5-5.4c2-1.2,4.1-1.7,4.1-1.7s0.6,2.5,2.7,2.5c1.2,0,1.6-0.9,1.7-1.4c0.2-0.6-0.2-1.1-1.2-1.6L1558.6,1181.7z"/>
		<path class="st3" d="M1582.6,1177.9c0.3-2.1-0.3-3.5-1.6-3.5c-0.3,0-0.9,0.1-1.7,0.8l-2.3,14.2c-1.4,0.4-2.6,0.5-3.8,0.5
			c-0.8,0-1.6-0.1-2.5-0.2l4.1-25.1c0.2-1.2-1.1-0.6-1.1-0.6s-1.1-1.7-1.1-4c1.6-1,3.9-1.7,5.1-1.7c2.5,0,4.1,1.6,3.5,4.9l-1.2,7.6
			c0.6-0.6,1.8-1.1,3.2-1.1c3.7,0,5.7,2.9,5.7,6.7c0,0.6-0.1,1.2-0.2,1.9l-0.8,4.9c-0.3,1.7,0.9,0.9,0.9,0.9
			c1.6,1.6,1.8,3.5,1.8,3.5s-2.2,2.7-5.3,2.7c-3.2,0-4.2-2.9-3.7-5.5L1582.6,1177.9z"/>
		<path class="st3" d="M1595,1180.7c0.9-8.7,5.8-9.1,6.6-13.1c0.2-1.3-0.1-3-1.6-3c-1.7,0-3.7,2.8-3.7,2.8s-2.5-1.6-3.3-3.4
			c0.9-1.3,3.2-4.6,8.1-4.6c3.9,0,6.9,2.6,6.9,6.6c0,0.5-0.1,1-0.2,1.6c-1.3,6.7-7.2,6.5-7.9,14.6
			C1596.2,1182.4,1595,1180.7,1595,1180.7z M1597.1,1190.2c-1.6,0-2.9-1.3-2.9-3s1.3-3.1,2.9-3.1c1.6,0,2.9,1.4,2.9,3.1
			S1598.7,1190.2,1597.1,1190.2z"/>
	</g>
	<g>
		<path class="st12" d="M1359.7,1177.9c0.3-2.1-0.3-3.5-1.6-3.5c-0.3,0-0.9,0.1-1.7,0.8l-2.3,14.2c-1.4,0.4-2.6,0.5-3.8,0.5
			c-0.8,0-1.6-0.1-2.5-0.2l4.1-25.1c0.2-1.2-1.1-0.6-1.1-0.6s-1.1-1.7-1.1-4c1.6-1,3.9-1.7,5.1-1.7c2.5,0,4.1,1.6,3.5,4.9l-1.2,7.6
			c0.6-0.6,1.8-1.1,3.2-1.1c3.7,0,5.7,2.9,5.7,6.7c0,0.6-0.1,1.2-0.2,1.9l-0.8,4.9c-0.3,1.7,0.8,0.9,0.8,0.9
			c1.6,1.6,1.8,3.5,1.8,3.5s-2.2,2.7-5.3,2.7c-3.2,0-4.2-2.9-3.7-5.5L1359.7,1177.9z"/>
		<path class="st12" d="M1377.8,1190.1c-4.8,0-7.6-3.7-7.6-8.2c0-0.6,0.1-1.3,0.2-2c1.1-6.8,5.9-10.3,10.6-10.3s7.4,4,7.4,8.8
			c0,0.6-0.1,1.3-0.2,1.9C1387.2,1187,1382.3,1190.1,1377.8,1190.1z M1381.8,1180.1c0.2-0.6,0.2-1.5,0.2-2.5c0-1.6-0.3-3.1-1.8-3.1
			c-1.8,0-3,2.6-3.6,5.6c-0.2,0.6-0.2,1.4-0.2,2.2c0,1.6,0.4,3.1,1.9,3.1C1380,1185.4,1381.5,1182.5,1381.8,1180.1z"/>
		<path class="st12" d="M1404.3,1183.9c-0.2-1.9-0.3-4.4-0.3-4.4s-0.9,3-1.6,4.5l-2.4,5.6c-1.7,0.4-3.6,0.4-4.9,0.4l-2.2-13.9
			c-0.2-1.4-1.7-0.8-1.7-0.8s-1.1-1.7-1.2-4c1.7-1.1,3.7-1.7,4.6-1.7c1.9,0,3.2,0.9,3.4,2.9l0.7,5.6c0.3,2.2,0.3,5.3,0.3,5.3
			s0.8-2.7,1.6-4.9l2.2-6c0,0,1.6-0.5,3.4-0.4c0.4,0.1,1.4,0.2,1.4,0.2l0.4,6.3c0.2,1.9,0.1,4.8,0.1,4.8s0.7-2.5,1.8-4.8l1.7-3.7
			c0.9-1.9,0.9-4.8,0.9-4.8c1-0.5,4-0.5,4-0.5c0.2,0.6,0.2,1.2,0.2,1.9c0,1.6-0.4,3.5-1.1,5.1l-6,12.8c-1.7,0.6-4.4,0.6-4.4,0.6
			L1404.3,1183.9z"/>
		<path class="st12" d="M1446.5,1177.6c0.2-1,0.3-2.7-0.9-2.7c-1,0-1.7,0.6-1.7,0.6l-2.3,13.8c-1.2,0.3-2.2,0.5-3.3,0.5
			c-0.7,0-1.4-0.1-2.3-0.3l2-12.6c0.2-1.2-0.2-2.1-1-2.1c-1,0-1.7,0.6-1.7,0.6l-2.3,13.9c-1.3,0.4-2.5,0.5-3.7,0.5
			c-0.8,0-1.6-0.1-2.4-0.2l2.2-13.9c0.2-1.2-1.1-0.6-1.1-0.6s-1.1-1.7-1.2-4c1.5-0.9,3.3-1.6,4.6-1.6c1.1,0,2.7,0.4,3.3,2.1
			c1.6-1.6,3.1-2.1,4.5-2.1c1.8,0,2.9,0.5,3.9,2.3c1.9-1.9,3.8-2.3,4.7-2.3c3.5,0,4.6,2.1,4.6,5.1c0,0.9-0.1,1.7-0.2,2.7l-1.1,6.2
			c-0.2,1.6,1,0.9,1,0.9c1.6,1.6,1.7,3.2,1.7,3.2s-2.2,2.7-5.6,2.7c-2.5,0-3.4-1.9-3.4-4.1c0-0.4,0.1-0.9,0.2-1.3L1446.5,1177.6z"/>
		<path class="st12" d="M1470.9,1170.1c0.9-0.3,1.9-0.4,2.8-0.4c1.4,0,2.5,0.2,2.5,0.2s-2,11.9-2.3,13.5s1.1,0.8,1.1,0.8
			c1.6,1.6,1.7,3.2,1.7,3.2s-2.1,2.7-5.4,2.7c-0.8,0-2.7,0.1-3.5-1.9c-1.9,2.2-3.8,1.9-4.6,1.9c-2.7,0-6.4-2.1-6.4-7.8
			c0-9.3,6.5-12.8,10.3-12.8c1.7,0,2.6,0.6,3.3,1.6L1470.9,1170.1z M1469,1175.3c0,0-0.8-1.1-1.9-1.1c-2.2,0-4.1,3.7-4.1,8.1
			c0,2,0.8,3,2.2,3c0.7,0,1.6-0.3,2.3-0.8L1469,1175.3z"/>
		<path class="st12" d="M1490.6,1178c0-0.1,0.2-0.6,0.2-1.2c0-0.9-0.2-1.9-1.3-1.9c-0.7,0-1.4,0.6-1.4,0.6l-2.3,13.9
			c-1.3,0.4-2.5,0.6-3.7,0.6c-0.9,0-1.6-0.1-2.6-0.2l2.2-13.9c0.2-1.2-1.1-0.6-1.1-0.6s-1.1-1.7-1.2-4c1.2-0.9,3.1-1.7,4.7-1.7
			c1.3,0,2.5,0.6,3.2,2.2c1.4-1.6,3-2.1,4.6-2.1c3.6,0,5.1,2.3,5.1,5.8c0,0.9-0.1,1.7-0.2,2.6l-0.9,5.4c-0.2,1.6,1.1,0.9,1.1,0.9
			c1.6,1.6,1.7,3.2,1.7,3.2s-2.5,2.7-5.8,2.7c-2.5,0-3.4-2-3.4-4.2c0-0.4,0.1-0.9,0.2-1.2L1490.6,1178z"/>
		<path class="st12" d="M1503.3,1176.2c-0.3-1.2-1.5-0.8-1.5-0.8s-1.1-1.7-1.2-4c1.7-1.1,3.9-1.7,5.1-1.7c1.7,0,2.8,0.9,3,2.9
			l0.8,6.1c0.2,1.8,0.2,4.1,0.2,4.1s1-2.9,1.5-3.9l1.7-3.8c0.5-1.1,0.6-2.5,0.6-3.4c0-0.9-0.1-1.4-0.1-1.4c1.1-0.6,4.9-0.6,4.9-0.6
			c0.1,0.6,0.2,1.2,0.2,1.9c0,1.8-0.4,3.8-1.2,5.4l-10.7,17.1c-2.2,4.1-1.4,3.2-5.8,7.1c-2.2-1.4-2.7-4.4-2.7-4.4
			c3.5-3.4,5.1-4.4,7.5-8.2L1503.3,1176.2z"/>
		<path class="st12" d="M1531.3,1175h-2.6c0,0,0.3-2.3,1.6-5.1h1.9l0.6-3.9c1-5.8,4.8-7.9,8.1-7.9c3.4,0,4.6,1.4,4.6,1.4
			s-1.2,2.7-3.2,4.4c0,0-0.4-0.3-1.2-0.3c-0.7,0-1.6,0.3-2,2.5l-0.6,3.8h11.4c0,0,0.3,1.3,0.3,2.8c0,0.5-0.1,1.2-0.2,1.7l-1.6,9
			c-0.3,1.8,1,0.9,1,0.9c1.5,1.5,1.7,3.2,1.7,3.2s-2.3,2.7-5.4,2.7c-3.2,0-4.1-2.8-3.7-5.5l1.6-9.6h-5.8l-2.5,15.5
			c-0.9,4.9-1.8,8-5.2,10.5c-2.4-2.3-3-4.4-3-4.4c1.1-2.2,1.8-5.6,1.9-6.5L1531.3,1175z M1548.2,1167.1c-1.8,0-3.2-1.4-3.2-3.4
			c0-1.9,1.4-3.4,3.2-3.4s3.3,1.6,3.3,3.4C1551.4,1165.7,1549.9,1167.1,1548.2,1167.1z"/>
		<path class="st12" d="M1558.6,1181.7c-2.6-1.1-3.9-3.2-3.3-6c0.5-3,3.2-6.1,7.8-6.1c4.5,0,5.8,3.1,6.1,4.1c0,0-1.1,1.7-4.2,2.3
			c0,0-0.9-1.7-2-1.7c-0.6,0-1.1,0.2-1.2,0.9c-0.2,0.7,0.2,1.2,0.9,1.5l1.7,0.7c2.9,1.2,4.1,3,3.9,5.8c-0.2,2.7-2.5,7-8.6,7
			c-4.6,0-6.3-3.6-6.5-5.4c2-1.2,4.1-1.7,4.1-1.7s0.6,2.5,2.7,2.5c1.2,0,1.6-0.9,1.7-1.4c0.2-0.6-0.2-1.1-1.2-1.6L1558.6,1181.7z"/>
		<path class="st12" d="M1582.6,1177.9c0.3-2.1-0.3-3.5-1.6-3.5c-0.3,0-0.9,0.1-1.7,0.8l-2.3,14.2c-1.4,0.4-2.6,0.5-3.8,0.5
			c-0.8,0-1.6-0.1-2.5-0.2l4.1-25.1c0.2-1.2-1.1-0.6-1.1-0.6s-1.1-1.7-1.1-4c1.6-1,3.9-1.7,5.1-1.7c2.5,0,4.1,1.6,3.5,4.9l-1.2,7.6
			c0.6-0.6,1.8-1.1,3.2-1.1c3.7,0,5.7,2.9,5.7,6.7c0,0.6-0.1,1.2-0.2,1.9l-0.8,4.9c-0.3,1.7,0.9,0.9,0.9,0.9
			c1.6,1.6,1.8,3.5,1.8,3.5s-2.2,2.7-5.3,2.7c-3.2,0-4.2-2.9-3.7-5.5L1582.6,1177.9z"/>
		<path class="st12" d="M1595,1180.7c0.9-8.7,5.8-9.1,6.6-13.1c0.2-1.3-0.1-3-1.6-3c-1.7,0-3.7,2.8-3.7,2.8s-2.5-1.6-3.3-3.4
			c0.9-1.3,3.2-4.6,8.1-4.6c3.9,0,6.9,2.6,6.9,6.6c0,0.5-0.1,1-0.2,1.6c-1.3,6.7-7.2,6.5-7.9,14.6
			C1596.2,1182.4,1595,1180.7,1595,1180.7z M1597.1,1190.2c-1.6,0-2.9-1.3-2.9-3s1.3-3.1,2.9-3.1c1.6,0,2.9,1.4,2.9,3.1
			S1598.7,1190.2,1597.1,1190.2z"/>
	</g>
</g>
<path class="st2" d="M1645.3,1015.4h-349.1c-6.5,0-11.7-5.3-11.7-11.7v-95.4c0-6.5,5.3-11.7,11.7-11.7h349.1
	c6.5,0,11.7,5.3,11.7,11.7v95.4C1657,1010.1,1651.7,1015.4,1645.3,1015.4z"/>
<text transform="matrix(1 0 0 1 1288.3372 926.9544)"><tspan x="0" y="0" class="st13 st10 st5">     </tspan><tspan x="52" y="0" class="st13 st14 st5">Start Exploring</tspan></text>
<g>
	<rect x="142" y="49.7" class="st2" width="1620.5" height="157.3"/>
	<text transform="matrix(1 0 0 1.2 141.9997 97.3699)" class="st0 st14 st15">Many pervasive biases may be reinforced by hidden algorithms</text>
</g>
</svg>
