<?xml version="1.0" encoding="utf-8"?>
<!-- Generator: Adobe Illustrator 19.1.0, SVG Export Plug-In . SVG Version: 6.00 Build 0)  -->
<svg version="1.1" id="Layer_1" xmlns="http://www.w3.org/2000/svg" xmlns:xlink="http://www.w3.org/1999/xlink" x="0px" y="0px"
	 viewBox="0 0 215 45" style="enable-background:new 0 0 215 45;" xml:space="preserve">
<style type="text/css">
	.st0{fill:#3366CC;stroke:#246EB9;stroke-miterlimit:10;}
	.st1{fill:#FFFFFF;}
</style>
<rect x="-30.8" y="101.4" class="st0" width="270" height="65"/>
<g>
	<path class="st1" d="M13.3,23.1c-1.9-0.8-2.8-2.2-2.4-4.1c0.4-2.1,2.3-4.2,5.7-4.2c3.3,0,4.3,2.2,4.5,2.9c0,0-0.8,1.2-3.1,1.6
		c0,0-0.6-1.2-1.5-1.2c-0.4,0-0.8,0.1-0.9,0.6c-0.1,0.5,0.1,0.8,0.6,1l1.3,0.5c2.1,0.8,3,2.1,2.9,4C20.1,26,18.4,29,13.9,29
		c-3.4,0-4.6-2.5-4.7-3.8c1.5-0.9,3-1.2,3-1.2s0.5,1.7,2,1.7c0.9,0,1.2-0.6,1.3-1c0.1-0.5-0.1-0.8-0.9-1.1L13.3,23.1z"/>
	<path class="st1" d="M24.5,18.6h-1.8c0,0,0.2-1.6,1.2-3.5h1.3c0.3-1.8,0.2-3.4,0.2-3.4c2.1-0.9,4.4-1,4.4-1
		c0.1,0.6,0.2,1.1,0.2,1.7c0,0.9-0.1,1.8-0.3,2.7h3.7c0,0-0.2,1.6-1.2,3.5H29l-1,4.9C28,23.9,28,24.2,28,24.4c0,0.8,0.4,1,0.7,1
		c0.9,0,2.3-0.8,2.3-0.8c0.7,1.3,0.7,2.5,0.7,2.5S29.4,29,26.9,29c-2.3,0-4-1.4-3.5-4L24.5,18.6z"/>
	<path class="st1" d="M44.7,15.2c0.7-0.2,1.4-0.3,2.1-0.3c1,0,1.8,0.2,1.8,0.2s-1.5,8.2-1.7,9.4c-0.2,1.2,0.8,0.5,0.8,0.5
		c1.1,1,1.2,2.2,1.2,2.2s-1.6,1.8-4,1.8c-0.6,0-2,0-2.6-1.3C40.9,29.2,39.6,29,39,29c-2,0-4.7-1.4-4.7-5.4c0-6.4,4.8-8.8,7.6-8.8
		c1.2,0,1.9,0.5,2.4,1.1L44.7,15.2z M43.4,18.7c0,0-0.6-0.8-1.4-0.8c-1.6,0-3,2.5-3,5.6c0,1.4,0.6,2.1,1.7,2.1
		c0.5,0,1.2-0.2,1.7-0.5L43.4,18.7z"/>
	<path class="st1" d="M52.7,19.1c0.2-0.8-0.8-0.4-0.8-0.4s-0.8-1.2-0.9-2.8c1-0.6,2.2-1.1,3.6-1.1c1.2,0,1.9,0.7,2.1,1.8
		c0.5-0.9,1.6-1.8,2.9-1.8c1,0,1.6,0.3,2,0.6c0,1.1-0.7,2.6-1.6,3.6c-0.3-0.1-0.6-0.3-1.2-0.3c-0.4,0-1,0.2-1.6,0.5l-1.7,9.3
		c-1,0.3-1.9,0.4-2.8,0.4c-0.6,0-1.1,0-1.8-0.1L52.7,19.1z"/>
	<path class="st1" d="M64,18.6h-1.8c0,0,0.2-1.6,1.2-3.5h1.3c0.3-1.8,0.2-3.4,0.2-3.4c2.1-0.9,4.4-1,4.4-1c0.1,0.6,0.2,1.1,0.2,1.7
		c0,0.9-0.1,1.8-0.3,2.7h3.7c0,0-0.2,1.6-1.2,3.5h-3.1l-1,4.9c-0.1,0.4-0.1,0.7-0.1,0.9c0,0.8,0.4,1,0.7,1c0.9,0,2.3-0.8,2.3-0.8
		c0.7,1.3,0.7,2.5,0.7,2.5S68.9,29,66.4,29c-2.3,0-4-1.4-3.5-4L64,18.6z"/>
	<path class="st1" d="M92.2,25.4c-0.9,1.6-3.1,3.6-6.4,3.6c-3.5,0-5.3-2.6-5.3-5.7c0-0.5,0-0.9,0.1-1.3c0.9-5.1,4.5-7.1,7.3-7.1
		c3.1,0,4.9,2.5,4.9,5.3c0,0.4-0.1,0.8-0.1,1.2c-0.3,1.6-3.1,2.1-5.5,2.1c-0.9,0-1.7-0.1-2.3-0.2c-0.4,2.3,0.8,2.5,1.6,2.5
		c1,0,2.2-0.9,2.5-1.6C91.3,24.2,92.2,25.4,92.2,25.4z M86.9,21.1c0.8,0,1.5-0.1,1.5-0.3c0.1-0.5,0.2-2.7-0.9-2.7
		c-1.2,0-1.7,1.5-2.1,2.9C85.7,21,86.3,21.1,86.9,21.1z"/>
	<path class="st1" d="M100.8,26.4c-0.3-0.5-0.6-1.1-0.6-1.1c-1.7,3.7-5,3.9-5,3.9c0,0-1.2-1.5-1.3-3.3c0,0,3.1-0.8,4.8-4.1l-1.4-2.4
		c-0.5-1-1.4-0.5-1.4-0.5s-0.8-1.2-0.9-2.8c1.3-0.7,2.3-1.2,3.6-1.2c1.5,0,2,0.7,2.5,1.8l0.5,1.1c0.3,0.6,0.5,1.2,0.5,1.2
		c1.8-3.6,4.8-4.1,4.8-4.1s1,1,1.2,3.3c0,0-2.6,0.7-4.5,4l1.2,2.1c0.7,1.1,1.4,0.7,1.4,0.7c1.1,1,1.3,2.3,1.3,2.3
		c0-0.1-1.1,1.8-3.3,1.8c-1.7,0-2.5-1-2.8-1.4L100.8,26.4z"/>
	<path class="st1" d="M119.5,14.8c2.1,0,4.7,1.6,4.6,6c-0.2,6.1-4,8.2-6.7,8.2c-1.2,0-1.9-0.3-2.6-0.8l-0.4,2.2
		c-0.4,2.4-1,4.1-2.7,6.1c-2.3-1.2-3-2.9-3-2.9c0.8-1.4,1-2,1.3-3.6l1.9-11c0.2-0.8-0.8-0.4-0.8-0.4s-0.8-1.2-0.9-2.8
		c0.9-0.6,2.2-1.1,3.4-1.1c1,0,1.9,0.4,2.4,1.5C117.4,15,118.6,14.8,119.5,14.8z M115.4,25c0.3,0.3,0.7,0.5,1.4,0.5
		c1,0,2.3-1.5,2.5-4.4c0.1-1.8-0.3-3-1.3-3c-0.7,0-1.5,0.6-1.5,0.6L115.4,25z"/>
	<path class="st1" d="M128.7,11.3c0.1-0.9-0.8-0.4-0.8-0.4s-0.8-1.2-0.8-2.8c1.2-0.7,2.8-1.2,3.7-1.2c1.8,0,3,1.1,2.6,3.4l-2.5,14.1
		c-0.2,1.1,0.7,0.6,0.7,0.6c1.1,1,1.3,2.2,1.3,2.2s-1.7,1.8-4,1.8c-2.2,0-2.9-2-2.6-3.8L128.7,11.3z"/>
	<path class="st1" d="M140.6,29c-3.6,0-5.6-2.5-5.6-5.7c0-0.5,0-0.9,0.1-1.4c0.8-4.7,4.3-7.1,7.8-7.1c3.5,0,5.4,2.8,5.4,6.1
		c0,0.5-0.1,0.9-0.1,1.4C147.5,26.8,143.9,29,140.6,29z M143.5,22.1c0.1-0.4,0.2-1,0.2-1.7c0-1.1-0.3-2.2-1.3-2.2
		c-1.3,0-2.2,1.8-2.6,3.8c-0.1,0.4-0.2,1-0.2,1.5c0,1.1,0.3,2.1,1.4,2.1C142.2,25.7,143.3,23.7,143.5,22.1z"/>
	<path class="st1" d="M152,19.1c0.1-0.8-0.8-0.4-0.8-0.4s-0.8-1.2-0.9-2.8c1-0.6,2.2-1.1,3.6-1.1c1.2,0,1.9,0.7,2.1,1.8
		c0.5-0.9,1.6-1.8,2.9-1.8c1.1,0,1.7,0.3,2,0.6c0,1.1-0.7,2.6-1.6,3.6c-0.3-0.1-0.6-0.3-1.2-0.3c-0.5,0-1,0.2-1.6,0.5l-1.7,9.3
		c-1,0.3-1.9,0.4-2.8,0.4c-0.6,0-1.1,0-1.8-0.1L152,19.1z"/>
	<path class="st1" d="M163.5,19.2c0.1-0.8-0.8-0.4-0.8-0.4s-0.8-1.2-0.9-2.8c1.1-0.7,2.8-1.2,3.7-1.2c1.8,0,3,1.1,2.6,3.4l-1.1,6.2
		c-0.3,1.3,0.7,0.6,0.7,0.6c1.1,1,1.3,2.2,1.3,2.2s-1.7,1.8-4,1.8c-2.3,0-3.1-1.9-2.7-3.8L163.5,19.2z M166.9,13.1
		c-1.4,0-2.4-1-2.4-2.3c0-1.3,1-2.4,2.4-2.4c1.3,0,2.4,1.1,2.4,2.4C169.3,12.1,168.2,13.1,166.9,13.1z"/>
	<path class="st1" d="M179.5,20.6c0-0.1,0.1-0.5,0.1-0.9c0-0.6-0.2-1.3-1-1.3c-0.5,0-1,0.4-1,0.4l-1.7,9.6c-1,0.3-1.9,0.4-2.7,0.4
		c-0.6,0-1.2-0.1-1.9-0.2l1.7-9.6c0.1-0.8-0.8-0.4-0.8-0.4s-0.8-1.2-0.9-2.8c0.9-0.6,2.2-1.2,3.5-1.2c1,0,1.9,0.4,2.3,1.5
		c1-1.1,2.2-1.5,3.4-1.5c2.6,0,3.7,1.6,3.7,4c0,0.6,0,1.2-0.2,1.8l-0.6,3.8c-0.2,1.1,0.8,0.6,0.8,0.6c1.1,1,1.3,2.2,1.3,2.2
		s-1.8,1.8-4.2,1.8c-1.8,0-2.5-1.4-2.5-2.9c0-0.3,0-0.6,0.1-0.9L179.5,20.6z"/>
	<path class="st1" d="M194.3,28.1c-1,0.9-2.1,0.9-2.5,0.9c-2.8,0-4.8-2.4-4.8-5.7c0-0.5,0-1,0.1-1.5c0.8-5,4.5-7,7.1-7
		c1.8,0,2.5,1.1,2.5,1.1l0.4-0.5c0.8-0.2,1.6-0.3,2.2-0.3c1,0,1.7,0.2,1.7,0.2l-2.8,15.5c-0.8,4.6-4.3,5.8-7.8,5.8
		c-1.2,0-2.6,0-4.6-0.5c0,0-0.3-2.1,0.7-3.5c1.1,0.2,2.2,0.3,3.2,0.3c2.4,0,3.8-0.4,4.2-2.5L194.3,28.1z M195.9,18.7
		c0,0-0.5-0.7-1.4-0.7c-1.2,0-2.4,1.8-2.8,4.4c-0.1,0.3-0.1,0.7-0.1,1.1c0,1,0.3,2.1,1.6,2.1c0.9,0,1.6-0.5,1.6-0.5L195.9,18.7z"/>
</g>
</svg>
