<?xml version="1.0" encoding="utf-8"?>
<!-- Generator: Adobe Illustrator 19.1.0, SVG Export Plug-In . SVG Version: 6.00 Build 0)  -->
<svg version="1.1" id="Layer_1" xmlns="http://www.w3.org/2000/svg" xmlns:xlink="http://www.w3.org/1999/xlink" x="0px" y="0px"
	 viewBox="-39 30 1808 1070" style="enable-background:new -39 30 1808 1070;" xml:space="preserve">
<style type="text/css">
	.st0{fill:#0A3C78;stroke:#0A3C78;stroke-miterlimit:10;}
	.st1{enable-background:new    ;}
	.st2{fill:#F9F9F9;}
	.st3{fill:#246EB9;stroke:#0A3C78;stroke-miterlimit:10;}
	.st4{fill:#20BF55;}
	.st5{fill:none;}
	.st6{fill:#246EB9;}
	.st7{fill:#D30C7B;}
	.st8{fill:#FFFFFF;}
	.st9{fill:#0A3C78;}
	.st10{fill:none;stroke:#246EB9;stroke-miterlimit:10;}
</style>
<rect x="-39" y="30" class="st0" width="1808" height="1070"/>
<g class="st1">
	<path class="st2" d="M101.7,565.9h2.5l-7.1,26.8h-2.3l-7.1-26.8h2.4l4.5,17.3c0.5,2,0.9,3.9,1.2,5.8c0.3-2,0.7-3.9,1.3-5.9
		L101.7,565.9z"/>
	<path class="st2" d="M106.4,567.2c0-0.7,0.1-1.2,0.4-1.5s0.6-0.5,0.9-0.5c0.4,0,0.7,0.2,0.9,0.5c0.3,0.3,0.4,0.8,0.4,1.5
		s-0.1,1.2-0.4,1.5c-0.3,0.3-0.6,0.5-0.9,0.5c-0.4,0-0.7-0.2-0.9-0.5S106.4,567.9,106.4,567.2z M108.8,592.7h-2.2v-20.1h2.2V592.7z"
		/>
	<path class="st2" d="M123.1,587.2c0,1.9-0.5,3.3-1.5,4.3c-1,1-2.5,1.5-4.3,1.5c-2,0-3.5-0.4-4.6-1.3V589c0.7,0.5,1.5,0.9,2.3,1.2
		c0.8,0.3,1.6,0.4,2.4,0.4c1.2,0,2.1-0.3,2.7-0.8c0.6-0.5,0.9-1.3,0.9-2.3c0-0.8-0.2-1.4-0.8-2c-0.5-0.6-1.5-1.2-2.9-2
		c-1.4-0.7-2.4-1.3-2.9-1.8c-0.6-0.5-1-1.1-1.3-1.8c-0.3-0.7-0.4-1.4-0.4-2.4c0-1.6,0.5-2.9,1.5-3.9c1-0.9,2.3-1.4,4-1.4
		c1.6,0,3.2,0.4,4.7,1.3L122,576c-1.5-0.8-2.8-1.2-4-1.2c-1.1,0-1.9,0.2-2.4,0.7c-0.5,0.5-0.8,1.1-0.8,1.9c0,0.5,0.1,1,0.3,1.4
		c0.2,0.4,0.5,0.7,1,1.1s1.3,0.8,2.6,1.5c1.8,0.9,2.9,1.7,3.6,2.6S123.1,585.9,123.1,587.2z"/>
	<path class="st2" d="M128.9,572.6v13c0,1.6,0.3,2.9,0.8,3.7c0.5,0.8,1.4,1.2,2.6,1.2c1.5,0,2.7-0.6,3.4-1.7c0.7-1.1,1.1-3,1.1-5.6
		v-10.5h2.2v20.1h-1.9l-0.3-2.7h-0.1c-0.5,1-1.1,1.7-1.9,2.3c-0.8,0.5-1.7,0.8-2.8,0.8c-1.8,0-3.2-0.6-4-1.7c-0.9-1.2-1.3-3-1.3-5.6
		v-13.1H128.9z"/>
	<path class="st2" d="M152.9,592.7l-0.4-2.9h-0.1c-0.7,1.3-1.5,2.1-2.2,2.6c-0.7,0.4-1.7,0.7-2.8,0.7c-1.5,0-2.6-0.5-3.5-1.5
		c-0.8-1-1.2-2.5-1.2-4.4c0-4.1,2.4-6.2,7.2-6.4l2.5-0.1v-1.2c0-1.6-0.3-2.7-0.8-3.5c-0.5-0.8-1.3-1.1-2.4-1.1
		c-1.2,0-2.6,0.5-4.2,1.5l-0.7-2.3c0.7-0.5,1.5-1,2.4-1.3c0.9-0.3,1.7-0.5,2.6-0.5c1.8,0,3.1,0.5,3.9,1.6c0.9,1.1,1.3,2.8,1.3,5.1
		v13.7H152.9z M147.8,590.5c1.4,0,2.5-0.5,3.3-1.6c0.8-1,1.2-2.5,1.2-4.4v-1.8l-2.2,0.1c-1.8,0.1-3.1,0.5-3.9,1.1
		c-0.8,0.7-1.2,1.7-1.2,3.1c0,1.1,0.2,1.9,0.7,2.5C146.2,590.2,146.9,590.5,147.8,590.5z"/>
	<path class="st2" d="M161.4,592.7h-2.2v-28.5h2.2V592.7z"/>
	<path class="st2" d="M166,567.2c0-0.7,0.1-1.2,0.4-1.5s0.6-0.5,0.9-0.5c0.4,0,0.7,0.2,0.9,0.5c0.3,0.3,0.4,0.8,0.4,1.5
		s-0.1,1.2-0.4,1.5c-0.3,0.3-0.6,0.5-0.9,0.5c-0.4,0-0.7-0.2-0.9-0.5S166,567.9,166,567.2z M168.4,592.7h-2.2v-20.1h2.2V592.7z"/>
	<path class="st2" d="M182.6,592.7h-10.7v-2.1L180,575h-7.6v-2.4h10v2.4l-8,15.3h8.2V592.7z"/>
	<path class="st2" d="M185.9,567.2c0-0.7,0.1-1.2,0.4-1.5s0.6-0.5,0.9-0.5c0.4,0,0.7,0.2,0.9,0.5c0.3,0.3,0.4,0.8,0.4,1.5
		s-0.1,1.2-0.4,1.5c-0.3,0.3-0.6,0.5-0.9,0.5c-0.4,0-0.7-0.2-0.9-0.5S185.9,567.9,185.9,567.2z M188.4,592.7h-2.2v-20.1h2.2V592.7z"
		/>
	<path class="st2" d="M203.3,592.7v-13c0-1.6-0.3-2.9-0.8-3.7c-0.5-0.8-1.4-1.2-2.6-1.2c-1.6,0-2.7,0.6-3.4,1.7
		c-0.7,1.1-1.1,3-1.1,5.6v10.5h-2.2v-20.1h1.8l0.4,2.7h0.1c0.5-1,1.1-1.8,1.9-2.3c0.8-0.5,1.8-0.8,2.8-0.8c1.8,0,3.1,0.6,4,1.7
		c0.9,1.2,1.4,3,1.4,5.6v13.1H203.3z"/>
	<path class="st2" d="M222.2,572.6v1.9l-2.7,0.4c0.3,0.4,0.5,1,0.7,1.7c0.2,0.7,0.3,1.5,0.3,2.3c0,2-0.5,3.5-1.5,4.7
		c-1,1.2-2.4,1.8-4.1,1.8c-0.4,0-0.9,0-1.2-0.1c-1,0.7-1.4,1.5-1.4,2.6c0,0.5,0.2,1,0.5,1.2c0.3,0.3,0.9,0.4,1.7,0.4h2.6
		c1.6,0,2.8,0.5,3.7,1.4c0.9,0.9,1.3,2.2,1.3,4c0,2.2-0.7,3.9-2,5.1c-1.3,1.2-3.2,1.7-5.8,1.7c-1.9,0-3.4-0.5-4.5-1.5
		s-1.6-2.4-1.6-4.1c0-1.2,0.3-2.3,0.9-3.2c0.6-0.9,1.4-1.5,2.4-1.8c-0.4-0.2-0.7-0.6-1-1.1s-0.4-1.1-0.4-1.7c0-0.7,0.1-1.4,0.4-1.9
		c0.3-0.5,0.7-1.1,1.4-1.6c-0.8-0.4-1.4-1.2-1.9-2.2c-0.5-1-0.7-2.2-0.7-3.5c0-2.2,0.5-3.9,1.5-5.1c1-1.2,2.4-1.8,4.1-1.8
		c0.8,0,1.5,0.1,2.1,0.4H222.2z M210.4,596c0,1.1,0.3,1.9,1,2.5s1.6,0.8,2.9,0.8c1.9,0,3.3-0.4,4.2-1.1s1.4-1.8,1.4-3.1
		c0-1.1-0.2-1.8-0.7-2.3s-1.4-0.6-2.8-0.6h-2.7c-1,0-1.8,0.3-2.4,1S210.4,594.8,210.4,596z M211.6,579c0,1.4,0.3,2.5,0.9,3.2
		c0.6,0.7,1.4,1.1,2.4,1.1c2.2,0,3.3-1.4,3.3-4.3c0-3-1.1-4.5-3.3-4.5c-1.1,0-1.9,0.4-2.4,1.2C211.9,576.4,211.6,577.5,211.6,579z"
		/>
	<path class="st2" d="M250,579.3c0,4.3-0.8,7.7-2.4,10.1c-1.6,2.5-3.8,3.7-6.7,3.7c-2.9,0-5.2-1.2-6.7-3.6
		c-1.6-2.4-2.4-5.8-2.4-10.2c0-4.4,0.8-7.7,2.4-10.1c1.6-2.4,3.8-3.6,6.8-3.6c2.8,0,5.1,1.2,6.7,3.7S250,575,250,579.3z
		 M234.2,579.3c0,3.6,0.6,6.4,1.7,8.2c1.1,1.9,2.8,2.8,5,2.8c2.2,0,3.8-0.9,5-2.8c1.1-1.9,1.7-4.6,1.7-8.3c0-3.6-0.6-6.3-1.7-8.2
		c-1.1-1.9-2.8-2.8-4.9-2.8c-2.2,0-3.9,0.9-5,2.8C234.8,573,234.2,575.7,234.2,579.3z"/>
	<path class="st2" d="M256.2,582.4c0.4-0.7,1-1.7,1.8-2.9l4.8-6.9h2.7l-6,8.6l6.4,11.5h-2.7l-5.2-9.5l-1.7,2v7.5H254v-28.5h2.2v15.1
		c0,0.7,0,1.7-0.1,3.1H256.2z"/>
	<path class="st2" d="M277.4,568.3c-2.2,0-3.9,1-5.1,2.9s-1.9,4.6-1.9,8c0,3.5,0.6,6.2,1.8,8.1c1.2,1.9,2.9,2.9,5.2,2.9
		c1.4,0,3-0.3,4.7-1v2.7c-1.4,0.7-3.1,1-5.1,1c-2.9,0-5.2-1.2-6.7-3.6c-1.6-2.4-2.4-5.8-2.4-10.2c0-2.8,0.4-5.2,1.1-7.3
		s1.9-3.7,3.3-4.8c1.4-1.1,3.1-1.7,5.1-1.7c2.1,0,3.9,0.5,5.4,1.5l-1,2.7C280.4,568.8,278.9,568.3,277.4,568.3z"/>
	<path class="st2" d="M288.1,572.6v13c0,1.6,0.3,2.9,0.8,3.7c0.5,0.8,1.4,1.2,2.6,1.2c1.5,0,2.7-0.6,3.4-1.7c0.7-1.1,1.1-3,1.1-5.6
		v-10.5h2.2v20.1h-1.9l-0.3-2.7H296c-0.5,1-1.1,1.7-1.9,2.3c-0.8,0.5-1.7,0.8-2.8,0.8c-1.8,0-3.2-0.6-4-1.7c-0.9-1.2-1.3-3-1.3-5.6
		v-13.1H288.1z"/>
	<path class="st2" d="M309.9,593c-1,0-1.8-0.2-2.6-0.7c-0.8-0.5-1.5-1.2-2-2.2h-0.2c0.1,1.2,0.2,2.3,0.2,3.3v8.3H303v-29.1h1.8
		l0.3,2.7h0.1c0.6-1.1,1.2-1.9,2-2.4s1.6-0.7,2.6-0.7c2,0,3.5,0.9,4.5,2.7c1.1,1.8,1.6,4.4,1.6,7.7c0,3.3-0.5,5.9-1.6,7.7
		C313.4,592.1,311.8,593,309.9,593z M309.6,574.8c-1.5,0-2.6,0.6-3.3,1.7c-0.7,1.1-1,2.9-1,5.4v0.7c0,2.8,0.3,4.8,1,6.1
		c0.7,1.2,1.8,1.8,3.3,1.8c1.3,0,2.3-0.7,3-2.1c0.7-1.4,1.1-3.3,1.1-5.8c0-2.5-0.4-4.4-1.1-5.8S310.9,574.8,309.6,574.8z"/>
	<path class="st2" d="M319.8,567.2c0-0.7,0.1-1.2,0.4-1.5s0.6-0.5,0.9-0.5c0.4,0,0.7,0.2,0.9,0.5c0.3,0.3,0.4,0.8,0.4,1.5
		s-0.1,1.2-0.4,1.5c-0.3,0.3-0.6,0.5-0.9,0.5c-0.4,0-0.7-0.2-0.9-0.5S319.8,567.9,319.8,567.2z M322.2,592.7H320v-20.1h2.2V592.7z"
		/>
	<path class="st2" d="M337.1,590H337c-1,2-2.6,3.1-4.7,3.1c-1.9,0-3.4-0.9-4.5-2.7c-1.1-1.8-1.6-4.3-1.6-7.7c0-3.3,0.5-5.9,1.6-7.7
		c1.1-1.8,2.6-2.7,4.5-2.7c2,0,3.6,1,4.6,3h0.2l-0.1-1.4l-0.1-1.4v-8.2h2.2v28.5h-1.8L337.1,590z M332.6,590.5
		c1.5,0,2.6-0.6,3.3-1.7c0.7-1.1,1-3,1-5.5v-0.6c0-2.8-0.3-4.9-1-6.1c-0.7-1.2-1.8-1.8-3.3-1.8c-1.3,0-2.3,0.7-3,2.1
		c-0.7,1.4-1,3.3-1,5.9c0,2.6,0.3,4.5,1,5.8C330.2,589.8,331.2,590.5,332.6,590.5z"/>
	<path class="st2" d="M345.8,565.9l0.2,0.4c-0.2,1.2-0.6,2.6-1,4.3c-0.4,1.6-0.9,3.1-1.4,4.5h-1.6c0.6-3.5,1.1-6.5,1.4-9.2H345.8z"
		/>
	<path class="st2" d="M358.2,587.2c0,1.9-0.5,3.3-1.5,4.3c-1,1-2.5,1.5-4.3,1.5c-2,0-3.5-0.4-4.6-1.3V589c0.7,0.5,1.5,0.9,2.3,1.2
		c0.8,0.3,1.6,0.4,2.4,0.4c1.2,0,2.1-0.3,2.7-0.8c0.6-0.5,0.9-1.3,0.9-2.3c0-0.8-0.2-1.4-0.8-2c-0.5-0.6-1.5-1.2-2.9-2
		c-1.4-0.7-2.4-1.3-2.9-1.8c-0.6-0.5-1-1.1-1.3-1.8c-0.3-0.7-0.4-1.4-0.4-2.4c0-1.6,0.5-2.9,1.5-3.9c1-0.9,2.3-1.4,4-1.4
		c1.6,0,3.2,0.4,4.7,1.3l-0.8,2.5c-1.5-0.8-2.8-1.2-4-1.2c-1.1,0-1.9,0.2-2.4,0.7c-0.5,0.5-0.8,1.1-0.8,1.9c0,0.5,0.1,1,0.3,1.4
		c0.2,0.4,0.5,0.7,1,1.1s1.3,0.8,2.6,1.5c1.8,0.9,2.9,1.7,3.6,2.6S358.2,585.9,358.2,587.2z"/>
	<path class="st2" d="M387.9,592.7v-13.1c0-1.6-0.3-2.8-0.8-3.6s-1.3-1.2-2.4-1.2c-1.4,0-2.4,0.5-3.1,1.6c-0.7,1.1-1,2.8-1,5v11.2
		h-2.2v-13.1c0-1.6-0.3-2.8-0.8-3.6s-1.3-1.2-2.4-1.2c-1.4,0-2.4,0.6-3.1,1.7c-0.7,1.1-1,3-1,5.6v10.5h-2.2v-20.1h1.8l0.4,2.7h0.1
		c0.4-1,1-1.7,1.8-2.3c0.8-0.5,1.6-0.8,2.6-0.8c2.3,0,3.8,1.1,4.5,3.4h0.1c0.4-1,1.1-1.9,1.9-2.5c0.8-0.6,1.8-0.9,2.9-0.9
		c1.7,0,2.9,0.6,3.8,1.7c0.8,1.2,1.3,3,1.3,5.6v13.1H387.9z"/>
	<path class="st2" d="M403.9,592.7l-0.4-2.9h-0.1c-0.7,1.3-1.5,2.1-2.2,2.6c-0.7,0.4-1.7,0.7-2.8,0.7c-1.5,0-2.6-0.5-3.5-1.5
		c-0.8-1-1.2-2.5-1.2-4.4c0-4.1,2.4-6.2,7.2-6.4l2.5-0.1v-1.2c0-1.6-0.3-2.7-0.8-3.5c-0.5-0.8-1.3-1.1-2.4-1.1
		c-1.2,0-2.6,0.5-4.2,1.5l-0.7-2.3c0.7-0.5,1.5-1,2.4-1.3c0.9-0.3,1.7-0.5,2.6-0.5c1.8,0,3.1,0.5,3.9,1.6c0.9,1.1,1.3,2.8,1.3,5.1
		v13.7H403.9z M398.9,590.5c1.4,0,2.5-0.5,3.3-1.6c0.8-1,1.2-2.5,1.2-4.4v-1.8l-2.2,0.1c-1.8,0.1-3.1,0.5-3.9,1.1
		c-0.8,0.7-1.2,1.7-1.2,3.1c0,1.1,0.2,1.9,0.7,2.5C397.3,590.2,398,590.5,398.9,590.5z"/>
	<path class="st2" d="M415,590.5c0.4,0,0.8,0,1.1-0.1c0.4-0.1,0.7-0.2,0.9-0.2v2.3c-0.2,0.2-0.6,0.3-1.1,0.4
		c-0.5,0.1-0.9,0.2-1.3,0.2c-2.9,0-4.3-2-4.3-6.1V575h-2.1v-1.5l2.1-1.3l0.9-4.3h1.3v4.7h4.3v2.4h-4.3v11.8c0,1.2,0.2,2.1,0.6,2.8
		C413.7,590.2,414.3,590.5,415,590.5z"/>
	<path class="st2" d="M425.9,593c-2.1,0-3.8-0.9-5-2.7s-1.8-4.3-1.8-7.6c0-3.4,0.6-6,1.8-7.8c1.2-1.8,2.9-2.7,5.1-2.7
		c0.7,0,1.4,0.1,2.1,0.3c0.7,0.2,1.3,0.5,1.7,0.7l-0.7,2.6c-0.5-0.3-1-0.5-1.6-0.7s-1.1-0.3-1.6-0.3c-3,0-4.5,2.6-4.5,7.8
		c0,2.5,0.4,4.4,1.1,5.7c0.7,1.3,1.8,2,3.3,2c1.2,0,2.5-0.4,3.8-1.1v2.7C428.7,592.7,427.4,593,425.9,593z"/>
	<path class="st2" d="M443.3,592.7v-13c0-1.6-0.3-2.9-0.8-3.7c-0.5-0.8-1.4-1.2-2.6-1.2c-1.6,0-2.7,0.6-3.4,1.7
		c-0.7,1.1-1.1,3-1.1,5.6v10.5h-2.2v-28.5h2.2v8.6c0,1,0,1.9-0.1,2.6h0.1c0.4-1,1.1-1.7,1.9-2.3c0.8-0.6,1.7-0.8,2.8-0.8
		c1.8,0,3.2,0.6,4.1,1.7c0.9,1.2,1.4,3,1.4,5.6v13.1H443.3z"/>
	<path class="st2" d="M450,567.2c0-0.7,0.1-1.2,0.4-1.5s0.6-0.5,0.9-0.5c0.4,0,0.7,0.2,0.9,0.5c0.3,0.3,0.4,0.8,0.4,1.5
		s-0.1,1.2-0.4,1.5c-0.3,0.3-0.6,0.5-0.9,0.5c-0.4,0-0.7-0.2-0.9-0.5S450,567.9,450,567.2z M452.4,592.7h-2.2v-20.1h2.2V592.7z"/>
	<path class="st2" d="M467.3,592.7v-13c0-1.6-0.3-2.9-0.8-3.7c-0.5-0.8-1.4-1.2-2.6-1.2c-1.6,0-2.7,0.6-3.4,1.7
		c-0.7,1.1-1.1,3-1.1,5.6v10.5h-2.2v-20.1h1.8l0.4,2.7h0.1c0.5-1,1.1-1.8,1.9-2.3c0.8-0.5,1.8-0.8,2.8-0.8c1.8,0,3.1,0.6,4,1.7
		c0.9,1.2,1.4,3,1.4,5.6v13.1H467.3z"/>
	<path class="st2" d="M486.3,572.6v1.9l-2.7,0.4c0.3,0.4,0.5,1,0.7,1.7c0.2,0.7,0.3,1.5,0.3,2.3c0,2-0.5,3.5-1.5,4.7
		c-1,1.2-2.4,1.8-4.1,1.8c-0.4,0-0.9,0-1.2-0.1c-1,0.7-1.4,1.5-1.4,2.6c0,0.5,0.2,1,0.5,1.2c0.3,0.3,0.9,0.4,1.7,0.4h2.6
		c1.6,0,2.8,0.5,3.7,1.4c0.9,0.9,1.3,2.2,1.3,4c0,2.2-0.7,3.9-2,5.1c-1.3,1.2-3.2,1.7-5.8,1.7c-1.9,0-3.4-0.5-4.5-1.5
		s-1.6-2.4-1.6-4.1c0-1.2,0.3-2.3,0.9-3.2c0.6-0.9,1.4-1.5,2.4-1.8c-0.4-0.2-0.7-0.6-1-1.1s-0.4-1.1-0.4-1.7c0-0.7,0.1-1.4,0.4-1.9
		c0.3-0.5,0.7-1.1,1.4-1.6c-0.8-0.4-1.4-1.2-1.9-2.2c-0.5-1-0.7-2.2-0.7-3.5c0-2.2,0.5-3.9,1.5-5.1c1-1.2,2.4-1.8,4.1-1.8
		c0.8,0,1.5,0.1,2.1,0.4H486.3z M474.5,596c0,1.1,0.3,1.9,1,2.5s1.6,0.8,2.9,0.8c1.9,0,3.3-0.4,4.2-1.1s1.4-1.8,1.4-3.1
		c0-1.1-0.2-1.8-0.7-2.3s-1.4-0.6-2.8-0.6h-2.7c-1,0-1.8,0.3-2.4,1S474.5,594.8,474.5,596z M475.7,579c0,1.4,0.3,2.5,0.9,3.2
		c0.6,0.7,1.4,1.1,2.4,1.1c2.2,0,3.3-1.4,3.3-4.3c0-3-1.1-4.5-3.3-4.5c-1.1,0-1.9,0.4-2.4,1.2C476,576.4,475.7,577.5,475.7,579z"/>
	<path class="st2" d="M505.6,592.7l-0.4-2.9h-0.1c-0.7,1.3-1.5,2.1-2.2,2.6c-0.7,0.4-1.7,0.7-2.8,0.7c-1.5,0-2.6-0.5-3.5-1.5
		c-0.8-1-1.2-2.5-1.2-4.4c0-4.1,2.4-6.2,7.2-6.4l2.5-0.1v-1.2c0-1.6-0.3-2.7-0.8-3.5c-0.5-0.8-1.3-1.1-2.4-1.1
		c-1.2,0-2.6,0.5-4.2,1.5l-0.7-2.3c0.7-0.5,1.5-1,2.4-1.3c0.9-0.3,1.7-0.5,2.6-0.5c1.8,0,3.1,0.5,3.9,1.6c0.9,1.1,1.3,2.8,1.3,5.1
		v13.7H505.6z M500.6,590.5c1.4,0,2.5-0.5,3.3-1.6c0.8-1,1.2-2.5,1.2-4.4v-1.8l-2.2,0.1c-1.8,0.1-3.1,0.5-3.9,1.1
		c-0.8,0.7-1.2,1.7-1.2,3.1c0,1.1,0.2,1.9,0.7,2.5C499,590.2,499.7,590.5,500.6,590.5z"/>
	<path class="st2" d="M514.2,592.7h-2.2v-28.5h2.2V592.7z"/>
	<path class="st2" d="M531,572.6v1.9l-2.7,0.4c0.3,0.4,0.5,1,0.7,1.7c0.2,0.7,0.3,1.5,0.3,2.3c0,2-0.5,3.5-1.5,4.7
		c-1,1.2-2.4,1.8-4.1,1.8c-0.4,0-0.9,0-1.2-0.1c-1,0.7-1.4,1.5-1.4,2.6c0,0.5,0.2,1,0.5,1.2c0.3,0.3,0.9,0.4,1.7,0.4h2.6
		c1.6,0,2.8,0.5,3.7,1.4c0.9,0.9,1.3,2.2,1.3,4c0,2.2-0.7,3.9-2,5.1c-1.3,1.2-3.2,1.7-5.8,1.7c-1.9,0-3.4-0.5-4.5-1.5
		s-1.6-2.4-1.6-4.1c0-1.2,0.3-2.3,0.9-3.2c0.6-0.9,1.4-1.5,2.4-1.8c-0.4-0.2-0.7-0.6-1-1.1s-0.4-1.1-0.4-1.7c0-0.7,0.1-1.4,0.4-1.9
		c0.3-0.5,0.7-1.1,1.4-1.6c-0.8-0.4-1.4-1.2-1.9-2.2c-0.5-1-0.7-2.2-0.7-3.5c0-2.2,0.5-3.9,1.5-5.1c1-1.2,2.4-1.8,4.1-1.8
		c0.8,0,1.5,0.1,2.1,0.4H531z M519.2,596c0,1.1,0.3,1.9,1,2.5s1.6,0.8,2.9,0.8c1.9,0,3.3-0.4,4.2-1.1s1.4-1.8,1.4-3.1
		c0-1.1-0.2-1.8-0.7-2.3s-1.4-0.6-2.8-0.6h-2.7c-1,0-1.8,0.3-2.4,1S519.2,594.8,519.2,596z M520.4,579c0,1.4,0.3,2.5,0.9,3.2
		c0.6,0.7,1.4,1.1,2.4,1.1c2.2,0,3.3-1.4,3.3-4.3c0-3-1.1-4.5-3.3-4.5c-1.1,0-1.9,0.4-2.4,1.2C520.7,576.4,520.4,577.5,520.4,579z"
		/>
	<path class="st2" d="M546.9,582.6c0,3.3-0.6,5.8-1.8,7.7c-1.2,1.8-2.9,2.8-5,2.8c-1.3,0-2.5-0.4-3.5-1.3c-1-0.8-1.8-2.1-2.4-3.6
		c-0.6-1.6-0.8-3.4-0.8-5.5c0-3.3,0.6-5.8,1.8-7.6c1.2-1.8,2.9-2.7,5-2.7c2.1,0,3.7,0.9,4.9,2.8
		C546.3,576.9,546.9,579.4,546.9,582.6z M535.6,582.6c0,2.6,0.4,4.5,1.1,5.9c0.8,1.3,1.9,2,3.3,2c1.5,0,2.6-0.7,3.3-2
		c0.8-1.3,1.1-3.3,1.1-5.9c0-2.6-0.4-4.5-1.1-5.8c-0.8-1.3-1.9-2-3.4-2c-1.5,0-2.6,0.7-3.3,2C536,578.1,535.6,580,535.6,582.6z"/>
	<path class="st2" d="M557.6,572.2c0.7,0,1.2,0.1,1.8,0.2l-0.3,2.8c-0.6-0.2-1.2-0.3-1.6-0.3c-1.2,0-2.2,0.7-3.1,2s-1.3,3-1.3,4.9
		v10.8h-2.2v-20.1h1.9l0.3,3.7h0.1c0.5-1.3,1.2-2.3,2-3C555.8,572.6,556.6,572.2,557.6,572.2z"/>
	<path class="st2" d="M561.9,567.2c0-0.7,0.1-1.2,0.4-1.5s0.6-0.5,0.9-0.5c0.4,0,0.7,0.2,0.9,0.5c0.3,0.3,0.4,0.8,0.4,1.5
		s-0.1,1.2-0.4,1.5c-0.3,0.3-0.6,0.5-0.9,0.5c-0.4,0-0.7-0.2-0.9-0.5S561.9,567.9,561.9,567.2z M564.4,592.7h-2.2v-20.1h2.2V592.7z"
		/>
	<path class="st2" d="M573.9,590.5c0.4,0,0.8,0,1.1-0.1c0.4-0.1,0.7-0.2,0.9-0.2v2.3c-0.2,0.2-0.6,0.3-1.1,0.4
		c-0.5,0.1-0.9,0.2-1.3,0.2c-2.9,0-4.3-2-4.3-6.1V575h-2.1v-1.5l2.1-1.3l0.9-4.3h1.3v4.7h4.3v2.4h-4.3v11.8c0,1.2,0.2,2.1,0.6,2.8
		C572.6,590.2,573.2,590.5,573.9,590.5z"/>
	<path class="st2" d="M589,592.7v-13c0-1.6-0.3-2.9-0.8-3.7c-0.5-0.8-1.4-1.2-2.6-1.2c-1.6,0-2.7,0.6-3.4,1.7
		c-0.7,1.1-1.1,3-1.1,5.6v10.5h-2.2v-28.5h2.2v8.6c0,1,0,1.9-0.1,2.6h0.1c0.4-1,1.1-1.7,1.9-2.3c0.8-0.6,1.7-0.8,2.8-0.8
		c1.8,0,3.2,0.6,4.1,1.7c0.9,1.2,1.4,3,1.4,5.6v13.1H589z"/>
	<path class="st2" d="M614.8,592.7v-13.1c0-1.6-0.3-2.8-0.8-3.6s-1.3-1.2-2.4-1.2c-1.4,0-2.4,0.5-3.1,1.6c-0.7,1.1-1,2.8-1,5v11.2
		h-2.2v-13.1c0-1.6-0.3-2.8-0.8-3.6s-1.3-1.2-2.4-1.2c-1.4,0-2.4,0.6-3.1,1.7c-0.7,1.1-1,3-1,5.6v10.5h-2.2v-20.1h1.8l0.4,2.7h0.1
		c0.4-1,1-1.7,1.8-2.3c0.8-0.5,1.6-0.8,2.6-0.8c2.3,0,3.8,1.1,4.5,3.4h0.1c0.4-1,1.1-1.9,1.9-2.5c0.8-0.6,1.8-0.9,2.9-0.9
		c1.7,0,2.9,0.6,3.8,1.7c0.8,1.2,1.3,3,1.3,5.6v13.1H614.8z"/>
	<path class="st2" d="M621.3,590.7c0-0.8,0.1-1.4,0.4-1.9c0.3-0.4,0.7-0.6,1.2-0.6c0.5,0,0.9,0.2,1.2,0.6c0.3,0.4,0.4,1,0.4,1.9
		c0,0.8-0.1,1.4-0.4,1.8c-0.3,0.4-0.7,0.6-1.2,0.6c-0.5,0-0.8-0.2-1.1-0.6C621.5,592.2,621.3,591.6,621.3,590.7z"/>
</g>
<g class="st1">
	<path class="st2" d="M101.6,939.6c0,2.4-0.6,4.2-1.9,5.5s-3,2-5.1,2c-2.3,0-4.1-0.4-5.4-1.2v-3c0.8,0.5,1.7,0.8,2.6,1.1
		s1.9,0.4,2.8,0.4c1.5,0,2.7-0.4,3.5-1.2c0.8-0.8,1.2-1.9,1.2-3.3c0-0.9-0.1-1.7-0.4-2.3c-0.3-0.6-0.7-1.1-1.4-1.6
		c-0.6-0.5-1.6-1.1-2.9-1.7c-1.8-0.9-3.2-1.9-3.9-3.2s-1.2-2.8-1.2-4.8c0-2.1,0.6-3.7,1.7-4.9s2.7-1.8,4.5-1.8c2,0,3.8,0.5,5.4,1.5
		l-0.7,2.7c-1.6-0.9-3.2-1.4-4.8-1.4c-1.2,0-2.2,0.4-2.9,1.1c-0.7,0.7-1,1.7-1,2.9c0,0.9,0.1,1.7,0.4,2.3c0.3,0.6,0.7,1.1,1.3,1.6
		c0.6,0.5,1.5,1,2.8,1.6c2.1,1,3.5,2.1,4.3,3.2C101.2,936.3,101.6,937.8,101.6,939.6z"/>
	<path class="st2" d="M111.2,947.1c-2.1,0-3.8-0.9-5-2.7s-1.8-4.3-1.8-7.6c0-3.4,0.6-6,1.8-7.8c1.2-1.8,2.9-2.7,5.1-2.7
		c0.7,0,1.4,0.1,2.1,0.3c0.7,0.2,1.3,0.5,1.7,0.7l-0.7,2.6c-0.5-0.3-1-0.5-1.6-0.7s-1.1-0.3-1.6-0.3c-3,0-4.5,2.6-4.5,7.8
		c0,2.5,0.4,4.4,1.1,5.7c0.7,1.3,1.8,2,3.3,2c1.2,0,2.5-0.4,3.8-1.1v2.7C113.9,946.8,112.7,947.1,111.2,947.1z"/>
	<path class="st2" d="M125.2,926.3c0.7,0,1.2,0.1,1.8,0.2l-0.3,2.8c-0.6-0.2-1.2-0.3-1.6-0.3c-1.2,0-2.2,0.7-3.1,2s-1.3,3-1.3,4.9
		v10.8h-2.2v-20.1h1.9l0.3,3.7h0.1c0.5-1.3,1.2-2.3,2-3C123.4,926.7,124.3,926.3,125.2,926.3z"/>
	<path class="st2" d="M142.5,936.7c0,3.3-0.6,5.8-1.8,7.7c-1.2,1.8-2.9,2.8-5,2.8c-1.3,0-2.5-0.4-3.5-1.3c-1-0.8-1.8-2.1-2.4-3.6
		c-0.6-1.6-0.8-3.4-0.8-5.5c0-3.3,0.6-5.8,1.8-7.6c1.2-1.8,2.9-2.7,5-2.7c2.1,0,3.7,0.9,4.9,2.8C141.9,931,142.5,933.5,142.5,936.7z
		 M131.3,936.7c0,2.6,0.4,4.5,1.1,5.9c0.8,1.3,1.9,2,3.3,2c1.5,0,2.6-0.7,3.3-2c0.8-1.3,1.1-3.3,1.1-5.9c0-2.6-0.4-4.5-1.1-5.8
		c-0.8-1.3-1.9-2-3.4-2c-1.5,0-2.6,0.7-3.3,2C131.6,932.2,131.3,934.1,131.3,936.7z"/>
	<path class="st2" d="M148.7,946.8h-2.2v-28.5h2.2V946.8z"/>
	<path class="st2" d="M155.7,946.8h-2.2v-28.5h2.2V946.8z"/>
	<path class="st2" d="M177.8,944.1h-0.1c-1,2-2.6,3.1-4.7,3.1c-1.9,0-3.4-0.9-4.5-2.7c-1.1-1.8-1.6-4.3-1.6-7.7
		c0-3.3,0.5-5.9,1.6-7.7c1.1-1.8,2.6-2.7,4.5-2.7c2,0,3.6,1,4.6,3h0.2l-0.1-1.4l-0.1-1.4v-8.2h2.2v28.5h-1.8L177.8,944.1z
		 M173.3,944.6c1.5,0,2.6-0.6,3.3-1.7c0.7-1.1,1-3,1-5.5v-0.6c0-2.8-0.3-4.9-1-6.1c-0.7-1.2-1.8-1.8-3.3-1.8c-1.3,0-2.3,0.7-3,2.1
		c-0.7,1.4-1,3.3-1,5.9c0,2.6,0.3,4.5,1,5.8C170.9,943.9,171.9,944.6,173.3,944.6z"/>
	<path class="st2" d="M197.4,936.7c0,3.3-0.6,5.8-1.8,7.7c-1.2,1.8-2.9,2.8-5,2.8c-1.3,0-2.5-0.4-3.5-1.3c-1-0.8-1.8-2.1-2.4-3.6
		c-0.6-1.6-0.8-3.4-0.8-5.5c0-3.3,0.6-5.8,1.8-7.6c1.2-1.8,2.9-2.7,5-2.7c2.1,0,3.7,0.9,4.9,2.8C196.8,931,197.4,933.5,197.4,936.7z
		 M186.1,936.7c0,2.6,0.4,4.5,1.1,5.9c0.8,1.3,1.9,2,3.3,2c1.5,0,2.6-0.7,3.3-2c0.8-1.3,1.1-3.3,1.1-5.9c0-2.6-0.4-4.5-1.1-5.8
		c-0.8-1.3-1.9-2-3.4-2c-1.5,0-2.6,0.7-3.3,2C186.5,932.2,186.1,934.1,186.1,936.7z"/>
	<path class="st2" d="M213.5,946.8l-2.7-11.8c-0.2-0.7-0.5-2.4-1-4.9h-0.1c-0.4,2.1-0.7,3.8-0.9,4.9l-2.8,11.7h-2.6l-4-20.1h2.4
		c1,5,1.7,8.9,2.2,11.5c0.5,2.6,0.8,4.4,0.9,5.3h0.1c0.1-0.7,0.3-1.6,0.5-2.7c0.2-1.1,0.4-2,0.6-2.6l2.7-11.5h2.4l2.6,11.5
		c0.5,2.1,0.8,3.9,1,5.3h0.1c0-0.4,0.1-1.1,0.3-2c0.2-0.9,1.1-5.8,2.8-14.8h2.3l-4.1,20.1H213.5z"/>
	<path class="st2" d="M233,946.8v-13c0-1.6-0.3-2.9-0.8-3.7c-0.5-0.8-1.4-1.2-2.6-1.2c-1.6,0-2.7,0.6-3.4,1.7
		c-0.7,1.1-1.1,3-1.1,5.6v10.5h-2.2v-20.1h1.8l0.4,2.7h0.1c0.5-1,1.1-1.8,1.9-2.3c0.8-0.5,1.8-0.8,2.8-0.8c1.8,0,3.1,0.6,4,1.7
		c0.9,1.2,1.4,3,1.4,5.6v13.1H233z"/>
	<path class="st2" d="M253.8,929H250v17.7h-2.2V929h-2.6v-1.4l2.6-1.1v-1.1c0-4.9,1.6-7.4,4.8-7.4c0.8,0,1.7,0.2,2.8,0.6l-0.6,2.4
		c-0.9-0.4-1.6-0.6-2.2-0.6c-0.8,0-1.5,0.4-1.9,1.1c-0.4,0.8-0.6,2-0.6,3.7v1.3h3.8V929z"/>
	<path class="st2" d="M269.3,936.7c0,3.3-0.6,5.8-1.8,7.7c-1.2,1.8-2.9,2.8-5,2.8c-1.3,0-2.5-0.4-3.5-1.3c-1-0.8-1.8-2.1-2.4-3.6
		c-0.6-1.6-0.8-3.4-0.8-5.5c0-3.3,0.6-5.8,1.8-7.6c1.2-1.8,2.9-2.7,5-2.7c2.1,0,3.7,0.9,4.9,2.8C268.6,931,269.3,933.5,269.3,936.7z
		 M258,936.7c0,2.6,0.4,4.5,1.1,5.9c0.8,1.3,1.9,2,3.3,2c1.5,0,2.6-0.7,3.3-2c0.8-1.3,1.1-3.3,1.1-5.9c0-2.6-0.4-4.5-1.1-5.8
		c-0.8-1.3-1.9-2-3.4-2c-1.5,0-2.6,0.7-3.3,2C258.3,932.2,258,934.1,258,936.7z"/>
	<path class="st2" d="M279.9,926.3c0.7,0,1.2,0.1,1.8,0.2l-0.3,2.8c-0.6-0.2-1.2-0.3-1.6-0.3c-1.2,0-2.2,0.7-3.1,2s-1.3,3-1.3,4.9
		v10.8h-2.2v-20.1h1.9l0.3,3.7h0.1c0.5-1.3,1.2-2.3,2-3C278.2,926.7,279,926.3,279.9,926.3z"/>
	<path class="st2" d="M310.6,946.8v-13.1c0-1.6-0.3-2.8-0.8-3.6s-1.3-1.2-2.4-1.2c-1.4,0-2.4,0.5-3.1,1.6c-0.7,1.1-1,2.8-1,5v11.2
		h-2.2v-13.1c0-1.6-0.3-2.8-0.8-3.6s-1.3-1.2-2.4-1.2c-1.4,0-2.4,0.6-3.1,1.7c-0.7,1.1-1,3-1,5.6v10.5h-2.2v-20.1h1.8l0.4,2.7h0.1
		c0.4-1,1-1.7,1.8-2.3c0.8-0.5,1.6-0.8,2.6-0.8c2.3,0,3.8,1.1,4.5,3.4h0.1c0.4-1,1.1-1.9,1.9-2.5c0.8-0.6,1.8-0.9,2.9-0.9
		c1.7,0,2.9,0.6,3.8,1.7c0.8,1.2,1.3,3,1.3,5.6v13.1H310.6z"/>
	<path class="st2" d="M330.2,936.7c0,3.3-0.6,5.8-1.8,7.7c-1.2,1.8-2.9,2.8-5,2.8c-1.3,0-2.5-0.4-3.5-1.3c-1-0.8-1.8-2.1-2.4-3.6
		c-0.6-1.6-0.8-3.4-0.8-5.5c0-3.3,0.6-5.8,1.8-7.6c1.2-1.8,2.9-2.7,5-2.7c2.1,0,3.7,0.9,4.9,2.8C329.6,931,330.2,933.5,330.2,936.7z
		 M318.9,936.7c0,2.6,0.4,4.5,1.1,5.9c0.8,1.3,1.9,2,3.3,2c1.5,0,2.6-0.7,3.3-2c0.8-1.3,1.1-3.3,1.1-5.9c0-2.6-0.4-4.5-1.1-5.8
		c-0.8-1.3-1.9-2-3.4-2c-1.5,0-2.6,0.7-3.3,2C319.3,932.2,318.9,934.1,318.9,936.7z"/>
	<path class="st2" d="M340.9,926.3c0.7,0,1.2,0.1,1.8,0.2l-0.3,2.8c-0.6-0.2-1.2-0.3-1.6-0.3c-1.2,0-2.2,0.7-3.1,2s-1.3,3-1.3,4.9
		v10.8h-2.2v-20.1h1.9l0.3,3.7h0.1c0.5-1.3,1.2-2.3,2-3C339.1,926.7,340,926.3,340.9,926.3z"/>
	<path class="st2" d="M351.7,947.1c-2.2,0-3.9-0.9-5.2-2.7c-1.3-1.8-1.9-4.3-1.9-7.5c0-3.2,0.6-5.8,1.8-7.7s2.8-2.9,4.7-2.9
		c1.9,0,3.3,0.8,4.4,2.5s1.6,3.8,1.6,6.5v1.9H347c0,2.4,0.5,4.1,1.3,5.4s2,1.8,3.5,1.8c1.6,0,3.2-0.5,4.7-1.4v2.7
		c-0.8,0.5-1.5,0.8-2.3,1C353.6,947,352.7,947.1,351.7,947.1z M351.1,928.9c-1.2,0-2.1,0.5-2.8,1.6c-0.7,1-1.1,2.5-1.3,4.4h7.7
		c0-1.9-0.3-3.4-0.9-4.4S352.3,928.9,351.1,928.9z"/>
	<path class="st2" d="M368,921.2c0-0.7,0.1-1.2,0.4-1.5s0.6-0.5,0.9-0.5c0.4,0,0.7,0.2,0.9,0.5c0.3,0.3,0.4,0.8,0.4,1.5
		s-0.1,1.2-0.4,1.5c-0.3,0.3-0.6,0.5-0.9,0.5c-0.4,0-0.7-0.2-0.9-0.5S368,921.9,368,921.2z M370.4,946.8h-2.2v-20.1h2.2V946.8z"/>
	<path class="st2" d="M385.3,946.8v-13c0-1.6-0.3-2.9-0.8-3.7c-0.5-0.8-1.4-1.2-2.6-1.2c-1.6,0-2.7,0.6-3.4,1.7
		c-0.7,1.1-1.1,3-1.1,5.6v10.5h-2.2v-20.1h1.8l0.4,2.7h0.1c0.5-1,1.1-1.8,1.9-2.3c0.8-0.5,1.8-0.8,2.8-0.8c1.8,0,3.1,0.6,4,1.7
		c0.9,1.2,1.4,3,1.4,5.6v13.1H385.3z"/>
	<path class="st2" d="M398.9,929h-3.8v17.7h-2.2V929h-2.6v-1.4l2.6-1.1v-1.1c0-4.9,1.6-7.4,4.8-7.4c0.8,0,1.7,0.2,2.8,0.6l-0.6,2.4
		c-0.9-0.4-1.6-0.6-2.2-0.6c-0.8,0-1.5,0.4-1.9,1.1c-0.4,0.8-0.6,2-0.6,3.7v1.3h3.8V929z"/>
	<path class="st2" d="M414.3,936.7c0,3.3-0.6,5.8-1.8,7.7c-1.2,1.8-2.9,2.8-5,2.8c-1.3,0-2.5-0.4-3.5-1.3c-1-0.8-1.8-2.1-2.4-3.6
		c-0.6-1.6-0.8-3.4-0.8-5.5c0-3.3,0.6-5.8,1.8-7.6c1.2-1.8,2.9-2.7,5-2.7c2.1,0,3.7,0.9,4.9,2.8C413.7,931,414.3,933.5,414.3,936.7z
		 M403.1,936.7c0,2.6,0.4,4.5,1.1,5.9c0.8,1.3,1.9,2,3.3,2c1.5,0,2.6-0.7,3.3-2c0.8-1.3,1.1-3.3,1.1-5.9c0-2.6-0.4-4.5-1.1-5.8
		c-0.8-1.3-1.9-2-3.4-2c-1.5,0-2.6,0.7-3.3,2C403.4,932.2,403.1,934.1,403.1,936.7z"/>
	<path class="st2" d="M425,926.3c0.7,0,1.2,0.1,1.8,0.2l-0.3,2.8c-0.6-0.2-1.2-0.3-1.6-0.3c-1.2,0-2.2,0.7-3.1,2s-1.3,3-1.3,4.9
		v10.8h-2.2v-20.1h1.9l0.3,3.7h0.1c0.5-1.3,1.2-2.3,2-3C423.3,926.7,424.1,926.3,425,926.3z"/>
	<path class="st2" d="M448.5,946.8v-13.1c0-1.6-0.3-2.8-0.8-3.6s-1.3-1.2-2.4-1.2c-1.4,0-2.4,0.5-3.1,1.6c-0.7,1.1-1,2.8-1,5v11.2
		H439v-13.1c0-1.6-0.3-2.8-0.8-3.6s-1.3-1.2-2.4-1.2c-1.4,0-2.4,0.6-3.1,1.7c-0.7,1.1-1,3-1,5.6v10.5h-2.2v-20.1h1.8l0.4,2.7h0.1
		c0.4-1,1-1.7,1.8-2.3c0.8-0.5,1.6-0.8,2.6-0.8c2.3,0,3.8,1.1,4.5,3.4h0.1c0.4-1,1.1-1.9,1.9-2.5c0.8-0.6,1.8-0.9,2.9-0.9
		c1.7,0,2.9,0.6,3.8,1.7c0.8,1.2,1.3,3,1.3,5.6v13.1H448.5z"/>
	<path class="st2" d="M464.4,946.8l-0.4-2.9h-0.1c-0.7,1.3-1.5,2.1-2.2,2.6c-0.7,0.4-1.7,0.7-2.8,0.7c-1.5,0-2.6-0.5-3.5-1.5
		c-0.8-1-1.2-2.5-1.2-4.4c0-4.1,2.4-6.2,7.2-6.4l2.5-0.1v-1.2c0-1.6-0.3-2.7-0.8-3.5c-0.5-0.8-1.3-1.1-2.4-1.1
		c-1.2,0-2.6,0.5-4.2,1.5l-0.7-2.3c0.7-0.5,1.5-1,2.4-1.3c0.9-0.3,1.7-0.5,2.6-0.5c1.8,0,3.1,0.5,3.9,1.6c0.9,1.1,1.3,2.8,1.3,5.1
		v13.7H464.4z M459.4,944.6c1.4,0,2.5-0.5,3.3-1.6c0.8-1,1.2-2.5,1.2-4.4v-1.8l-2.2,0.1c-1.8,0.1-3.1,0.5-3.9,1.1
		c-0.8,0.7-1.2,1.7-1.2,3.1c0,1.1,0.2,1.9,0.7,2.5C457.8,944.3,458.5,944.6,459.4,944.6z"/>
	<path class="st2" d="M475.5,944.6c0.4,0,0.8,0,1.1-0.1c0.4-0.1,0.7-0.2,0.9-0.2v2.3c-0.2,0.2-0.6,0.3-1.1,0.4
		c-0.5,0.1-0.9,0.2-1.3,0.2c-2.9,0-4.3-2-4.3-6.1V929h-2.1v-1.5l2.1-1.3l0.9-4.3h1.3v4.7h4.3v2.4h-4.3v11.8c0,1.2,0.2,2.1,0.6,2.8
		C474.2,944.3,474.8,944.6,475.5,944.6z"/>
	<path class="st2" d="M480.3,921.2c0-0.7,0.1-1.2,0.4-1.5s0.6-0.5,0.9-0.5c0.4,0,0.7,0.2,0.9,0.5c0.3,0.3,0.4,0.8,0.4,1.5
		s-0.1,1.2-0.4,1.5c-0.3,0.3-0.6,0.5-0.9,0.5c-0.4,0-0.7-0.2-0.9-0.5S480.3,921.9,480.3,921.2z M482.8,946.8h-2.2v-20.1h2.2V946.8z"
		/>
	<path class="st2" d="M500.3,936.7c0,3.3-0.6,5.8-1.8,7.7c-1.2,1.8-2.9,2.8-5,2.8c-1.3,0-2.5-0.4-3.5-1.3c-1-0.8-1.8-2.1-2.4-3.6
		c-0.6-1.6-0.8-3.4-0.8-5.5c0-3.3,0.6-5.8,1.8-7.6c1.2-1.8,2.9-2.7,5-2.7c2.1,0,3.7,0.9,4.9,2.8C499.7,931,500.3,933.5,500.3,936.7z
		 M489,936.7c0,2.6,0.4,4.5,1.1,5.9c0.8,1.3,1.9,2,3.3,2c1.5,0,2.6-0.7,3.3-2c0.8-1.3,1.1-3.3,1.1-5.9c0-2.6-0.4-4.5-1.1-5.8
		c-0.8-1.3-1.9-2-3.4-2c-1.5,0-2.6,0.7-3.3,2C489.4,932.2,489,934.1,489,936.7z"/>
	<path class="st2" d="M514.4,946.8v-13c0-1.6-0.3-2.9-0.8-3.7c-0.5-0.8-1.4-1.2-2.6-1.2c-1.6,0-2.7,0.6-3.4,1.7
		c-0.7,1.1-1.1,3-1.1,5.6v10.5h-2.2v-20.1h1.8l0.4,2.7h0.1c0.5-1,1.1-1.8,1.9-2.3c0.8-0.5,1.8-0.8,2.8-0.8c1.8,0,3.1,0.6,4,1.7
		c0.9,1.2,1.4,3,1.4,5.6v13.1H514.4z"/>
	<path class="st2" d="M541.2,936.7c0,3.3-0.6,5.8-1.8,7.7c-1.2,1.8-2.9,2.8-5,2.8c-1.3,0-2.5-0.4-3.5-1.3c-1-0.8-1.8-2.1-2.4-3.6
		c-0.6-1.6-0.8-3.4-0.8-5.5c0-3.3,0.6-5.8,1.8-7.6c1.2-1.8,2.9-2.7,5-2.7c2.1,0,3.7,0.9,4.9,2.8C540.6,931,541.2,933.5,541.2,936.7z
		 M529.9,936.7c0,2.6,0.4,4.5,1.1,5.9c0.8,1.3,1.9,2,3.3,2c1.5,0,2.6-0.7,3.3-2c0.8-1.3,1.1-3.3,1.1-5.9c0-2.6-0.4-4.5-1.1-5.8
		c-0.8-1.3-1.9-2-3.4-2c-1.5,0-2.6,0.7-3.3,2C530.3,932.2,529.9,934.1,529.9,936.7z"/>
	<path class="st2" d="M551.9,926.3c0.7,0,1.2,0.1,1.8,0.2l-0.3,2.8c-0.6-0.2-1.2-0.3-1.6-0.3c-1.2,0-2.2,0.7-3.1,2s-1.3,3-1.3,4.9
		v10.8h-2.2v-20.1h1.9l0.3,3.7h0.1c0.5-1.3,1.2-2.3,2-3C550.1,926.7,551,926.3,551.9,926.3z"/>
	<path class="st2" d="M573.2,941.3c0,1.9-0.5,3.3-1.5,4.3c-1,1-2.5,1.5-4.3,1.5c-2,0-3.5-0.4-4.6-1.3V943c0.7,0.5,1.5,0.9,2.3,1.2
		c0.8,0.3,1.6,0.4,2.4,0.4c1.2,0,2.1-0.3,2.7-0.8c0.6-0.5,0.9-1.3,0.9-2.3c0-0.8-0.2-1.4-0.8-2c-0.5-0.6-1.5-1.2-2.9-2
		c-1.4-0.7-2.4-1.3-2.9-1.8c-0.6-0.5-1-1.1-1.3-1.8c-0.3-0.7-0.4-1.4-0.4-2.4c0-1.6,0.5-2.9,1.5-3.9c1-0.9,2.3-1.4,4-1.4
		c1.6,0,3.2,0.4,4.7,1.3l-0.8,2.5c-1.5-0.8-2.8-1.2-4-1.2c-1.1,0-1.9,0.2-2.4,0.7c-0.5,0.5-0.8,1.1-0.8,1.9c0,0.5,0.1,1,0.3,1.4
		c0.2,0.4,0.5,0.7,1,1.1s1.3,0.8,2.6,1.5c1.8,0.9,2.9,1.7,3.6,2.6S573.2,939.9,573.2,941.3z"/>
	<path class="st2" d="M579.1,936.5c0.4-0.7,1-1.7,1.8-2.9l4.8-6.9h2.7l-6,8.6l6.4,11.5H586l-5.2-9.5l-1.7,2v7.5h-2.2v-28.5h2.2v15.1
		c0,0.7,0,1.7-0.1,3.1H579.1z"/>
	<path class="st2" d="M591.2,921.2c0-0.7,0.1-1.2,0.4-1.5s0.6-0.5,0.9-0.5c0.4,0,0.7,0.2,0.9,0.5c0.3,0.3,0.4,0.8,0.4,1.5
		s-0.1,1.2-0.4,1.5c-0.3,0.3-0.6,0.5-0.9,0.5c-0.4,0-0.7-0.2-0.9-0.5S591.2,921.9,591.2,921.2z M593.6,946.8h-2.2v-20.1h2.2V946.8z"
		/>
	<path class="st2" d="M605.3,947.1c-1,0-1.8-0.2-2.6-0.7c-0.8-0.5-1.5-1.2-2-2.2h-0.2c0.1,1.2,0.2,2.3,0.2,3.3v8.3h-2.2v-29.1h1.8
		l0.3,2.7h0.1c0.6-1.1,1.2-1.9,2-2.4s1.6-0.7,2.6-0.7c2,0,3.5,0.9,4.5,2.7c1.1,1.8,1.6,4.4,1.6,7.7c0,3.3-0.5,5.9-1.6,7.7
		C608.7,946.2,607.2,947.1,605.3,947.1z M604.9,928.9c-1.5,0-2.6,0.6-3.3,1.7c-0.7,1.1-1,2.9-1,5.4v0.7c0,2.8,0.3,4.8,1,6.1
		c0.7,1.2,1.8,1.8,3.3,1.8c1.3,0,2.3-0.7,3-2.1c0.7-1.4,1.1-3.3,1.1-5.8c0-2.5-0.4-4.4-1.1-5.8S606.3,928.9,604.9,928.9z"/>
	<path class="st2" d="M627.3,944.6c0.4,0,0.8,0,1.1-0.1c0.4-0.1,0.7-0.2,0.9-0.2v2.3c-0.2,0.2-0.6,0.3-1.1,0.4
		c-0.5,0.1-0.9,0.2-1.3,0.2c-2.9,0-4.3-2-4.3-6.1V929h-2.1v-1.5l2.1-1.3l0.9-4.3h1.3v4.7h4.3v2.4h-4.3v11.8c0,1.2,0.2,2.1,0.6,2.8
		C626,944.3,626.6,944.6,627.3,944.6z"/>
	<path class="st2" d="M645.1,936.7c0,3.3-0.6,5.8-1.8,7.7c-1.2,1.8-2.9,2.8-5,2.8c-1.3,0-2.5-0.4-3.5-1.3c-1-0.8-1.8-2.1-2.4-3.6
		c-0.6-1.6-0.8-3.4-0.8-5.5c0-3.3,0.6-5.8,1.8-7.6c1.2-1.8,2.9-2.7,5-2.7c2.1,0,3.7,0.9,4.9,2.8C644.5,931,645.1,933.5,645.1,936.7z
		 M633.8,936.7c0,2.6,0.4,4.5,1.1,5.9c0.8,1.3,1.9,2,3.3,2c1.5,0,2.6-0.7,3.3-2c0.8-1.3,1.1-3.3,1.1-5.9c0-2.6-0.4-4.5-1.1-5.8
		c-0.8-1.3-1.9-2-3.4-2c-1.5,0-2.6,0.7-3.3,2C634.2,932.2,633.8,934.1,633.8,936.7z"/>
</g>
<g class="st1">
	<path class="st2" d="M101.4,677.7h-11v-26.8h11v2.8h-8.7v8.6h8.2v2.7h-8.2v9.9h8.7V677.7z"/>
	<path class="st2" d="M115.6,677.7v-13c0-1.6-0.3-2.9-0.8-3.7c-0.5-0.8-1.4-1.2-2.6-1.2c-1.6,0-2.7,0.6-3.4,1.7
		c-0.7,1.1-1.1,3-1.1,5.6v10.5h-2.2v-20.1h1.8l0.4,2.7h0.1c0.5-1,1.1-1.8,1.9-2.3c0.8-0.5,1.8-0.8,2.8-0.8c1.8,0,3.1,0.6,4,1.7
		c0.9,1.2,1.4,3,1.4,5.6v13.1H115.6z"/>
	<path class="st2" d="M131.6,677.7l-0.4-2.9H131c-0.7,1.3-1.5,2.1-2.2,2.6c-0.7,0.4-1.7,0.7-2.8,0.7c-1.5,0-2.6-0.5-3.5-1.5
		c-0.8-1-1.2-2.5-1.2-4.4c0-4.1,2.4-6.2,7.2-6.4l2.5-0.1v-1.2c0-1.6-0.3-2.7-0.8-3.5c-0.5-0.8-1.3-1.1-2.4-1.1
		c-1.2,0-2.6,0.5-4.2,1.5L123,659c0.7-0.5,1.5-1,2.4-1.3c0.9-0.3,1.7-0.5,2.6-0.5c1.8,0,3.1,0.5,3.9,1.6c0.9,1.1,1.3,2.8,1.3,5.1
		v13.7H131.6z M126.5,675.5c1.4,0,2.5-0.5,3.3-1.6c0.8-1,1.2-2.5,1.2-4.4v-1.8l-2.2,0.1c-1.8,0.1-3.1,0.5-3.9,1.1
		c-0.8,0.7-1.2,1.7-1.2,3.1c0,1.1,0.2,1.9,0.7,2.5C124.9,675.2,125.6,675.5,126.5,675.5z"/>
	<path class="st2" d="M144.8,657.3c1.9,0,3.5,0.9,4.5,2.7c1.1,1.8,1.6,4.3,1.6,7.6s-0.5,5.9-1.6,7.7c-1.1,1.8-2.6,2.7-4.5,2.7
		c-1,0-1.8-0.2-2.6-0.7c-0.8-0.5-1.5-1.2-2-2.2h-0.2l-0.5,2.6h-1.6v-28.5h2.2v6.9c0,1.6,0,2.9-0.1,4.2h0.1
		C141.2,658.3,142.7,657.3,144.8,657.3z M144.4,659.8c-1.5,0-2.6,0.6-3.3,1.8s-1,3.2-1,6c0,2.8,0.3,4.8,1,6.1
		c0.7,1.2,1.8,1.8,3.3,1.8c1.4,0,2.4-0.7,3.1-2c0.7-1.4,1-3.3,1-5.9c0-2.6-0.3-4.6-1-5.8C146.9,660.5,145.8,659.8,144.4,659.8z"/>
	<path class="st2" d="M157.1,677.7h-2.2v-28.5h2.2V677.7z"/>
	<path class="st2" d="M161.6,652.2c0-0.7,0.1-1.2,0.4-1.5s0.6-0.5,0.9-0.5c0.4,0,0.7,0.2,0.9,0.5c0.3,0.3,0.4,0.8,0.4,1.5
		s-0.1,1.2-0.4,1.5c-0.3,0.3-0.6,0.5-0.9,0.5c-0.4,0-0.7-0.2-0.9-0.5S161.6,652.9,161.6,652.2z M164.1,677.7h-2.2v-20.1h2.2V677.7z"
		/>
	<path class="st2" d="M179,677.7v-13c0-1.6-0.3-2.9-0.8-3.7c-0.5-0.8-1.4-1.2-2.6-1.2c-1.6,0-2.7,0.6-3.4,1.7
		c-0.7,1.1-1.1,3-1.1,5.6v10.5h-2.2v-20.1h1.8l0.4,2.7h0.1c0.5-1,1.1-1.8,1.9-2.3c0.8-0.5,1.8-0.8,2.8-0.8c1.8,0,3.1,0.6,4,1.7
		c0.9,1.2,1.4,3,1.4,5.6v13.1H179z"/>
	<path class="st2" d="M198,657.6v1.9l-2.7,0.4c0.3,0.4,0.5,1,0.7,1.7c0.2,0.7,0.3,1.5,0.3,2.3c0,2-0.5,3.5-1.5,4.7
		c-1,1.2-2.4,1.8-4.1,1.8c-0.4,0-0.9,0-1.2-0.1c-1,0.7-1.4,1.5-1.4,2.6c0,0.5,0.2,1,0.5,1.2c0.3,0.3,0.9,0.4,1.7,0.4h2.6
		c1.6,0,2.8,0.5,3.7,1.4c0.9,0.9,1.3,2.2,1.3,4c0,2.2-0.7,3.9-2,5.1c-1.3,1.2-3.2,1.7-5.8,1.7c-1.9,0-3.4-0.5-4.5-1.5
		s-1.6-2.4-1.6-4.1c0-1.2,0.3-2.3,0.9-3.2c0.6-0.9,1.4-1.5,2.4-1.8c-0.4-0.2-0.7-0.6-1-1.1s-0.4-1.1-0.4-1.7c0-0.7,0.1-1.4,0.4-1.9
		c0.3-0.5,0.7-1.1,1.4-1.6c-0.8-0.4-1.4-1.2-1.9-2.2c-0.5-1-0.7-2.2-0.7-3.5c0-2.2,0.5-3.9,1.5-5.1c1-1.2,2.4-1.8,4.1-1.8
		c0.8,0,1.5,0.1,2.1,0.4H198z M186.1,681c0,1.1,0.3,1.9,1,2.5s1.6,0.8,2.9,0.8c1.9,0,3.3-0.4,4.2-1.1s1.4-1.8,1.4-3.1
		c0-1.1-0.2-1.8-0.7-2.3s-1.4-0.6-2.8-0.6h-2.7c-1,0-1.8,0.3-2.4,1S186.1,679.8,186.1,681z M187.4,664c0,1.4,0.3,2.5,0.9,3.2
		c0.6,0.7,1.4,1.1,2.4,1.1c2.2,0,3.3-1.4,3.3-4.3c0-3-1.1-4.5-3.3-4.5c-1.1,0-1.9,0.4-2.4,1.2C187.6,661.4,187.4,662.5,187.4,664z"
		/>
	<path class="st2" d="M210.3,657.6v13c0,1.6,0.3,2.9,0.8,3.7c0.5,0.8,1.4,1.2,2.6,1.2c1.5,0,2.7-0.6,3.4-1.7c0.7-1.1,1.1-3,1.1-5.6
		v-10.5h2.2v20.1h-1.9l-0.3-2.7h-0.1c-0.5,1-1.1,1.7-1.9,2.3c-0.8,0.5-1.7,0.8-2.8,0.8c-1.8,0-3.2-0.6-4-1.7c-0.9-1.2-1.3-3-1.3-5.6
		v-13.1H210.3z"/>
	<path class="st2" d="M234.7,672.2c0,1.9-0.5,3.3-1.5,4.3c-1,1-2.5,1.5-4.3,1.5c-2,0-3.5-0.4-4.6-1.3V674c0.7,0.5,1.5,0.9,2.3,1.2
		c0.8,0.3,1.6,0.4,2.4,0.4c1.2,0,2.1-0.3,2.7-0.8c0.6-0.5,0.9-1.3,0.9-2.3c0-0.8-0.2-1.4-0.8-2c-0.5-0.6-1.5-1.2-2.9-2
		c-1.4-0.7-2.4-1.3-2.9-1.8c-0.6-0.5-1-1.1-1.3-1.8c-0.3-0.7-0.4-1.4-0.4-2.4c0-1.6,0.5-2.9,1.5-3.9c1-0.9,2.3-1.4,4-1.4
		c1.6,0,3.2,0.4,4.7,1.3l-0.8,2.5c-1.5-0.8-2.8-1.2-4-1.2c-1.1,0-1.9,0.2-2.4,0.7c-0.5,0.5-0.8,1.1-0.8,1.9c0,0.5,0.1,1,0.3,1.4
		c0.2,0.4,0.5,0.7,1,1.1s1.3,0.8,2.6,1.5c1.8,0.9,2.9,1.7,3.6,2.6S234.7,670.9,234.7,672.2z"/>
	<path class="st2" d="M244.6,678c-2.2,0-3.9-0.9-5.2-2.7c-1.3-1.8-1.9-4.3-1.9-7.5c0-3.2,0.6-5.8,1.8-7.7s2.8-2.9,4.7-2.9
		c1.9,0,3.3,0.8,4.4,2.5s1.6,3.8,1.6,6.5v1.9h-10.2c0,2.4,0.5,4.1,1.3,5.4s2,1.8,3.5,1.8c1.6,0,3.2-0.5,4.7-1.4v2.7
		c-0.8,0.5-1.5,0.8-2.3,1C246.5,677.9,245.6,678,244.6,678z M244,659.8c-1.2,0-2.1,0.5-2.8,1.6c-0.7,1-1.1,2.5-1.3,4.4h7.7
		c0-1.9-0.3-3.4-0.9-4.4S245.2,659.8,244,659.8z"/>
	<path class="st2" d="M260.7,657.2c0.7,0,1.2,0.1,1.8,0.2l-0.3,2.8c-0.6-0.2-1.2-0.3-1.6-0.3c-1.2,0-2.2,0.7-3.1,2s-1.3,3-1.3,4.9
		v10.8h-2.2v-20.1h1.9l0.3,3.7h0.1c0.5-1.3,1.2-2.3,2-3C258.9,657.6,259.8,657.2,260.7,657.2z"/>
	<path class="st2" d="M278.7,678c-2.2,0-3.9-0.9-5.2-2.7c-1.3-1.8-1.9-4.3-1.9-7.5c0-3.2,0.6-5.8,1.8-7.7s2.8-2.9,4.7-2.9
		c1.9,0,3.3,0.8,4.4,2.5s1.6,3.8,1.6,6.5v1.9h-10.2c0,2.4,0.5,4.1,1.3,5.4s2,1.8,3.5,1.8c1.6,0,3.2-0.5,4.7-1.4v2.7
		c-0.8,0.5-1.5,0.8-2.3,1C280.5,677.9,279.7,678,278.7,678z M278.1,659.8c-1.2,0-2.1,0.5-2.8,1.6c-0.7,1-1.1,2.5-1.3,4.4h7.7
		c0-1.9-0.3-3.4-0.9-4.4S279.2,659.8,278.1,659.8z"/>
	<path class="st2" d="M291.5,667.4l-5.2-9.8h2.6l3.9,7.7l3.9-7.7h2.5l-5.2,9.8l5.4,10.3H297l-4.1-8.1l-4.2,8.1h-2.5L291.5,667.4z"/>
	<path class="st2" d="M309.3,678c-1,0-1.8-0.2-2.6-0.7c-0.8-0.5-1.5-1.2-2-2.2h-0.2c0.1,1.2,0.2,2.3,0.2,3.3v8.3h-2.2v-29.1h1.8
		l0.3,2.7h0.1c0.6-1.1,1.2-1.9,2-2.4s1.6-0.7,2.6-0.7c2,0,3.5,0.9,4.5,2.7c1.1,1.8,1.6,4.4,1.6,7.7c0,3.3-0.5,5.9-1.6,7.7
		C312.8,677.1,311.3,678,309.3,678z M309,659.8c-1.5,0-2.6,0.6-3.3,1.7c-0.7,1.1-1,2.9-1,5.4v0.7c0,2.8,0.3,4.8,1,6.1
		c0.7,1.2,1.8,1.8,3.3,1.8c1.3,0,2.3-0.7,3-2.1c0.7-1.4,1.1-3.3,1.1-5.8c0-2.5-0.4-4.4-1.1-5.8S310.3,659.8,309,659.8z"/>
	<path class="st2" d="M321.7,677.7h-2.2v-28.5h2.2V677.7z"/>
	<path class="st2" d="M339.2,667.6c0,3.3-0.6,5.8-1.8,7.7c-1.2,1.8-2.9,2.8-5,2.8c-1.3,0-2.5-0.4-3.5-1.3c-1-0.8-1.8-2.1-2.4-3.6
		c-0.6-1.6-0.8-3.4-0.8-5.5c0-3.3,0.6-5.8,1.8-7.6c1.2-1.8,2.9-2.7,5-2.7c2.1,0,3.7,0.9,4.9,2.8
		C338.6,661.9,339.2,664.4,339.2,667.6z M327.9,667.6c0,2.6,0.4,4.5,1.1,5.9c0.8,1.3,1.9,2,3.3,2c1.5,0,2.6-0.7,3.3-2
		c0.8-1.3,1.1-3.3,1.1-5.9c0-2.6-0.4-4.5-1.1-5.8c-0.8-1.3-1.9-2-3.4-2c-1.5,0-2.6,0.7-3.3,2C328.3,663.1,327.9,665,327.9,667.6z"/>
	<path class="st2" d="M349.9,657.2c0.7,0,1.2,0.1,1.8,0.2l-0.3,2.8c-0.6-0.2-1.2-0.3-1.6-0.3c-1.2,0-2.2,0.7-3.1,2s-1.3,3-1.3,4.9
		v10.8h-2.2v-20.1h1.9l0.3,3.7h0.1c0.5-1.3,1.2-2.3,2-3C348.1,657.6,349,657.2,349.9,657.2z"/>
	<path class="st2" d="M363.6,677.7l-0.4-2.9H363c-0.7,1.3-1.5,2.1-2.2,2.6c-0.7,0.4-1.7,0.7-2.8,0.7c-1.5,0-2.6-0.5-3.5-1.5
		c-0.8-1-1.2-2.5-1.2-4.4c0-4.1,2.4-6.2,7.2-6.4l2.5-0.1v-1.2c0-1.6-0.3-2.7-0.8-3.5c-0.5-0.8-1.3-1.1-2.4-1.1
		c-1.2,0-2.6,0.5-4.2,1.5L355,659c0.7-0.5,1.5-1,2.4-1.3c0.9-0.3,1.7-0.5,2.6-0.5c1.8,0,3.1,0.5,3.9,1.6c0.9,1.1,1.3,2.8,1.3,5.1
		v13.7H363.6z M358.5,675.5c1.4,0,2.5-0.5,3.3-1.6c0.8-1,1.2-2.5,1.2-4.4v-1.8l-2.2,0.1c-1.8,0.1-3.1,0.5-3.9,1.1
		c-0.8,0.7-1.2,1.7-1.2,3.1c0,1.1,0.2,1.9,0.7,2.5C356.9,675.2,357.6,675.5,358.5,675.5z"/>
	<path class="st2" d="M374.6,675.5c0.4,0,0.8,0,1.1-0.1c0.4-0.1,0.7-0.2,0.9-0.2v2.3c-0.2,0.2-0.6,0.3-1.1,0.4
		c-0.5,0.1-0.9,0.2-1.3,0.2c-2.9,0-4.3-2-4.3-6.1V660h-2.1v-1.5l2.1-1.3l0.9-4.3h1.3v4.7h4.3v2.4h-4.3v11.8c0,1.2,0.2,2.1,0.6,2.8
		C373.3,675.2,373.9,675.5,374.6,675.5z"/>
	<path class="st2" d="M379.4,652.2c0-0.7,0.1-1.2,0.4-1.5s0.6-0.5,0.9-0.5c0.4,0,0.7,0.2,0.9,0.5c0.3,0.3,0.4,0.8,0.4,1.5
		s-0.1,1.2-0.4,1.5c-0.3,0.3-0.6,0.5-0.9,0.5c-0.4,0-0.7-0.2-0.9-0.5S379.4,652.9,379.4,652.2z M381.9,677.7h-2.2v-20.1h2.2V677.7z"
		/>
	<path class="st2" d="M399.4,667.6c0,3.3-0.6,5.8-1.8,7.7c-1.2,1.8-2.9,2.8-5,2.8c-1.3,0-2.5-0.4-3.5-1.3c-1-0.8-1.8-2.1-2.4-3.6
		c-0.6-1.6-0.8-3.4-0.8-5.5c0-3.3,0.6-5.8,1.8-7.6c1.2-1.8,2.9-2.7,5-2.7c2.1,0,3.7,0.9,4.9,2.8
		C398.8,661.9,399.4,664.4,399.4,667.6z M388.1,667.6c0,2.6,0.4,4.5,1.1,5.9c0.8,1.3,1.9,2,3.3,2c1.5,0,2.6-0.7,3.3-2
		c0.8-1.3,1.1-3.3,1.1-5.9c0-2.6-0.4-4.5-1.1-5.8c-0.8-1.3-1.9-2-3.4-2c-1.5,0-2.6,0.7-3.3,2C388.5,663.1,388.1,665,388.1,667.6z"/>
	<path class="st2" d="M413.5,677.7v-13c0-1.6-0.3-2.9-0.8-3.7c-0.5-0.8-1.4-1.2-2.6-1.2c-1.6,0-2.7,0.6-3.4,1.7
		c-0.7,1.1-1.1,3-1.1,5.6v10.5h-2.2v-20.1h1.8l0.4,2.7h0.1c0.5-1,1.1-1.8,1.9-2.3c0.8-0.5,1.8-0.8,2.8-0.8c1.8,0,3.1,0.6,4,1.7
		c0.9,1.2,1.4,3,1.4,5.6v13.1H413.5z"/>
	<path class="st2" d="M440.3,667.6c0,3.3-0.6,5.8-1.8,7.7c-1.2,1.8-2.9,2.8-5,2.8c-1.3,0-2.5-0.4-3.5-1.3c-1-0.8-1.8-2.1-2.4-3.6
		c-0.6-1.6-0.8-3.4-0.8-5.5c0-3.3,0.6-5.8,1.8-7.6c1.2-1.8,2.9-2.7,5-2.7c2.1,0,3.7,0.9,4.9,2.8
		C439.7,661.9,440.3,664.4,440.3,667.6z M429,667.6c0,2.6,0.4,4.5,1.1,5.9c0.8,1.3,1.9,2,3.3,2c1.5,0,2.6-0.7,3.3-2
		c0.8-1.3,1.1-3.3,1.1-5.9c0-2.6-0.4-4.5-1.1-5.8c-0.8-1.3-1.9-2-3.4-2c-1.5,0-2.6,0.7-3.3,2C429.4,663.1,429,665,429,667.6z"/>
	<path class="st2" d="M450.9,660h-3.8v17.7h-2.2V660h-2.6v-1.4l2.6-1.1v-1.1c0-4.9,1.6-7.4,4.8-7.4c0.8,0,1.7,0.2,2.8,0.6l-0.6,2.4
		c-0.9-0.4-1.6-0.6-2.2-0.6c-0.8,0-1.5,0.4-1.9,1.1c-0.4,0.8-0.6,2-0.6,3.7v1.3h3.8V660z"/>
	<path class="st2" d="M465.6,675.5c0.4,0,0.8,0,1.1-0.1c0.4-0.1,0.7-0.2,0.9-0.2v2.3c-0.2,0.2-0.6,0.3-1.1,0.4
		c-0.5,0.1-0.9,0.2-1.3,0.2c-2.9,0-4.3-2-4.3-6.1V660h-2.1v-1.5l2.1-1.3l0.9-4.3h1.3v4.7h4.3v2.4h-4.3v11.8c0,1.2,0.2,2.1,0.6,2.8
		C464.3,675.2,464.9,675.5,465.6,675.5z"/>
	<path class="st2" d="M480.7,677.7v-13c0-1.6-0.3-2.9-0.8-3.7c-0.5-0.8-1.4-1.2-2.6-1.2c-1.6,0-2.7,0.6-3.4,1.7
		c-0.7,1.1-1.1,3-1.1,5.6v10.5h-2.2v-28.5h2.2v8.6c0,1,0,1.9-0.1,2.6h0.1c0.4-1,1.1-1.7,1.9-2.3c0.8-0.6,1.7-0.8,2.8-0.8
		c1.8,0,3.2,0.6,4.1,1.7c0.9,1.2,1.4,3,1.4,5.6v13.1H480.7z"/>
	<path class="st2" d="M493.9,678c-2.2,0-3.9-0.9-5.2-2.7c-1.3-1.8-1.9-4.3-1.9-7.5c0-3.2,0.6-5.8,1.8-7.7s2.8-2.9,4.7-2.9
		c1.9,0,3.3,0.8,4.4,2.5s1.6,3.8,1.6,6.5v1.9h-10.2c0,2.4,0.5,4.1,1.3,5.4s2,1.8,3.5,1.8c1.6,0,3.2-0.5,4.7-1.4v2.7
		c-0.8,0.5-1.5,0.8-2.3,1C495.7,677.9,494.9,678,493.9,678z M493.2,659.8c-1.2,0-2.1,0.5-2.8,1.6c-0.7,1-1.1,2.5-1.3,4.4h7.7
		c0-1.9-0.3-3.4-0.9-4.4S494.4,659.8,493.2,659.8z"/>
	<path class="st2" d="M510.1,652.2c0-0.7,0.1-1.2,0.4-1.5s0.6-0.5,0.9-0.5c0.4,0,0.7,0.2,0.9,0.5c0.3,0.3,0.4,0.8,0.4,1.5
		s-0.1,1.2-0.4,1.5c-0.3,0.3-0.6,0.5-0.9,0.5c-0.4,0-0.7-0.2-0.9-0.5S510.1,652.9,510.1,652.2z M512.6,677.7h-2.2v-20.1h2.2V677.7z"
		/>
	<path class="st2" d="M536.2,677.7v-13.1c0-1.6-0.3-2.8-0.8-3.6s-1.3-1.2-2.4-1.2c-1.4,0-2.4,0.5-3.1,1.6c-0.7,1.1-1,2.8-1,5v11.2
		h-2.2v-13.1c0-1.6-0.3-2.8-0.8-3.6s-1.3-1.2-2.4-1.2c-1.4,0-2.4,0.6-3.1,1.7c-0.7,1.1-1,3-1,5.6v10.5h-2.2v-20.1h1.8l0.4,2.7h0.1
		c0.4-1,1-1.7,1.8-2.3c0.8-0.5,1.6-0.8,2.6-0.8c2.3,0,3.8,1.1,4.5,3.4h0.1c0.4-1,1.1-1.9,1.9-2.5c0.8-0.6,1.8-0.9,2.9-0.9
		c1.7,0,2.9,0.6,3.8,1.7c0.8,1.2,1.3,3,1.3,5.6v13.1H536.2z"/>
	<path class="st2" d="M550,678c-1,0-1.8-0.2-2.6-0.7c-0.8-0.5-1.5-1.2-2-2.2h-0.2c0.1,1.2,0.2,2.3,0.2,3.3v8.3h-2.2v-29.1h1.8
		l0.3,2.7h0.1c0.6-1.1,1.2-1.9,2-2.4s1.6-0.7,2.6-0.7c2,0,3.5,0.9,4.5,2.7c1.1,1.8,1.6,4.4,1.6,7.7c0,3.3-0.5,5.9-1.6,7.7
		C553.4,677.1,551.9,678,550,678z M549.6,659.8c-1.5,0-2.6,0.6-3.3,1.7c-0.7,1.1-1,2.9-1,5.4v0.7c0,2.8,0.3,4.8,1,6.1
		c0.7,1.2,1.8,1.8,3.3,1.8c1.3,0,2.3-0.7,3-2.1c0.7-1.4,1.1-3.3,1.1-5.8c0-2.5-0.4-4.4-1.1-5.8S551,659.8,549.6,659.8z"/>
	<path class="st2" d="M569.1,677.7l-0.4-2.9h-0.1c-0.7,1.3-1.5,2.1-2.2,2.6c-0.7,0.4-1.7,0.7-2.8,0.7c-1.5,0-2.6-0.5-3.5-1.5
		c-0.8-1-1.2-2.5-1.2-4.4c0-4.1,2.4-6.2,7.2-6.4l2.5-0.1v-1.2c0-1.6-0.3-2.7-0.8-3.5c-0.5-0.8-1.3-1.1-2.4-1.1
		c-1.2,0-2.6,0.5-4.2,1.5l-0.7-2.3c0.7-0.5,1.5-1,2.4-1.3c0.9-0.3,1.7-0.5,2.6-0.5c1.8,0,3.1,0.5,3.9,1.6c0.9,1.1,1.3,2.8,1.3,5.1
		v13.7H569.1z M564.1,675.5c1.4,0,2.5-0.5,3.3-1.6c0.8-1,1.2-2.5,1.2-4.4v-1.8l-2.2,0.1c-1.8,0.1-3.1,0.5-3.9,1.1
		c-0.8,0.7-1.2,1.7-1.2,3.1c0,1.1,0.2,1.9,0.7,2.5C562.5,675.2,563.2,675.5,564.1,675.5z"/>
	<path class="st2" d="M581.4,678c-2.1,0-3.8-0.9-5-2.7s-1.8-4.3-1.8-7.6c0-3.4,0.6-6,1.8-7.8c1.2-1.8,2.9-2.7,5.1-2.7
		c0.7,0,1.4,0.1,2.1,0.3c0.7,0.2,1.3,0.5,1.7,0.7l-0.7,2.6c-0.5-0.3-1-0.5-1.6-0.7s-1.1-0.3-1.6-0.3c-3,0-4.5,2.6-4.5,7.8
		c0,2.5,0.4,4.4,1.1,5.7c0.7,1.3,1.8,2,3.3,2c1.2,0,2.5-0.4,3.8-1.1v2.7C584.1,677.7,582.9,678,581.4,678z"/>
	<path class="st2" d="M593.4,675.5c0.4,0,0.8,0,1.1-0.1c0.4-0.1,0.7-0.2,0.9-0.2v2.3c-0.2,0.2-0.6,0.3-1.1,0.4
		c-0.5,0.1-0.9,0.2-1.3,0.2c-2.9,0-4.3-2-4.3-6.1V660h-2.1v-1.5l2.1-1.3l0.9-4.3h1.3v4.7h4.3v2.4H591v11.8c0,1.2,0.2,2.1,0.6,2.8
		C592.1,675.2,592.7,675.5,593.4,675.5z"/>
	<path class="st2" d="M618.4,667.6c0,3.3-0.6,5.8-1.8,7.7c-1.2,1.8-2.9,2.8-5,2.8c-1.3,0-2.5-0.4-3.5-1.3c-1-0.8-1.8-2.1-2.4-3.6
		c-0.6-1.6-0.8-3.4-0.8-5.5c0-3.3,0.6-5.8,1.8-7.6c1.2-1.8,2.9-2.7,5-2.7c2.1,0,3.7,0.9,4.9,2.8
		C617.8,661.9,618.4,664.4,618.4,667.6z M607.1,667.6c0,2.6,0.4,4.5,1.1,5.9c0.8,1.3,1.9,2,3.3,2c1.5,0,2.6-0.7,3.3-2
		c0.8-1.3,1.1-3.3,1.1-5.9c0-2.6-0.4-4.5-1.1-5.8c-0.8-1.3-1.9-2-3.4-2c-1.5,0-2.6,0.7-3.3,2C607.5,663.1,607.1,665,607.1,667.6z"/>
	<path class="st2" d="M629,660h-3.8v17.7H623V660h-2.6v-1.4l2.6-1.1v-1.1c0-4.9,1.6-7.4,4.8-7.4c0.8,0,1.7,0.2,2.8,0.6l-0.6,2.4
		c-0.9-0.4-1.6-0.6-2.2-0.6c-0.8,0-1.5,0.4-1.9,1.1c-0.4,0.8-0.6,2-0.6,3.7v1.3h3.8V660z"/>
	<path class="st2" d="M645.8,678c-1,0-1.8-0.2-2.6-0.7c-0.8-0.5-1.5-1.2-2-2.2H641c0.1,1.2,0.2,2.3,0.2,3.3v8.3h-2.2v-29.1h1.8
		l0.3,2.7h0.1c0.6-1.1,1.2-1.9,2-2.4s1.6-0.7,2.6-0.7c2,0,3.5,0.9,4.5,2.7c1.1,1.8,1.6,4.4,1.6,7.7c0,3.3-0.5,5.9-1.6,7.7
		C649.2,677.1,647.7,678,645.8,678z M645.4,659.8c-1.5,0-2.6,0.6-3.3,1.7c-0.7,1.1-1,2.9-1,5.4v0.7c0,2.8,0.3,4.8,1,6.1
		c0.7,1.2,1.8,1.8,3.3,1.8c1.3,0,2.3-0.7,3-2.1c0.7-1.4,1.1-3.3,1.1-5.8c0-2.5-0.4-4.4-1.1-5.8S646.8,659.8,645.4,659.8z"/>
	<path class="st2" d="M662.6,657.2c0.7,0,1.2,0.1,1.8,0.2l-0.3,2.8c-0.6-0.2-1.2-0.3-1.6-0.3c-1.2,0-2.2,0.7-3.1,2s-1.3,3-1.3,4.9
		v10.8h-2.2v-20.1h1.9l0.3,3.7h0.1c0.5-1.3,1.2-2.3,2-3C660.8,657.6,661.7,657.2,662.6,657.2z"/>
	<path class="st2" d="M673.4,678c-2.2,0-3.9-0.9-5.2-2.7c-1.3-1.8-1.9-4.3-1.9-7.5c0-3.2,0.6-5.8,1.8-7.7s2.8-2.9,4.7-2.9
		c1.9,0,3.3,0.8,4.4,2.5s1.6,3.8,1.6,6.5v1.9h-10.2c0,2.4,0.5,4.1,1.3,5.4s2,1.8,3.5,1.8c1.6,0,3.2-0.5,4.7-1.4v2.7
		c-0.8,0.5-1.5,0.8-2.3,1C675.3,677.9,674.4,678,673.4,678z M672.8,659.8c-1.2,0-2.1,0.5-2.8,1.6c-0.7,1-1.1,2.5-1.3,4.4h7.7
		c0-1.9-0.3-3.4-0.9-4.4S674,659.8,672.8,659.8z"/>
	<path class="st2" d="M689.4,660h-3.8v17.7h-2.2V660h-2.6v-1.4l2.6-1.1v-1.1c0-4.9,1.6-7.4,4.8-7.4c0.8,0,1.7,0.2,2.8,0.6l-0.6,2.4
		c-0.9-0.4-1.6-0.6-2.2-0.6c-0.8,0-1.5,0.4-1.9,1.1c-0.4,0.8-0.6,2-0.6,3.7v1.3h3.8V660z"/>
	<path class="st2" d="M698.3,678c-2.2,0-3.9-0.9-5.2-2.7c-1.3-1.8-1.9-4.3-1.9-7.5c0-3.2,0.6-5.8,1.8-7.7s2.8-2.9,4.7-2.9
		c1.9,0,3.3,0.8,4.4,2.5s1.6,3.8,1.6,6.5v1.9h-10.2c0,2.4,0.5,4.1,1.3,5.4s2,1.8,3.5,1.8c1.6,0,3.2-0.5,4.7-1.4v2.7
		c-0.8,0.5-1.5,0.8-2.3,1C700.2,677.9,699.3,678,698.3,678z M697.7,659.8c-1.2,0-2.1,0.5-2.8,1.6c-0.7,1-1.1,2.5-1.3,4.4h7.7
		c0-1.9-0.3-3.4-0.9-4.4S698.9,659.8,697.7,659.8z"/>
	<path class="st2" d="M714.4,657.2c0.7,0,1.2,0.1,1.8,0.2l-0.3,2.8c-0.6-0.2-1.2-0.3-1.6-0.3c-1.2,0-2.2,0.7-3.1,2s-1.3,3-1.3,4.9
		v10.8h-2.2v-20.1h1.9l0.3,3.7h0.1c0.5-1.3,1.2-2.3,2-3C712.6,657.6,713.4,657.2,714.4,657.2z"/>
	<path class="st2" d="M725.2,678c-2.2,0-3.9-0.9-5.2-2.7c-1.3-1.8-1.9-4.3-1.9-7.5c0-3.2,0.6-5.8,1.8-7.7s2.8-2.9,4.7-2.9
		c1.9,0,3.3,0.8,4.4,2.5s1.6,3.8,1.6,6.5v1.9h-10.2c0,2.4,0.5,4.1,1.3,5.4s2,1.8,3.5,1.8c1.6,0,3.2-0.5,4.7-1.4v2.7
		c-0.8,0.5-1.5,0.8-2.3,1C727,677.9,726.2,678,725.2,678z M724.5,659.8c-1.2,0-2.1,0.5-2.8,1.6c-0.7,1-1.1,2.5-1.3,4.4h7.7
		c0-1.9-0.3-3.4-0.9-4.4S725.7,659.8,724.5,659.8z"/>
	<path class="st2" d="M744.6,677.7v-13c0-1.6-0.3-2.9-0.8-3.7c-0.5-0.8-1.4-1.2-2.6-1.2c-1.6,0-2.7,0.6-3.4,1.7
		c-0.7,1.1-1.1,3-1.1,5.6v10.5h-2.2v-20.1h1.8l0.4,2.7h0.1c0.5-1,1.1-1.8,1.9-2.3c0.8-0.5,1.8-0.8,2.8-0.8c1.8,0,3.1,0.6,4,1.7
		c0.9,1.2,1.4,3,1.4,5.6v13.1H744.6z"/>
	<path class="st2" d="M757.3,678c-2.1,0-3.8-0.9-5-2.7s-1.8-4.3-1.8-7.6c0-3.4,0.6-6,1.8-7.8c1.2-1.8,2.9-2.7,5.1-2.7
		c0.7,0,1.4,0.1,2.1,0.3c0.7,0.2,1.3,0.5,1.7,0.7l-0.7,2.6c-0.5-0.3-1-0.5-1.6-0.7s-1.1-0.3-1.6-0.3c-3,0-4.5,2.6-4.5,7.8
		c0,2.5,0.4,4.4,1.1,5.7c0.7,1.3,1.8,2,3.3,2c1.2,0,2.5-0.4,3.8-1.1v2.7C760.1,677.7,758.8,678,757.3,678z"/>
	<path class="st2" d="M770.9,678c-2.2,0-3.9-0.9-5.2-2.7c-1.3-1.8-1.9-4.3-1.9-7.5c0-3.2,0.6-5.8,1.8-7.7s2.8-2.9,4.7-2.9
		c1.9,0,3.3,0.8,4.4,2.5s1.6,3.8,1.6,6.5v1.9h-10.2c0,2.4,0.5,4.1,1.3,5.4s2,1.8,3.5,1.8c1.6,0,3.2-0.5,4.7-1.4v2.7
		c-0.8,0.5-1.5,0.8-2.3,1C772.7,677.9,771.9,678,770.9,678z M770.3,659.8c-1.2,0-2.1,0.5-2.8,1.6c-0.7,1-1.1,2.5-1.3,4.4h7.7
		c0-1.9-0.3-3.4-0.9-4.4S771.4,659.8,770.3,659.8z"/>
	<path class="st2" d="M789.7,672.2c0,1.9-0.5,3.3-1.5,4.3c-1,1-2.5,1.5-4.3,1.5c-2,0-3.5-0.4-4.6-1.3V674c0.7,0.5,1.5,0.9,2.3,1.2
		c0.8,0.3,1.6,0.4,2.4,0.4c1.2,0,2.1-0.3,2.7-0.8c0.6-0.5,0.9-1.3,0.9-2.3c0-0.8-0.2-1.4-0.8-2c-0.5-0.6-1.5-1.2-2.9-2
		c-1.4-0.7-2.4-1.3-2.9-1.8c-0.6-0.5-1-1.1-1.3-1.8c-0.3-0.7-0.4-1.4-0.4-2.4c0-1.6,0.5-2.9,1.5-3.9c1-0.9,2.3-1.4,4-1.4
		c1.6,0,3.2,0.4,4.7,1.3l-0.8,2.5c-1.5-0.8-2.8-1.2-4-1.2c-1.1,0-1.9,0.2-2.4,0.7c-0.5,0.5-0.8,1.1-0.8,1.9c0,0.5,0.1,1,0.3,1.4
		c0.2,0.4,0.5,0.7,1,1.1s1.3,0.8,2.6,1.5c1.8,0.9,2.9,1.7,3.6,2.6S789.7,670.9,789.7,672.2z"/>
</g>
<g class="st1">
	<path class="st2" d="M102.9,712.6c0,3.3-0.6,5.8-1.8,7.7c-1.2,1.8-2.9,2.8-5,2.8c-1.3,0-2.5-0.4-3.5-1.3c-1-0.8-1.8-2.1-2.4-3.6
		c-0.6-1.6-0.8-3.4-0.8-5.5c0-3.3,0.6-5.8,1.8-7.6c1.2-1.8,2.9-2.7,5-2.7c2.1,0,3.7,0.9,4.9,2.8
		C102.3,706.9,102.9,709.4,102.9,712.6z M91.6,712.6c0,2.6,0.4,4.5,1.1,5.9c0.8,1.3,1.9,2,3.3,2c1.5,0,2.6-0.7,3.3-2
		c0.8-1.3,1.1-3.3,1.1-5.9c0-2.6-0.4-4.5-1.1-5.8c-0.8-1.3-1.9-2-3.4-2c-1.5,0-2.6,0.7-3.3,2C91.9,708.1,91.6,710,91.6,712.6z"/>
	<path class="st2" d="M116.9,722.7v-13c0-1.6-0.3-2.9-0.8-3.7c-0.5-0.8-1.4-1.2-2.6-1.2c-1.6,0-2.7,0.6-3.4,1.7
		c-0.7,1.1-1.1,3-1.1,5.6v10.5h-2.2v-20.1h1.8l0.4,2.7h0.1c0.5-1,1.1-1.8,1.9-2.3c0.8-0.5,1.8-0.8,2.8-0.8c1.8,0,3.1,0.6,4,1.7
		c0.9,1.2,1.4,3,1.4,5.6v13.1H116.9z"/>
	<path class="st2" d="M135.8,720.5c0.4,0,0.8,0,1.1-0.1c0.4-0.1,0.7-0.2,0.9-0.2v2.3c-0.2,0.2-0.6,0.3-1.1,0.4
		c-0.5,0.1-0.9,0.2-1.3,0.2c-2.9,0-4.3-2-4.3-6.1V705H129v-1.5l2.1-1.3l0.9-4.3h1.3v4.7h4.3v2.4h-4.3v11.8c0,1.2,0.2,2.1,0.6,2.8
		C134.4,720.2,135,720.5,135.8,720.5z"/>
	<path class="st2" d="M150.9,722.7v-13c0-1.6-0.3-2.9-0.8-3.7c-0.5-0.8-1.4-1.2-2.6-1.2c-1.6,0-2.7,0.6-3.4,1.7
		c-0.7,1.1-1.1,3-1.1,5.6v10.5h-2.2v-28.5h2.2v8.6c0,1,0,1.9-0.1,2.6h0.1c0.4-1,1.1-1.7,1.9-2.3c0.8-0.6,1.7-0.8,2.8-0.8
		c1.8,0,3.2,0.6,4.1,1.7c0.9,1.2,1.4,3,1.4,5.6v13.1H150.9z"/>
	<path class="st2" d="M164,723c-2.2,0-3.9-0.9-5.2-2.7c-1.3-1.8-1.9-4.3-1.9-7.5c0-3.2,0.6-5.8,1.8-7.7s2.8-2.9,4.7-2.9
		c1.9,0,3.3,0.8,4.4,2.5s1.6,3.8,1.6,6.5v1.9h-10.2c0,2.4,0.5,4.1,1.3,5.4s2,1.8,3.5,1.8c1.6,0,3.2-0.5,4.7-1.4v2.7
		c-0.8,0.5-1.5,0.8-2.3,1C165.9,722.9,165,723,164,723z M163.4,704.8c-1.2,0-2.1,0.5-2.8,1.6c-0.7,1-1.1,2.5-1.3,4.4h7.7
		c0-1.9-0.3-3.4-0.9-4.4S164.6,704.8,163.4,704.8z"/>
	<path class="st2" d="M173.1,697.2c0-0.7,0.1-1.2,0.4-1.5s0.6-0.5,0.9-0.5c0.4,0,0.7,0.2,0.9,0.5c0.3,0.3,0.4,0.8,0.4,1.5
		s-0.1,1.2-0.4,1.5c-0.3,0.3-0.6,0.5-0.9,0.5c-0.4,0-0.7-0.2-0.9-0.5S173.1,697.9,173.1,697.2z M175.5,722.7h-2.2v-20.1h2.2V722.7z"
		/>
	<path class="st2" d="M187,702.2c0.7,0,1.2,0.1,1.8,0.2l-0.3,2.8c-0.6-0.2-1.2-0.3-1.6-0.3c-1.2,0-2.2,0.7-3.1,2s-1.3,3-1.3,4.9
		v10.8h-2.2v-20.1h1.9l0.3,3.7h0.1c0.5-1.3,1.2-2.3,2-3C185.3,702.6,186.1,702.2,187,702.2z"/>
	<path class="st2" d="M205.7,723c-1,0-1.8-0.2-2.6-0.7c-0.8-0.5-1.5-1.2-2-2.2h-0.2c0.1,1.2,0.2,2.3,0.2,3.3v8.3h-2.2v-29.1h1.8
		l0.3,2.7h0.1c0.6-1.1,1.2-1.9,2-2.4s1.6-0.7,2.6-0.7c2,0,3.5,0.9,4.5,2.7c1.1,1.8,1.6,4.4,1.6,7.7c0,3.3-0.5,5.9-1.6,7.7
		C209.1,722.1,207.6,723,205.7,723z M205.3,704.8c-1.5,0-2.6,0.6-3.3,1.7c-0.7,1.1-1,2.9-1,5.4v0.7c0,2.8,0.3,4.8,1,6.1
		c0.7,1.2,1.8,1.8,3.3,1.8c1.3,0,2.3-0.7,3-2.1c0.7-1.4,1.1-3.3,1.1-5.8c0-2.5-0.4-4.4-1.1-5.8S206.7,704.8,205.3,704.8z"/>
	<path class="st2" d="M228.5,712.6c0,3.3-0.6,5.8-1.8,7.7c-1.2,1.8-2.9,2.8-5,2.8c-1.3,0-2.5-0.4-3.5-1.3c-1-0.8-1.8-2.1-2.4-3.6
		c-0.6-1.6-0.8-3.4-0.8-5.5c0-3.3,0.6-5.8,1.8-7.6c1.2-1.8,2.9-2.7,5-2.7c2.1,0,3.7,0.9,4.9,2.8
		C227.9,706.9,228.5,709.4,228.5,712.6z M217.2,712.6c0,2.6,0.4,4.5,1.1,5.9c0.8,1.3,1.9,2,3.3,2c1.5,0,2.6-0.7,3.3-2
		c0.8-1.3,1.1-3.3,1.1-5.9c0-2.6-0.4-4.5-1.1-5.8c-0.8-1.3-1.9-2-3.4-2c-1.5,0-2.6,0.7-3.3,2C217.6,708.1,217.2,710,217.2,712.6z"/>
	<path class="st2" d="M245.3,712.6c0,3.3-0.6,5.8-1.8,7.7c-1.2,1.8-2.9,2.8-5,2.8c-1.3,0-2.5-0.4-3.5-1.3c-1-0.8-1.8-2.1-2.4-3.6
		c-0.6-1.6-0.8-3.4-0.8-5.5c0-3.3,0.6-5.8,1.8-7.6c1.2-1.8,2.9-2.7,5-2.7c2.1,0,3.7,0.9,4.9,2.8
		C244.6,706.9,245.3,709.4,245.3,712.6z M234,712.6c0,2.6,0.4,4.5,1.1,5.9c0.8,1.3,1.9,2,3.3,2c1.5,0,2.6-0.7,3.3-2
		c0.8-1.3,1.1-3.3,1.1-5.9c0-2.6-0.4-4.5-1.1-5.8c-0.8-1.3-1.9-2-3.4-2c-1.5,0-2.6,0.7-3.3,2C234.3,708.1,234,710,234,712.6z"/>
	<path class="st2" d="M251.4,722.7h-2.2v-28.5h2.2V722.7z"/>
	<path class="st2" d="M276.2,712.6c0,3.3-0.6,5.8-1.8,7.7c-1.2,1.8-2.9,2.8-5,2.8c-1.3,0-2.5-0.4-3.5-1.3c-1-0.8-1.8-2.1-2.4-3.6
		c-0.6-1.6-0.8-3.4-0.8-5.5c0-3.3,0.6-5.8,1.8-7.6c1.2-1.8,2.9-2.7,5-2.7c2.1,0,3.7,0.9,4.9,2.8
		C275.6,706.9,276.2,709.4,276.2,712.6z M264.9,712.6c0,2.6,0.4,4.5,1.1,5.9c0.8,1.3,1.9,2,3.3,2c1.5,0,2.6-0.7,3.3-2
		c0.8-1.3,1.1-3.3,1.1-5.9c0-2.6-0.4-4.5-1.1-5.8c-0.8-1.3-1.9-2-3.4-2c-1.5,0-2.6,0.7-3.3,2C265.3,708.1,264.9,710,264.9,712.6z"/>
	<path class="st2" d="M286.8,705H283v17.7h-2.2V705h-2.6v-1.4l2.6-1.1v-1.1c0-4.9,1.6-7.4,4.8-7.4c0.8,0,1.7,0.2,2.8,0.6l-0.6,2.4
		c-0.9-0.4-1.6-0.6-2.2-0.6c-0.8,0-1.5,0.4-1.9,1.1c-0.4,0.8-0.6,2-0.6,3.7v1.3h3.8V705z"/>
	<path class="st2" d="M303.6,723c-1,0-1.8-0.2-2.6-0.7c-0.8-0.5-1.5-1.2-2-2.2h-0.2c0.1,1.2,0.2,2.3,0.2,3.3v8.3h-2.2v-29.1h1.8
		l0.3,2.7h0.1c0.6-1.1,1.2-1.9,2-2.4s1.6-0.7,2.6-0.7c2,0,3.5,0.9,4.5,2.7c1.1,1.8,1.6,4.4,1.6,7.7c0,3.3-0.5,5.9-1.6,7.7
		C307,722.1,305.5,723,303.6,723z M303.3,704.8c-1.5,0-2.6,0.6-3.3,1.7c-0.7,1.1-1,2.9-1,5.4v0.7c0,2.8,0.3,4.8,1,6.1
		c0.7,1.2,1.8,1.8,3.3,1.8c1.3,0,2.3-0.7,3-2.1c0.7-1.4,1.1-3.3,1.1-5.8c0-2.5-0.4-4.4-1.1-5.8S304.6,704.8,303.3,704.8z"/>
	<path class="st2" d="M326.4,712.6c0,3.3-0.6,5.8-1.8,7.7c-1.2,1.8-2.9,2.8-5,2.8c-1.3,0-2.5-0.4-3.5-1.3c-1-0.8-1.8-2.1-2.4-3.6
		c-0.6-1.6-0.8-3.4-0.8-5.5c0-3.3,0.6-5.8,1.8-7.6c1.2-1.8,2.9-2.7,5-2.7c2.1,0,3.7,0.9,4.9,2.8
		C325.8,706.9,326.4,709.4,326.4,712.6z M315.1,712.6c0,2.6,0.4,4.5,1.1,5.9c0.8,1.3,1.9,2,3.3,2c1.5,0,2.6-0.7,3.3-2
		c0.8-1.3,1.1-3.3,1.1-5.9c0-2.6-0.4-4.5-1.1-5.8c-0.8-1.3-1.9-2-3.4-2c-1.5,0-2.6,0.7-3.3,2C315.5,708.1,315.1,710,315.1,712.6z"/>
	<path class="st2" d="M335.2,720.5c0.4,0,0.8,0,1.1-0.1c0.4-0.1,0.7-0.2,0.9-0.2v2.3c-0.2,0.2-0.6,0.3-1.1,0.4
		c-0.5,0.1-0.9,0.2-1.3,0.2c-2.9,0-4.3-2-4.3-6.1V705h-2.1v-1.5l2.1-1.3l0.9-4.3h1.3v4.7h4.3v2.4h-4.3v11.8c0,1.2,0.2,2.1,0.6,2.8
		C333.8,720.2,334.4,720.5,335.2,720.5z"/>
	<path class="st2" d="M346.4,723c-2.2,0-3.9-0.9-5.2-2.7c-1.3-1.8-1.9-4.3-1.9-7.5c0-3.2,0.6-5.8,1.8-7.7s2.8-2.9,4.7-2.9
		c1.9,0,3.3,0.8,4.4,2.5s1.6,3.8,1.6,6.5v1.9h-10.2c0,2.4,0.5,4.1,1.3,5.4s2,1.8,3.5,1.8c1.6,0,3.2-0.5,4.7-1.4v2.7
		c-0.8,0.5-1.5,0.8-2.3,1C348.3,722.9,347.4,723,346.4,723z M345.8,704.8c-1.2,0-2.1,0.5-2.8,1.6c-0.7,1-1.1,2.5-1.3,4.4h7.7
		c0-1.9-0.3-3.4-0.9-4.4S347,704.8,345.8,704.8z"/>
	<path class="st2" d="M365.8,722.7v-13c0-1.6-0.3-2.9-0.8-3.7c-0.5-0.8-1.4-1.2-2.6-1.2c-1.6,0-2.7,0.6-3.4,1.7
		c-0.7,1.1-1.1,3-1.1,5.6v10.5h-2.2v-20.1h1.8l0.4,2.7h0.1c0.5-1,1.1-1.8,1.9-2.3c0.8-0.5,1.8-0.8,2.8-0.8c1.8,0,3.1,0.6,4,1.7
		c0.9,1.2,1.4,3,1.4,5.6v13.1H365.8z"/>
	<path class="st2" d="M377.5,720.5c0.4,0,0.8,0,1.1-0.1c0.4-0.1,0.7-0.2,0.9-0.2v2.3c-0.2,0.2-0.6,0.3-1.1,0.4
		c-0.5,0.1-0.9,0.2-1.3,0.2c-2.9,0-4.3-2-4.3-6.1V705h-2.1v-1.5l2.1-1.3l0.9-4.3h1.3v4.7h4.3v2.4h-4.3v11.8c0,1.2,0.2,2.1,0.6,2.8
		C376.1,720.2,376.7,720.5,377.5,720.5z"/>
	<path class="st2" d="M382.3,697.2c0-0.7,0.1-1.2,0.4-1.5s0.6-0.5,0.9-0.5c0.4,0,0.7,0.2,0.9,0.5c0.3,0.3,0.4,0.8,0.4,1.5
		s-0.1,1.2-0.4,1.5c-0.3,0.3-0.6,0.5-0.9,0.5c-0.4,0-0.7-0.2-0.9-0.5S382.3,697.9,382.3,697.2z M384.7,722.7h-2.2v-20.1h2.2V722.7z"
		/>
	<path class="st2" d="M398.6,722.7l-0.4-2.9H398c-0.7,1.3-1.5,2.1-2.2,2.6c-0.7,0.4-1.7,0.7-2.8,0.7c-1.5,0-2.6-0.5-3.5-1.5
		c-0.8-1-1.2-2.5-1.2-4.4c0-4.1,2.4-6.2,7.2-6.4l2.5-0.1v-1.2c0-1.6-0.3-2.7-0.8-3.5c-0.5-0.8-1.3-1.1-2.4-1.1
		c-1.2,0-2.6,0.5-4.2,1.5L390,704c0.7-0.5,1.5-1,2.4-1.3c0.9-0.3,1.7-0.5,2.6-0.5c1.8,0,3.1,0.5,3.9,1.6c0.9,1.1,1.3,2.8,1.3,5.1
		v13.7H398.6z M393.5,720.5c1.4,0,2.5-0.5,3.3-1.6c0.8-1,1.2-2.5,1.2-4.4v-1.8l-2.2,0.1c-1.8,0.1-3.1,0.5-3.9,1.1
		c-0.8,0.7-1.2,1.7-1.2,3.1c0,1.1,0.2,1.9,0.7,2.5C391.9,720.2,392.6,720.5,393.5,720.5z"/>
	<path class="st2" d="M407.1,722.7h-2.2v-28.5h2.2V722.7z"/>
	<path class="st2" d="M429.1,720H429c-1,2-2.6,3.1-4.7,3.1c-1.9,0-3.4-0.9-4.5-2.7c-1.1-1.8-1.6-4.3-1.6-7.7c0-3.3,0.5-5.9,1.6-7.7
		c1.1-1.8,2.6-2.7,4.5-2.7c2,0,3.6,1,4.6,3h0.2l-0.1-1.4l-0.1-1.4v-8.2h2.2v28.5h-1.8L429.1,720z M424.6,720.5
		c1.5,0,2.6-0.6,3.3-1.7c0.7-1.1,1-3,1-5.5v-0.6c0-2.8-0.3-4.9-1-6.1c-0.7-1.2-1.8-1.8-3.3-1.8c-1.3,0-2.3,0.7-3,2.1
		c-0.7,1.4-1,3.3-1,5.9c0,2.6,0.3,4.5,1,5.8C422.3,719.8,423.3,720.5,424.6,720.5z"/>
	<path class="st2" d="M445.1,722.7l-0.4-2.9h-0.1c-0.7,1.3-1.5,2.1-2.2,2.6c-0.7,0.4-1.7,0.7-2.8,0.7c-1.5,0-2.6-0.5-3.5-1.5
		c-0.8-1-1.2-2.5-1.2-4.4c0-4.1,2.4-6.2,7.2-6.4l2.5-0.1v-1.2c0-1.6-0.3-2.7-0.8-3.5c-0.5-0.8-1.3-1.1-2.4-1.1
		c-1.2,0-2.6,0.5-4.2,1.5l-0.7-2.3c0.7-0.5,1.5-1,2.4-1.3c0.9-0.3,1.7-0.5,2.6-0.5c1.8,0,3.1,0.5,3.9,1.6c0.9,1.1,1.3,2.8,1.3,5.1
		v13.7H445.1z M440,720.5c1.4,0,2.5-0.5,3.3-1.6c0.8-1,1.2-2.5,1.2-4.4v-1.8l-2.2,0.1c-1.8,0.1-3.1,0.5-3.9,1.1
		c-0.8,0.7-1.2,1.7-1.2,3.1c0,1.1,0.2,1.9,0.7,2.5C438.5,720.2,439.2,720.5,440,720.5z"/>
	<path class="st2" d="M456.2,720.5c0.4,0,0.8,0,1.1-0.1c0.4-0.1,0.7-0.2,0.9-0.2v2.3c-0.2,0.2-0.6,0.3-1.1,0.4
		c-0.5,0.1-0.9,0.2-1.3,0.2c-2.9,0-4.3-2-4.3-6.1V705h-2.1v-1.5l2.1-1.3l0.9-4.3h1.3v4.7h4.3v2.4h-4.3v11.8c0,1.2,0.2,2.1,0.6,2.8
		C454.9,720.2,455.4,720.5,456.2,720.5z"/>
	<path class="st2" d="M467.4,723c-2.2,0-3.9-0.9-5.2-2.7c-1.3-1.8-1.9-4.3-1.9-7.5c0-3.2,0.6-5.8,1.8-7.7s2.8-2.9,4.7-2.9
		c1.9,0,3.3,0.8,4.4,2.5s1.6,3.8,1.6,6.5v1.9h-10.2c0,2.4,0.5,4.1,1.3,5.4s2,1.8,3.5,1.8c1.6,0,3.2-0.5,4.7-1.4v2.7
		c-0.8,0.5-1.5,0.8-2.3,1C469.3,722.9,468.4,723,467.4,723z M466.8,704.8c-1.2,0-2.1,0.5-2.8,1.6c-0.7,1-1.1,2.5-1.3,4.4h7.7
		c0-1.9-0.3-3.4-0.9-4.4S468,704.8,466.8,704.8z"/>
	<path class="st2" d="M486.3,717.2c0,1.9-0.5,3.3-1.5,4.3c-1,1-2.5,1.5-4.3,1.5c-2,0-3.5-0.4-4.6-1.3V719c0.7,0.5,1.5,0.9,2.3,1.2
		c0.8,0.3,1.6,0.4,2.4,0.4c1.2,0,2.1-0.3,2.7-0.8c0.6-0.5,0.9-1.3,0.9-2.3c0-0.8-0.2-1.4-0.8-2c-0.5-0.6-1.5-1.2-2.9-2
		c-1.4-0.7-2.4-1.3-2.9-1.8c-0.6-0.5-1-1.1-1.3-1.8c-0.3-0.7-0.4-1.4-0.4-2.4c0-1.6,0.5-2.9,1.5-3.9c1-0.9,2.3-1.4,4-1.4
		c1.6,0,3.2,0.4,4.7,1.3l-0.8,2.5c-1.5-0.8-2.8-1.2-4-1.2c-1.1,0-1.9,0.2-2.4,0.7c-0.5,0.5-0.8,1.1-0.8,1.9c0,0.5,0.1,1,0.3,1.4
		c0.2,0.4,0.5,0.7,1,1.1s1.3,0.8,2.6,1.5c1.8,0.9,2.9,1.7,3.6,2.6S486.3,715.9,486.3,717.2z"/>
	<path class="st2" d="M489.6,720.7c0-0.8,0.1-1.4,0.4-1.9c0.3-0.4,0.7-0.6,1.2-0.6c0.5,0,0.9,0.2,1.2,0.6c0.3,0.4,0.4,1,0.4,1.9
		c0,0.8-0.1,1.4-0.4,1.8c-0.3,0.4-0.7,0.6-1.2,0.6c-0.5,0-0.8-0.2-1.1-0.6C489.7,722.2,489.6,721.6,489.6,720.7z"/>
</g>
<g>
	<path class="st3" d="M1181.3,884.9c19,0,32.6,29.3,32.6,29.3c1,2.4,0,4.4-2.9,4.4l-58.5,0.5c-2.5,0-3.9-2-2.9-4.4
		C1149.5,915.2,1162.3,885.4,1181.3,884.9z"/>
	<path class="st4" d="M1199.3,770.3c-8.2-6.9-25.4-16.6-25.4-16.6c-1-0.5-2,0-2,1v16.1c-18,3.4-31.8,12.6-35.1,24.4
		c-6.4-9.8-23.9-16.6-23.9-16.6c-1-0.5-2,0-2,1v45.9c0,1,1,1.5,2,1c0,0,18.5-7.4,24.4-17.5c4.4,10.7,17.5,19,34.6,22.4v4.4
		c0,1,1,1.5,2,1c0,0,3.9-1.5,8.2-3.9c2,0,3.9,0,5.4,0c28.8,0,51.6-14.1,51.6-31.8C1239.8,785.9,1222.2,773.3,1199.3,770.3z
		 M1205.2,797.7c-6.4,0-11.2-4.4-11.2-9.8s4.9-9.8,11.2-9.8c6.4,0,11.2,4.4,11.2,9.8S1211.5,797.7,1205.2,797.7z"/>
	<g>
		<path class="st5" d="M1448.9,914.2"/>
	</g>
	<path class="st6" d="M1449.9,597.8c-15.1-15.6-32.1-29.2-51.1-40c-1.5-1-3.4-1.5-4.9-1.5h-49.3c1.5,6.9,0,13.6-3.4,19.5h49.8
		c16.6,9.7,31.2,21.9,44.4,35.6c2.4,2.5,4.9,5.4,7.3,7.8c-2.5,0.5-5.4,1.5-7.3,2c-7.7,2.4-15.1,4.9-30.2,4.9s-22.4-2.5-30.2-4.9
		c-8.2-2.5-16.6-4.9-33.1-4.9s-24.9,2.4-33.1,4.9c-7.7,2.4-15.1,4.9-30.2,4.9s-22.4-2.5-30.2-4.9c-8.2-2.5-16.6-4.9-33.1-4.9
		s-24.9,2.4-33.1,4.9c-7.8,2.4-15.1,4.9-30.2,4.9s-22.4-2.5-30.2-4.9c-2-0.5-3.9-1-5.9-2c2.4-2.9,4.9-5.9,7.8-8.2
		c13.1-13.6,28.2-25.9,44.4-35.6h44.4c-2-6.4-1-13.6,2-19.5h-48.8c-2,0-3.4,0.5-4.9,1.5c-18.5,10.8-36.1,24.4-51.1,40
		c-42.9,44.4-66.2,102.4-66.2,163.8c0,90.2,52.6,173.5,133.6,212.5c1.5,0.5,2.9,1,4.4,1c17.1,0,54.1,0,92.1,0c41,0,82.9,0,104.4,0
		c1.5,0,2.9-0.5,4.4-1c80.9-39,133.6-122.9,133.6-212.5C1516.2,700.2,1492.3,642.2,1449.9,597.8z M1376.3,956
		c-21.9,0-62.4,0-101.9,0c-36.5,0-72.1,0-90.1,0c-13.6-6.9-26.4-14.6-38-23.9c14.6-1.5,24.4-3.4,34.1-5.9
		c14.1-3.4,27.2-6.4,54.6-6.4c27.2,0,40.5,2.9,54.6,6.4c14.1,3.4,28.8,6.9,58,6.9c28.8,0,43.9-3.4,58-6.9c6.9-1.5,13.1-2.9,21-4.4
		C1410.9,935.2,1394.3,946.8,1376.3,956z M1441.5,905.4c-18,1-29.2,3.9-40,6.4c-14.1,3.4-27.2,6.4-54.6,6.4
		c-27.3,0-40.5-2.9-54.6-6.4c-14.1-3.4-28.8-6.9-58-6.9c-28.8,0-43.4,3.4-58,6.9c-12.6,2.9-24.4,5.9-46.2,6.4
		c-41.9-40.5-67.2-97-67.2-156.5c0-49.3,16.1-95.5,46.2-133.6c3.4,1,6.9,2,9.8,2.9c8.2,2.5,16.6,4.9,33.1,4.9s24.9-2.4,33.1-4.9
		c7.8-2.4,15.1-4.9,30.2-4.9s22.4,2.5,30.2,4.9c8.2,2.5,16.6,4.9,33.1,4.9c16.6,0,24.9-2.4,33.1-4.9c7.8-2.4,15.1-4.9,30.2-4.9
		s22.4,2.5,30.2,4.9c8.2,2.5,16.6,4.9,33.1,4.9s24.9-2.4,33.1-4.9c3.9-1,7.3-2.4,11.8-2.9c30.2,38,46.4,84.9,46.4,134.1
		C1496.7,815.2,1476.2,866.4,1441.5,905.4z"/>
	<g>
		<path class="st3" d="M1431.4,892.7c1,15.6-13.6,29.7-33.1,31.2l-52.6,3.9c0,0-7.8-12.2-9.2-28.2l0,0
			C1336.8,900,1394.8,895.7,1431.4,892.7L1431.4,892.7z"/>
	</g>
	<g>
		<path class="st3" d="M1392.4,888.8l-3.9-50.7l39,47.8L1392.4,888.8L1392.4,888.8z"/>
	</g>
	<g>
		<path class="st3" d="M1343.2,893.2l37.5-77l5.4,73.6L1343.2,893.2L1343.2,893.2z"/>
	</g>
	<g>
		<path d="M1084.5,453.4L1084.5,453.4"/>
	</g>
	<g>
		<path d="M1285.5,724"/>
	</g>
</g>
<path class="st3" d="M1204.2,408.2h8.8V550c-3.9,1.5-7.4,3.4-11.2,5.4c0,0,0,0,0,0.5c2.5,7.4,6.4,12.2,12.2,15.1
	c3.9,2.9,6.9,6.4,9.7,9.8h47.8c6.9,0,12.2-6.9,12.2-15.1c0-8.3-5.4-15.1-12.2-15.1h-34.1V510h34.1c6.9,0,12.2-6.9,12.2-15.1
	s-5.4-15.1-12.2-15.1h-34.1v-40.5h34.1c6.9,0,12.2-6.9,12.2-15.1c0-8.3-5.4-15.1-12.2-15.1h-34.1v-14.6c0-8.2-5.4-15.1-12.2-15.1
	h-21.5l0,0c-6.9,0-12.6-6.9-12.6-15.1s5.4-15.1,12.6-15.1H1351c6.9,0,12.6,6.9,12.6,15.1c0,8.3-5.4,15.1-12.6,15.1h-20
	c-6.9,0-12.3,6.9-12.3,15.1V563c0,6.9,3.4,12.6,8.8,14.6c1.5,0.5,2.9,1.5,4.9,2c9.2-10.2,21-16.6,33.6-15.6
	c-7.3-4.4-14.6-8.2-22.4-11.8v-144h7.2c20.5,0,37.5-20.5,37.5-45.9s-16.6-45.9-37.5-45.9h-146.5c-20.5,0-37.5,20.5-37.5,45.9
	C1166.7,387.7,1183.7,408.2,1204.2,408.2z"/>
<g transform="matrix(0.960564,0,0,0.960564,-1.58784,7.58658)">
	<path class="st7" d="M1405.7,179.4c14.6-15.6,32.1-9.8,38.5-1s2.5,20.5-9.8,29.2c-8.8,6.9-27.3,10.2-42.4,11.7
		c-10.7-10.2-23.4-24.4-26.4-35.1c-4.4-14.6-0.5-26.4,9.8-29.2C1386.2,152.1,1403.2,157.9,1405.7,179.4z"/>
</g>
<g transform="matrix(0.960564,0,0,0.960564,-1.58784,7.58658)">
	<path class="st7" d="M1311.6,258.4c4.4-19.5,22.4-24.4,33.1-21.5c10.8,2.9,13.6,13.6,7.3,26.8c-4.4,9.8-18.5,22.4-30.8,31.2
		c-15.1-1.5-33.6-5.4-42.4-11.8c-12.2-8.2-15.1-19-7.4-26.8C1279.8,249.2,1297.9,243.8,1311.6,258.4z"/>
</g>
<g transform="matrix(0.960564,0,0,0.960564,-1.58784,7.58658)">
	<path class="st7" d="M1303.7,75.6c7.7-30.3,31.2-33.1,44.4-25.9s15.6,25.4,6.4,45.4c-6.4,14.6-25.4,31.2-41.9,42.4
		c-19-6.9-41.9-17.1-52.1-29.8c-14.1-16.6-16.6-34.6-6.4-45.4C1264.7,51.7,1288.2,48.8,1303.7,75.6z"/>
</g>
<path class="st6" d="M1196.4,556.3c12.2-2.4,26.4,4.9,30.7,17c0.5,1,0.5,2.9-0.5,3.4c-0.5,0.5-1,0.5-2,0.5c-6.4,0-12.2-1-18.5-2.5
	c-1,0-2-0.5-2.9-1c-1-0.5-1.5-1.5-2.5-2.5c-2.9-4.4-5.9-8.8-6.4-14.1c1.5,0,2.5,0,3.9-0.5"/>
<rect x="1206.2" y="574.4" class="st8" width="79.5" height="23.9"/>
<rect x="1171.4" y="532.9" class="st9" width="41.5" height="23.9"/>
<rect x="1237.2" y="550" class="st9" width="48.2" height="30.3"/>
<path class="st6" d="M1342.2,553.7c11.2-1,22.4,2,31.6,7.8c1.5,1,2.4,1.5,2.9,2.9c0.5,1.5,0,2.9-1.5,4.4c-1,1-2.4,1.5-3.9,2.4
	c-5.9,2-11.8,2.9-18,3.4c-6.4,1-13.1,1.5-19.5,1c-1.5,0-3.4-0.5-3.9-2c-0.5-1,0-2.5,0.5-3.4c2-4.4,3.9-8.8,5.9-13.1
	c0.5-1,1-2,1.5-2.5c1.5-1,4.4-0.5,4.9-2.4"/>
<rect x="1342.9" y="526.2" class="st9" width="49.8" height="30.3"/>
<rect x="1321.7" y="557.3" class="st6" width="16.6" height="17.5"/>
<rect x="1169" y="573.2" class="st9" width="222.3" height="31.2"/>
<path class="st4" d="M1316.3,696.8c-8.2-6.9-25.4-16.6-25.4-16.6c-1-0.5-2,0-2,1v16.1c-18,3.4-31.8,12.6-35.1,24.4
	c-6.4-9.8-23.9-16.6-23.9-16.6c-1-0.5-2,0-2,1V752c0,1,1,1.5,2,1c0,0,18.5-7.4,24.4-17.5c4.4,10.7,17.5,19,34.6,22.4v4.4
	c0,1,1,1.5,2,1c0,0,3.9-1.5,8.2-3.9c2,0,3.9,0,5.4,0c28.8,0,51.6-14.1,51.6-31.8C1356.3,712.8,1339.2,700.2,1316.3,696.8z
	 M1322.2,724c-6.4,0-11.2-4.4-11.2-9.7c0-5.4,4.9-9.8,11.2-9.8c6.4,0,11.2,4.4,11.2,9.8C1333.4,719.7,1328,724,1322.2,724z"/>
<g>
	<g>
		<path class="st8" d="M145.8,469.3c-6.2,0-12.1-2-17.1-5.6c-1.6,1.4-3.4,2.2-5.4,2.8c-5.4,1.6-10.6,2.2-16.2,2.2
			c-3.6,0-6.8-0.3-10.1-0.6c-5-0.6-9.5-3.9-12.4-8.8c-2.9-5-4-11-3.1-17.1l11.2-68.9c-2.2-4.5-5.1-12.4-5.4-22
			c-0.2-8.5,3.9-16.2,9.9-20c6.1-3.6,16.4-7.6,24.2-7.6c9.6,0,18,4.2,23.4,12.4c4.8,7,6.8,16.4,5.9,26.4
			c14.6,5.4,24.5,21.1,24.5,41.1c0,3.9-0.2,7.2-0.9,10.6l-0.6,3.6c4.2,6.5,6.2,13.7,6.8,19.4c0.5,6.5-1.4,13-5.4,17.8
			C173.6,457.2,162.3,469.3,145.8,469.3z"/>
		<path class="st8" d="M195.6,469.3c-24.5,0-42.5-20.3-42.5-48.1c0-4,0.2-7.6,0.9-11c5-29.5,26.1-50,51.5-50
			c23.9,0,41.6,21.4,41.6,50c0,3.9-0.5,7-0.6,9.5c0,0.3,0,0.5,0,0.5C242.3,449,221.5,469.3,195.6,469.3z"/>
		<path class="st8" d="M282.7,469c-3.4,0-6.2-1.1-9-2.9c-0.9,0.5-2,0.9-3.1,1.1c-7.4,1.7-14.6,1.7-19.4,1.7c-8.5,0-16-7.4-17.8-17.5
			l-5.4-33.1c-1.4-1.1-2.8-2.5-3.9-4.2c-1.4-1.7-7.4-11.7-7.9-25.9c-0.2-8.5,3.6-16.4,9.6-20.3c2.2-1.4,13.5-8.1,23-8.1
			c10.1,0,17.1,4,21.6,10.1c1.4-0.5,7.2-2.2,14-2.2c0.6,0,1.4,0,2,0c0.2,0,0.6,0,0.9,0c1.4,0.3,4,0.6,5.1,0.6c1.6-2.2,3.9-4,6.1-5.1
			c1.6-0.9,6.5-3.6,20-3.6c7.9,0,14.6,6.1,17.1,15.1c1.1,4.2,1.6,8.5,1.6,13c0,9.2-2.2,18.9-6.1,27l-19.1,41c-2.5,5-6.2,8.8-11,10.4
			C294.1,468.8,284.5,469,282.7,469z"/>
		<path class="st8" d="M422.3,469.3c-5.4,0-10.4-1.6-14.6-4.2c-1.1,0.6-2.2,1.1-3.6,1.4c-5.6,1.6-9.9,2.2-14.4,2.2
			c-3.1,0-6.5-0.5-10.4-1.1c-1.1-0.2-2-0.5-2.9-0.9c-5.4,1.6-10.4,2.2-15.5,2.2c-3.9,0-7.4-0.5-9.9-0.9c-5-0.6-9.5-4-12.4-8.8
			c-2.9-5-4-11-3.1-16.9l5.1-32.6c-2-4.2-5.1-11.8-5.6-20.9c-0.5-8.8,3.4-16.9,9.6-20.8c3.9-2.2,13.5-7.6,23-7.6
			c4.2,0,8.4,0.9,11.9,2.8c4-1.8,8.4-2.8,12.9-2.8c5.1,0,9.9,1.1,14,3.1c6.1-2.8,11-3.1,13.8-3.1c20,0,32.9,14.9,32.9,37.8
			c0,4.2-0.5,8.5-1.1,12.9l-1.1,7.4c5.1,7.6,6.5,15.3,6.8,17.8c0.9,7-1.1,14-5.1,18.6C450.7,457.2,439.5,469.3,422.3,469.3z"/>
		<path class="st8" d="M470.7,469.3c-0.5,0-1.1,0-1.6,0h-0.4c-18.6,0-38.5-16.4-38.5-46.6c0-43.2,29.8-62.5,51.1-62.5
			c3.6,0,7,0.5,10.1,1.8c3.4-0.9,7.2-1.4,11.2-1.4c5.6,0,10.1,0.9,10.8,0.9c5,0.9,9.2,4.2,11.9,9.2c2.8,5,3.9,11,2.8,16.9
			c-1.6,9.2-3.6,21.6-5.1,30.9c5.4,8.1,6.5,15.8,6.8,18.5c0.6,6.5-1.1,13-5,17.8c-2,2.5-13,15.1-30.4,15.1l-0.3-10.8l-0.2,0.2v10.6
			c-4.8,0-8.5-0.9-11.9-2.2C478.8,468.5,474.8,469.3,470.7,469.3z"/>
		<path class="st8" d="M564.6,469.3c-5.6,0-10.6-1.6-14.9-4.5c-1.1,0.6-2.2,1.1-3.6,1.6c-5.6,1.6-10.8,2.5-16.2,2.5
			c-3.9,0-7.4-0.5-10.4-0.9c-5-0.6-9.5-3.9-12.4-8.8c-2.9-5-4-11-3.1-17.1l5.1-32.4c-2-4.2-5-11.8-5.6-21.1
			c-0.5-8.5,3.1-16.6,9.5-20.5c5.6-3.6,14.1-8.1,23.6-8.1c4.2,0,8.4,0.9,11.9,2.8c4-1.8,8.5-2.5,13-2.5c20.8,0,34.2,16,34.2,40.5
			c0,4.7-0.3,8.8-1.1,12.6l-0.6,4.7c5.4,7.9,6.8,15.5,7,18c0.9,7.2-1.4,14.6-5.9,19.4C592.7,457.5,581.2,469.3,564.6,469.3z"/>
		<path class="st8" d="M590.2,504.4c-2.9,0-5.9-0.9-8.5-2.5c-13.8-9-17.4-25.6-17.8-29c-1.4-8.1,1.1-16.2,6.5-21.4
			c2.5-2.5,5-4.5,7-6.5c3.9-3.6,6.2-5.9,8.8-8.8l-3.6-18.5c-1.1-1.1-2-2.2-2.9-3.6c-1.4-1.8-7.4-11.8-7.9-25.9
			c-0.2-8.5,3.6-16.4,9.6-20.3c6.2-3.9,16.6-8.1,24.5-8.1c5.9,0,11.2,1.8,15.5,5c0.6-0.5,1.6-1.1,2.5-1.4c1.8-0.9,7-3.6,23-3.6
			c8.8,0,16.4,7.6,17.8,18.2c0.3,2.5,0.6,5.6,0.6,9.5c0,10.4-2.5,20.8-6.7,28.8c0,0-20,38.9-20,39.1c-7.9,14.4-20,29-37.6,44.5
			C597.7,502.8,593.8,504.4,590.2,504.4z"/>
		<path class="st8" d="M683,504.4c-4,0-8.1-1.6-11.5-5c-10.6-10.6-14.1-20.9-15.1-23.9c-1.8-6.2-1.1-13.2,1.8-18.9
			c1.6-2.9,3.4-9.9,4-13.5l4.8-28.4c-0.5-0.5-0.6-0.9-1.1-1.6c-3.4-5-5-11.5-4-17.8c0.2-1.8,1.8-11.8,7-23c1.6-3.4,3.9-6.2,6.5-8.4
			c5-25,21.9-40.8,43.4-40.8c11,0,18.2,3.4,22.8,6.5h0.2c15.7,0,28.6,14.9,28.6,32.9c0,7-1.8,13.5-5,18.6c0.5,2.8,0.6,6.2,0.6,10.4
			c0,3.9-0.2,7.2-0.9,10.4l-2.8,16c5,7.4,6.2,14.6,6.8,17.1c1.1,7.2-1.1,14.6-5.4,19.6c-2,2.5-13.5,14.4-29.8,14.4
			c-7,0-13.2-2.2-18.5-6.5c-3.1,13.5-8.8,27.5-23,38.5C689.5,503.3,686.3,504.4,683,504.4z"/>
		<path class="st8" d="M777.8,469.3c-23.4,0-37.4-19.4-38.8-37.4c-0.5-7.6,2.5-15.1,7.4-19.4c-0.9-5-0.6-10.4,0.2-15.8
			c3.6-21.6,21.1-36.6,42.5-36.6c21.9,0,33.5,15.5,36.6,28.8c1.6,6.8,0.5,14-2.9,19.4c-0.2,0.5-0.9,1.4-1.6,2
			c1.4,4.8,2,10.1,1.6,16.6C821.7,447.9,805.8,469.3,777.8,469.3z"/>
		<path class="st8" d="M860.2,469.3c-6.2,0-12.1-2-17.1-5.6c-1.6,1.4-3.4,2.2-5.4,2.8c-5.4,1.6-10.6,2.2-16.2,2.2
			c-3.6,0-6.8-0.3-10.1-0.6c-5-0.6-9.5-3.9-12.4-8.8c-2.9-5-4-11-3.1-17.1l11.2-68.9c-2.2-4.5-5.1-12.4-5.4-22
			c-0.2-8.5,3.9-16.2,9.9-20c6.1-3.6,16.4-7.6,24.2-7.6c9.6,0,18,4.2,23.4,12.4c4.7,7,6.8,16.4,5.9,26.4
			c14.6,5.4,24.5,21.1,24.5,41.1c0,3.6-0.2,7.2-0.9,10.6l-0.6,3.9c4.3,6.5,6.2,13.8,6.8,19.4c0.5,6.5-1.4,13-5.4,17.8
			C887.7,457.2,876.7,469.3,860.2,469.3z"/>
		<path class="st8" d="M898.7,469.5c-15.1,0-27.2-14.1-27.2-31.2c0-5.4,1.1-10.4,3.1-14.9c-0.6-2.8-0.9-5.6-0.5-8.5
			c1.1-11,3.9-19.4,7-26.1c-4-3.6-8.5-8.5-11-15.1c-3.1-7.9-2.2-17.4,2.8-23.9l0.2-0.2c3.9-5.4,15.7-22,39.1-22c23.1,0,40,18,40,43
			c0,2.9-0.3,5.9-0.6,9c0,0.2,0,0.6-0.3,0.9c-3.4,17.1-12.1,26.1-18,32.1c-5.4,5.4-6.5,6.8-7,11.9c-0.2,2-0.6,4-1.1,5.9
			c0.6,2.8,0.9,5.4,0.9,8.1C926,455.5,913.8,469.5,898.7,469.5z"/>
	</g>
	<g>
		<path class="st6" d="M137.7,408.3c1.1-6.8-1.1-11.2-5.1-11.2c-0.9,0-2.9,0.2-5.6,2.5l-7.4,45.6c-4.5,1.4-8.4,1.6-12.1,1.6
			c-2.5,0-5.1-0.2-7.9-0.5l13.2-80.5c0.6-4-3.4-2-3.4-2s-3.6-5.4-3.6-12.9c5.1-3.1,12.6-5.4,16.4-5.4c7.9,0,13,5,11.2,15.8
			l-3.9,24.5c1.8-1.8,5.9-3.6,10.1-3.6c11.8,0,18.2,9.2,18.2,21.4c0,2-0.2,4-0.5,6.1l-2.5,15.8c-0.9,5.4,2.7,2.8,2.7,2.8
			c5.1,5,5.9,11.3,5.9,11.3s-7.2,8.5-17.1,8.5c-10.1,0-13.5-9.2-11.9-17.5L137.7,408.3z"/>
		<path class="st6" d="M195.6,447.4c-15.5,0-24.5-11.8-24.5-26.4c0-2,0.2-4.2,0.5-6.5c3.6-21.9,18.9-32.9,34-32.9
			s23.6,12.9,23.6,28.1c0,2-0.2,4.2-0.5,6.2C225.7,437.5,210.2,447.4,195.6,447.4z M208.5,415.3c0.5-1.8,0.6-4.7,0.6-7.9
			c0-5-1.1-9.9-5.9-9.9c-5.9,0-9.6,8.4-11.5,17.8c-0.5,2-0.6,4.5-0.6,7c0,5,1.4,9.9,6.1,9.9C202.8,432.2,207.5,422.9,208.5,415.3z"
			/>
		<path class="st6" d="M280.5,427.4c-0.6-6.2-1.1-14-1.1-14s-2.8,9.6-5,14.4l-7.6,18c-5.6,1.4-11.5,1.4-15.8,1.4l-7.2-44.5
			c-0.6-4.5-5.6-2.5-5.6-2.5s-3.6-5.4-3.9-12.9c5.4-3.4,11.8-5.6,14.6-5.6c6.2,0,10.1,2.8,10.8,9.2l2.2,18
			c0.9,7.2,0.9,16.9,0.9,16.9s2.5-8.5,5.1-15.8l7-19.1c0,0,5.1-1.6,10.8-1.4c1.4,0.2,4.5,0.6,4.5,0.6l1.4,20.2
			c0.5,6.2,0.2,15.5,0.2,15.5s2.2-8.1,5.9-15.5l5.4-11.7c2.9-6.1,2.8-15.5,2.8-15.5c3.1-1.6,12.9-1.6,12.9-1.6c0.5,2,0.6,4,0.6,6.2
			c0,5.1-1.4,11.2-3.6,16.2L296.7,445c-5.4,1.8-14.1,1.8-14.1,1.8L280.5,427.4z"/>
		<path class="st6" d="M415.8,407.2c0.5-3.1,1.1-8.5-2.8-8.5c-3.1,0-5.4,2-5.4,2l-7.3,44.3c-4,1.1-7.2,1.6-10.6,1.6
			c-2.2,0-4.5-0.3-7.4-0.9l6.5-40.5c0.6-3.9-0.5-6.8-3.1-6.8c-3.1,0-5.6,1.8-5.6,1.8l-7.4,44.5c-4.2,1.4-7.9,1.7-11.9,1.7
			c-2.5,0-5-0.2-7.6-0.6l7.2-44.5c0.6-3.9-3.4-2-3.4-2s-3.6-5.6-3.9-12.9c4.8-2.9,10.6-5.1,14.9-5.1c3.6,0,8.5,1.4,10.6,6.7
			c5.1-5.1,9.9-6.7,14.4-6.7c5.9,0,9.2,1.7,12.4,7.4c6.1-6.1,12.1-7.4,15.2-7.4c11.2,0,14.9,6.7,14.9,16.2c0,2.8-0.3,5.6-0.6,8.5
			l-3.4,19.8c-0.6,5.1,3.1,2.8,3.1,2.8c5,5,5.4,10.4,5.4,10.4s-7.2,8.5-17.8,8.5c-7.9,0-11-6.2-11-13.2c0-1.4,0.2-2.9,0.5-4.2
			L415.8,407.2z"/>
		<path class="st6" d="M494,383.3c2.9-0.9,6.1-1.4,9-1.4c4.5,0,7.9,0.6,7.9,0.6s-6.5,38-7.4,43.4s3.4,2.5,3.4,2.5
			c5,5,5.4,10.4,5.4,10.4s-6.7,8.5-17.4,8.5c-2.5,0-8.8,0.2-11.2-6.1c-6.2,7-12.1,6.1-14.6,6.1c-8.8,0-20.5-6.8-20.5-25
			c0-29.8,20.9-41,33.1-41c5.4,0,8.4,2,10.6,5.1L494,383.3z M488.1,399.9c0,0-2.5-3.4-6.2-3.4c-7,0-13.3,11.8-13.3,26.1
			c0,6.5,2.5,9.6,7.2,9.6c2.2,0,5.1-0.9,7.4-2.5L488.1,399.9z"/>
		<path class="st6" d="M557.3,408.5c0-0.2,0.5-2,0.5-4c0-2.8-0.6-6.1-4.2-6.1c-2.2,0-4.5,2-4.5,2l-7.4,44.5
			c-4.2,1.4-8.1,1.8-11.9,1.8c-2.8,0-5.1-0.3-8.4-0.6l7.2-44.5c0.6-3.9-3.4-2-3.4-2s-3.4-5.4-3.9-12.9c4-2.8,9.9-5.4,15.1-5.4
			c4.2,0,8.1,1.8,10.1,7c4.5-5,9.5-6.8,14.6-6.8c11.5,0,16.2,7.4,16.2,18.6c0,2.8-0.2,5.4-0.6,8.4l-2.8,17.4
			c-0.6,5.1,3.4,2.8,3.4,2.8c5,5,5.4,10.4,5.4,10.4s-7.9,8.5-18.5,8.5c-7.9,0-11-6.5-11-13.5c0-1.4,0.2-2.8,0.5-4L557.3,408.5z"/>
		<path class="st6" d="M598.1,402.7c-0.9-3.9-4.8-2.5-4.8-2.5s-3.6-5.4-3.9-12.9c5.4-3.4,12.6-5.6,16.4-5.6c5.6,0,9,2.9,9.6,9.2
			l2.5,19.7c0.6,5.9,0.6,13,0.6,13s3.1-9.2,4.8-12.6l5.4-12.1c1.6-3.6,2-7.9,2-10.8c0-2.8-0.2-4.5-0.2-4.5
			c3.6-1.8,15.8-1.8,15.8-1.8c0.2,2,0.5,3.9,0.5,6.1c0,5.9-1.4,12.1-3.9,17.4L623.1,444c-7.2,13.3-18.9,26.4-33.1,38.8
			c-7-4.5-8.5-14-8.5-14c11.2-10.8,16.4-14.1,24.1-26.4L598.1,402.7z"/>
		<path class="st6" d="M687.7,399h-8.4c0,0,1.1-7.4,5-16.2h6.1l2-12.4c3.1-18.6,15.5-25.2,26.1-25.2c10.8,0,14.6,4.5,14.6,4.5
			s-3.9,8.8-10.4,14c0,0-1.4-0.9-3.9-0.9c-2.2,0-5.1,0.9-6.5,7.9l-2,12.1h36.5c0,0,0.9,4.2,0.9,9c0,1.7-0.2,3.9-0.5,5.4l-5,28.8
			c-1.1,5.9,3.1,2.8,3.1,2.8c4.7,4.7,5.4,10.4,5.4,10.4s-7.4,8.5-17.4,8.5c-10.1,0-13.2-9-11.9-17.5l5-30.9h-18.6l-8.1,49.8
			c-2.8,15.8-5.9,25.6-16.6,33.8c-7.6-7.4-9.5-14.1-9.5-14.1c3.6-7,5.9-17.8,6.2-20.9L687.7,399z M741.7,373.7
			c-5.9,0-10.4-4.5-10.4-10.8c0-6.1,4.5-11,10.4-11s10.6,5,10.6,11C752,369.2,747.3,373.7,741.7,373.7z"/>
		<path class="st6" d="M775.2,420.4c-8.4-3.4-12.4-10.1-10.6-19.1c1.6-9.6,10.1-19.6,25-19.6c14.4,0,18.6,9.9,19.6,13.3
			c0,0-3.6,5.6-13.5,7.4c0,0-2.8-5.6-6.5-5.6c-1.8,0-3.6,0.5-4,2.8c-0.5,2.2,0.5,3.9,2.8,4.7l5.4,2.2c9.3,3.9,13,9.6,12.4,18.5
			c-0.6,8.5-8.1,22.5-27.6,22.5c-14.9,0-20.2-11.5-20.7-17.4c6.5-4,13.2-5.4,13.2-5.4s2,7.9,8.8,7.9c3.9,0,5.1-2.8,5.6-4.5
			c0.5-2-0.5-3.6-3.9-5L775.2,420.4z"/>
		<path class="st6" d="M852,408.3c1.1-6.8-1.1-11.2-5.1-11.2c-0.9,0-2.9,0.2-5.6,2.5l-7.4,45.6c-4.5,1.4-8.4,1.6-12.1,1.6
			c-2.5,0-5.1-0.2-7.9-0.5l13.2-80.5c0.6-4-3.4-2-3.4-2s-3.6-5.4-3.6-12.9c5.1-3.1,12.6-5.4,16.4-5.4c7.9,0,13,5,11.2,15.8
			l-3.9,24.5c1.8-1.8,5.9-3.6,10.1-3.6c11.8,0,18.2,9.2,18.2,21.4c0,2-0.2,4-0.5,6.1l-2.5,15.8c-0.9,5.4,2.8,2.8,2.8,2.8
			c5.1,5,5.9,11.3,5.9,11.3s-7.2,8.5-17.1,8.5c-10.1,0-13.5-9.2-11.9-17.5L852,408.3z"/>
		<path class="st6" d="M892,417.3c2.9-27.9,18.5-29.2,21.1-42.1c0.6-4.2-0.2-9.6-5-9.6c-5.4,0-11.8,9-11.8,9s-8.1-5-10.6-10.8
			c2.9-4.2,10.4-14.9,25.9-14.9c12.6,0,22,8.4,22,21.1c0,1.6-0.2,3.1-0.5,5c-4.3,21.6-23,20.8-25.3,46.8
			C895.8,422.7,892,417.3,892,417.3z M898.7,447.7c-5,0-9.3-4.2-9.3-9.6s4.3-9.9,9.3-9.9s9.2,4.5,9.2,9.9S903.7,447.7,898.7,447.7z"
			/>
	</g>
	<g>
		<path class="st10" d="M137.7,408.3c1.1-6.8-1.1-11.2-5.1-11.2c-0.9,0-2.9,0.2-5.6,2.5l-7.4,45.6c-4.5,1.4-8.4,1.6-12.1,1.6
			c-2.5,0-5.1-0.2-7.9-0.5l13.2-80.5c0.6-4-3.4-2-3.4-2s-3.6-5.4-3.6-12.9c5.1-3.1,12.6-5.4,16.4-5.4c7.9,0,13,5,11.2,15.8
			l-3.9,24.5c1.8-1.8,5.9-3.6,10.1-3.6c11.8,0,18.2,9.2,18.2,21.4c0,2-0.2,4-0.5,6.1l-2.5,15.8c-0.9,5.4,2.7,2.8,2.7,2.8
			c5.1,5,5.9,11.3,5.9,11.3s-7.2,8.5-17.1,8.5c-10.1,0-13.5-9.2-11.9-17.5L137.7,408.3z"/>
		<path class="st10" d="M195.6,447.4c-15.5,0-24.5-11.8-24.5-26.4c0-2,0.2-4.2,0.5-6.5c3.6-21.9,18.9-32.9,34-32.9
			s23.6,12.9,23.6,28.1c0,2-0.2,4.2-0.5,6.2C225.7,437.5,210.2,447.4,195.6,447.4z M208.5,415.3c0.5-1.8,0.6-4.7,0.6-7.9
			c0-5-1.1-9.9-5.9-9.9c-5.9,0-9.6,8.4-11.5,17.8c-0.5,2-0.6,4.5-0.6,7c0,5,1.4,9.9,6.1,9.9C202.8,432.2,207.5,422.9,208.5,415.3z"
			/>
		<path class="st10" d="M280.5,427.4c-0.6-6.2-1.1-14-1.1-14s-2.8,9.6-5,14.4l-7.6,18c-5.6,1.4-11.5,1.4-15.8,1.4l-7.2-44.5
			c-0.6-4.5-5.6-2.5-5.6-2.5s-3.6-5.4-3.9-12.9c5.4-3.4,11.8-5.6,14.6-5.6c6.2,0,10.1,2.8,10.8,9.2l2.2,18
			c0.9,7.2,0.9,16.9,0.9,16.9s2.5-8.5,5.1-15.8l7-19.1c0,0,5.1-1.6,10.8-1.4c1.4,0.2,4.5,0.6,4.5,0.6l1.4,20.2
			c0.5,6.2,0.2,15.5,0.2,15.5s2.2-8.1,5.9-15.5l5.4-11.7c2.9-6.1,2.8-15.5,2.8-15.5c3.1-1.6,12.9-1.6,12.9-1.6c0.5,2,0.6,4,0.6,6.2
			c0,5.1-1.4,11.2-3.6,16.2L296.7,445c-5.4,1.8-14.1,1.8-14.1,1.8L280.5,427.4z"/>
		<path class="st10" d="M415.8,407.2c0.5-3.1,1.1-8.5-2.8-8.5c-3.1,0-5.4,2-5.4,2l-7.3,44.3c-4,1.1-7.2,1.6-10.6,1.6
			c-2.2,0-4.5-0.3-7.4-0.9l6.5-40.5c0.6-3.9-0.5-6.8-3.1-6.8c-3.1,0-5.6,1.8-5.6,1.8l-7.4,44.5c-4.2,1.4-7.9,1.7-11.9,1.7
			c-2.5,0-5-0.2-7.6-0.6l7.2-44.5c0.6-3.9-3.4-2-3.4-2s-3.6-5.6-3.9-12.9c4.8-2.9,10.6-5.1,14.9-5.1c3.6,0,8.5,1.4,10.6,6.7
			c5.1-5.1,9.9-6.7,14.4-6.7c5.9,0,9.2,1.7,12.4,7.4c6.1-6.1,12.1-7.4,15.2-7.4c11.2,0,14.9,6.7,14.9,16.2c0,2.8-0.3,5.6-0.6,8.5
			l-3.4,19.8c-0.6,5.1,3.1,2.8,3.1,2.8c5,5,5.4,10.4,5.4,10.4s-7.2,8.5-17.8,8.5c-7.9,0-11-6.2-11-13.2c0-1.4,0.2-2.9,0.5-4.2
			L415.8,407.2z"/>
		<path class="st10" d="M494,383.3c2.9-0.9,6.1-1.4,9-1.4c4.5,0,7.9,0.6,7.9,0.6s-6.5,38-7.4,43.4s3.4,2.5,3.4,2.5
			c5,5,5.4,10.4,5.4,10.4s-6.7,8.5-17.4,8.5c-2.5,0-8.8,0.2-11.2-6.1c-6.2,7-12.1,6.1-14.6,6.1c-8.8,0-20.5-6.8-20.5-25
			c0-29.8,20.9-41,33.1-41c5.4,0,8.4,2,10.6,5.1L494,383.3z M488.1,399.9c0,0-2.5-3.4-6.2-3.4c-7,0-13.3,11.8-13.3,26.1
			c0,6.5,2.5,9.6,7.2,9.6c2.2,0,5.1-0.9,7.4-2.5L488.1,399.9z"/>
		<path class="st10" d="M557.3,408.5c0-0.2,0.5-2,0.5-4c0-2.8-0.6-6.1-4.2-6.1c-2.2,0-4.5,2-4.5,2l-7.4,44.5
			c-4.2,1.4-8.1,1.8-11.9,1.8c-2.8,0-5.1-0.3-8.4-0.6l7.2-44.5c0.6-3.9-3.4-2-3.4-2s-3.4-5.4-3.9-12.9c4-2.8,9.9-5.4,15.1-5.4
			c4.2,0,8.1,1.8,10.1,7c4.5-5,9.5-6.8,14.6-6.8c11.5,0,16.2,7.4,16.2,18.6c0,2.8-0.2,5.4-0.6,8.4l-2.8,17.4
			c-0.6,5.1,3.4,2.8,3.4,2.8c5,5,5.4,10.4,5.4,10.4s-7.9,8.5-18.5,8.5c-7.9,0-11-6.5-11-13.5c0-1.4,0.2-2.8,0.5-4L557.3,408.5z"/>
		<path class="st10" d="M598.1,402.7c-0.9-3.9-4.8-2.5-4.8-2.5s-3.6-5.4-3.9-12.9c5.4-3.4,12.6-5.6,16.4-5.6c5.6,0,9,2.9,9.6,9.2
			l2.5,19.7c0.6,5.9,0.6,13,0.6,13s3.1-9.2,4.8-12.6l5.4-12.1c1.6-3.6,2-7.9,2-10.8c0-2.8-0.2-4.5-0.2-4.5
			c3.6-1.8,15.8-1.8,15.8-1.8c0.2,2,0.5,3.9,0.5,6.1c0,5.9-1.4,12.1-3.9,17.4L623.1,444c-7.2,13.3-18.9,26.4-33.1,38.8
			c-7-4.5-8.5-14-8.5-14c11.2-10.8,16.4-14.1,24.1-26.4L598.1,402.7z"/>
		<path class="st10" d="M687.7,399h-8.4c0,0,1.1-7.4,5-16.2h6.1l2-12.4c3.1-18.6,15.5-25.2,26.1-25.2c10.8,0,14.6,4.5,14.6,4.5
			s-3.9,8.8-10.4,14c0,0-1.4-0.9-3.9-0.9c-2.2,0-5.1,0.9-6.5,7.9l-2,12.1h36.5c0,0,0.9,4.2,0.9,9c0,1.7-0.2,3.9-0.5,5.4l-5,28.8
			c-1.1,5.9,3.1,2.8,3.1,2.8c4.7,4.7,5.4,10.4,5.4,10.4s-7.4,8.5-17.4,8.5c-10.1,0-13.2-9-11.9-17.5l5-30.9h-18.6l-8.1,49.8
			c-2.8,15.8-5.9,25.6-16.6,33.8c-7.6-7.4-9.5-14.1-9.5-14.1c3.6-7,5.9-17.8,6.2-20.9L687.7,399z M741.7,373.7
			c-5.9,0-10.4-4.5-10.4-10.8c0-6.1,4.5-11,10.4-11s10.6,5,10.6,11C752,369.2,747.3,373.7,741.7,373.7z"/>
		<path class="st10" d="M775.2,420.4c-8.4-3.4-12.4-10.1-10.6-19.1c1.6-9.6,10.1-19.6,25-19.6c14.4,0,18.6,9.9,19.6,13.3
			c0,0-3.6,5.6-13.5,7.4c0,0-2.8-5.6-6.5-5.6c-1.8,0-3.6,0.5-4,2.8c-0.5,2.2,0.5,3.9,2.8,4.7l5.4,2.2c9.3,3.9,13,9.6,12.4,18.5
			c-0.6,8.5-8.1,22.5-27.6,22.5c-14.9,0-20.2-11.5-20.7-17.4c6.5-4,13.2-5.4,13.2-5.4s2,7.9,8.8,7.9c3.9,0,5.1-2.8,5.6-4.5
			c0.5-2-0.5-3.6-3.9-5L775.2,420.4z"/>
		<path class="st10" d="M852,408.3c1.1-6.8-1.1-11.2-5.1-11.2c-0.9,0-2.9,0.2-5.6,2.5l-7.4,45.6c-4.5,1.4-8.4,1.6-12.1,1.6
			c-2.5,0-5.1-0.2-7.9-0.5l13.2-80.5c0.6-4-3.4-2-3.4-2s-3.6-5.4-3.6-12.9c5.1-3.1,12.6-5.4,16.4-5.4c7.9,0,13,5,11.2,15.8
			l-3.9,24.5c1.8-1.8,5.9-3.6,10.1-3.6c11.8,0,18.2,9.2,18.2,21.4c0,2-0.2,4-0.5,6.1l-2.5,15.8c-0.9,5.4,2.8,2.8,2.8,2.8
			c5.1,5,5.9,11.3,5.9,11.3s-7.2,8.5-17.1,8.5c-10.1,0-13.5-9.2-11.9-17.5L852,408.3z"/>
		<path class="st10" d="M892,417.3c2.9-27.9,18.5-29.2,21.1-42.1c0.6-4.2-0.2-9.6-5-9.6c-5.4,0-11.8,9-11.8,9s-8.1-5-10.6-10.8
			c2.9-4.2,10.4-14.9,25.9-14.9c12.6,0,22,8.4,22,21.1c0,1.6-0.2,3.1-0.5,5c-4.3,21.6-23,20.8-25.3,46.8
			C895.8,422.7,892,417.3,892,417.3z M898.7,447.7c-5,0-9.3-4.2-9.3-9.6s4.3-9.9,9.3-9.9s9.2,4.5,9.2,9.9S903.7,447.7,898.7,447.7z"
			/>
	</g>
</g>
</svg>
