<?xml version="1.0" encoding="utf-8"?>
<!-- Generator: Adobe Illustrator 19.1.0, SVG Export Plug-In . SVG Version: 6.00 Build 0)  -->
<svg version="1.1" id="Layer_1" xmlns="http://www.w3.org/2000/svg" xmlns:xlink="http://www.w3.org/1999/xlink" x="0px" y="0px"
	 viewBox="-39 30 1808 1070" style="enable-background:new -39 30 1808 1070;" xml:space="preserve">
<style type="text/css">
	.st0{fill:#0A3C78;stroke:#0A3C78;stroke-miterlimit:10;}
	.st1{fill:#F9F9F9;}
	.st2{font-family:'OpenSans';}
	.st3{font-size:37.5px;}
	.st4{fill:#246EB9;stroke:#0A3C78;stroke-miterlimit:10;}
	.st5{fill:#20BF55;}
	.st6{fill:none;}
	.st7{fill:#246EB9;}
	.st8{fill:#D30C7B;}
	.st9{fill:#FFFFFF;}
	.st10{fill:#0A3C78;}
	.st11{fill:none;stroke:#246EB9;stroke-miterlimit:10;}
</style>
<rect x="-39" y="30" class="st0" width="1808" height="1070"/>
<text transform="matrix(0.7383 0 0 1 87.6959 592.676)" class="st1 st2 st3">Visualizing OkCupid’s matching algorithm. </text>
<text transform="matrix(0.7383 0 0 1 87.6958 946.7513)" class="st1 st2 st3">Scroll down for more information or skip to </text>
<text transform="matrix(0.7383 0 0 1 87.6959 677.676)" class="st1 st2 st3">Enabling user exploration of the impact of preferences  </text>
<text transform="matrix(0.7383 0 0 1 87.6959 722.676)" class="st1 st2 st3">on their pool of potential dates.</text>
<g>
	<path class="st4" d="M1181.3,884.9c19,0,32.6,29.3,32.6,29.3c1,2.4,0,4.4-2.9,4.4l-58.5,0.5c-2.5,0-3.9-2-2.9-4.4
		C1149.5,915.2,1162.3,885.4,1181.3,884.9z"/>
	<path class="st5" d="M1199.3,770.3c-8.2-6.9-25.4-16.6-25.4-16.6c-1-0.5-2,0-2,1v16.1c-18,3.4-31.8,12.6-35.1,24.4
		c-6.4-9.8-23.9-16.6-23.9-16.6c-1-0.5-2,0-2,1v45.9c0,1,1,1.5,2,1c0,0,18.5-7.4,24.4-17.5c4.4,10.7,17.5,19,34.6,22.4v4.4
		c0,1,1,1.5,2,1c0,0,3.9-1.5,8.2-3.9c2,0,3.9,0,5.4,0c28.8,0,51.6-14.1,51.6-31.8C1239.8,785.9,1222.2,773.3,1199.3,770.3z
		 M1205.2,797.7c-6.4,0-11.2-4.4-11.2-9.8s4.9-9.8,11.2-9.8c6.4,0,11.2,4.4,11.2,9.8S1211.5,797.7,1205.2,797.7z"/>
	<g>
		<path class="st6" d="M1448.9,914.2"/>
	</g>
	<path class="st7" d="M1449.9,597.8c-15.1-15.6-32.1-29.2-51.1-40c-1.5-1-3.4-1.5-4.9-1.5h-49.3c1.5,6.9,0,13.6-3.4,19.5h49.8
		c16.6,9.7,31.2,21.9,44.4,35.6c2.4,2.5,4.9,5.4,7.3,7.8c-2.5,0.5-5.4,1.5-7.3,2c-7.7,2.4-15.1,4.9-30.2,4.9s-22.4-2.5-30.2-4.9
		c-8.2-2.5-16.6-4.9-33.1-4.9s-24.9,2.4-33.1,4.9c-7.7,2.4-15.1,4.9-30.2,4.9s-22.4-2.5-30.2-4.9c-8.2-2.5-16.6-4.9-33.1-4.9
		s-24.9,2.4-33.1,4.9c-7.8,2.4-15.1,4.9-30.2,4.9s-22.4-2.5-30.2-4.9c-2-0.5-3.9-1-5.9-2c2.4-2.9,4.9-5.9,7.8-8.2
		c13.1-13.6,28.2-25.9,44.4-35.6h44.4c-2-6.4-1-13.6,2-19.5h-48.8c-2,0-3.4,0.5-4.9,1.5c-18.5,10.8-36.1,24.4-51.1,40
		c-42.9,44.4-66.2,102.4-66.2,163.8c0,90.2,52.6,173.5,133.6,212.5c1.5,0.5,2.9,1,4.4,1c17.1,0,54.1,0,92.1,0c41,0,82.9,0,104.4,0
		c1.5,0,2.9-0.5,4.4-1c80.9-39,133.6-122.9,133.6-212.5C1516.2,700.2,1492.3,642.2,1449.9,597.8z M1376.3,956
		c-21.9,0-62.4,0-101.9,0c-36.5,0-72.1,0-90.1,0c-13.6-6.9-26.4-14.6-38-23.9c14.6-1.5,24.4-3.4,34.1-5.9
		c14.1-3.4,27.2-6.4,54.6-6.4c27.2,0,40.5,2.9,54.6,6.4c14.1,3.4,28.8,6.9,58,6.9c28.8,0,43.9-3.4,58-6.9c6.9-1.5,13.1-2.9,21-4.4
		C1410.9,935.2,1394.3,946.8,1376.3,956z M1441.5,905.4c-18,1-29.2,3.9-40,6.4c-14.1,3.4-27.2,6.4-54.6,6.4
		c-27.3,0-40.5-2.9-54.6-6.4c-14.1-3.4-28.8-6.9-58-6.9c-28.8,0-43.4,3.4-58,6.9c-12.6,2.9-24.4,5.9-46.2,6.4
		c-41.9-40.5-67.2-97-67.2-156.5c0-49.3,16.1-95.5,46.2-133.6c3.4,1,6.9,2,9.8,2.9c8.2,2.5,16.6,4.9,33.1,4.9s24.9-2.4,33.1-4.9
		c7.8-2.4,15.1-4.9,30.2-4.9s22.4,2.5,30.2,4.9c8.2,2.5,16.6,4.9,33.1,4.9c16.6,0,24.9-2.4,33.1-4.9c7.8-2.4,15.1-4.9,30.2-4.9
		s22.4,2.5,30.2,4.9c8.2,2.5,16.6,4.9,33.1,4.9s24.9-2.4,33.1-4.9c3.9-1,7.3-2.4,11.8-2.9c30.2,38,46.4,84.9,46.4,134.1
		C1496.7,815.2,1476.2,866.4,1441.5,905.4z"/>
	<g>
		<path class="st4" d="M1431.4,892.7c1,15.6-13.6,29.7-33.1,31.2l-52.6,3.9c0,0-7.8-12.2-9.2-28.2l0,0
			C1336.8,900,1394.8,895.7,1431.4,892.7L1431.4,892.7z"/>
	</g>
	<g>
		<path class="st4" d="M1392.4,888.8l-3.9-50.7l39,47.8L1392.4,888.8L1392.4,888.8z"/>
	</g>
	<g>
		<path class="st4" d="M1343.2,893.2l37.5-77l5.4,73.6L1343.2,893.2L1343.2,893.2z"/>
	</g>
	<g>
		<path d="M1084.5,453.4L1084.5,453.4"/>
	</g>
	<g>
		<path d="M1285.5,724"/>
	</g>
</g>
<path class="st4" d="M1204.2,408.2h8.8V550c-3.9,1.5-7.4,3.4-11.2,5.4c0,0,0,0,0,0.5c2.5,7.4,6.4,12.2,12.2,15.1
	c3.9,2.9,6.9,6.4,9.7,9.8h47.8c6.9,0,12.2-6.9,12.2-15.1c0-8.3-5.4-15.1-12.2-15.1h-34.1V510h34.1c6.9,0,12.2-6.9,12.2-15.1
	s-5.4-15.1-12.2-15.1h-34.1v-40.5h34.1c6.9,0,12.2-6.9,12.2-15.1c0-8.3-5.4-15.1-12.2-15.1h-34.1v-14.6c0-8.2-5.4-15.1-12.2-15.1
	h-21.5l0,0c-6.9,0-12.6-6.9-12.6-15.1s5.4-15.1,12.6-15.1H1351c6.9,0,12.6,6.9,12.6,15.1c0,8.3-5.4,15.1-12.6,15.1h-20
	c-6.9,0-12.3,6.9-12.3,15.1V563c0,6.9,3.4,12.6,8.8,14.6c1.5,0.5,2.9,1.5,4.9,2c9.2-10.2,21-16.6,33.6-15.6
	c-7.3-4.4-14.6-8.2-22.4-11.8v-144h7.2c20.5,0,37.5-20.5,37.5-45.9s-16.6-45.9-37.5-45.9h-146.5c-20.5,0-37.5,20.5-37.5,45.9
	C1166.7,387.7,1183.7,408.2,1204.2,408.2z"/>
<g transform="matrix(0.960564,0,0,0.960564,-1.58784,7.58658)">
	<path class="st8" d="M1405.7,179.4c14.6-15.6,32.1-9.8,38.5-1s2.5,20.5-9.8,29.2c-8.8,6.9-27.3,10.2-42.4,11.7
		c-10.7-10.2-23.4-24.4-26.4-35.1c-4.4-14.6-0.5-26.4,9.8-29.2C1386.2,152.1,1403.2,157.9,1405.7,179.4z"/>
</g>
<g transform="matrix(0.960564,0,0,0.960564,-1.58784,7.58658)">
	<path class="st8" d="M1311.6,258.4c4.4-19.5,22.4-24.4,33.1-21.5c10.8,2.9,13.6,13.6,7.3,26.8c-4.4,9.8-18.5,22.4-30.8,31.2
		c-15.1-1.5-33.6-5.4-42.4-11.8c-12.2-8.2-15.1-19-7.4-26.8C1279.8,249.2,1297.9,243.8,1311.6,258.4z"/>
</g>
<g transform="matrix(0.960564,0,0,0.960564,-1.58784,7.58658)">
	<path class="st8" d="M1303.7,75.6c7.7-30.3,31.2-33.1,44.4-25.9s15.6,25.4,6.4,45.4c-6.4,14.6-25.4,31.2-41.9,42.4
		c-19-6.9-41.9-17.1-52.1-29.8c-14.1-16.6-16.6-34.6-6.4-45.4C1264.7,51.7,1288.2,48.8,1303.7,75.6z"/>
</g>
<path class="st7" d="M1196.4,556.3c12.2-2.4,26.4,4.9,30.7,17c0.5,1,0.5,2.9-0.5,3.4c-0.5,0.5-1,0.5-2,0.5c-6.4,0-12.2-1-18.5-2.5
	c-1,0-2-0.5-2.9-1c-1-0.5-1.5-1.5-2.5-2.5c-2.9-4.4-5.9-8.8-6.4-14.1c1.5,0,2.5,0,3.9-0.5"/>
<rect x="1206.2" y="574.4" class="st9" width="79.5" height="23.9"/>
<rect x="1171.4" y="532.9" class="st10" width="41.5" height="23.9"/>
<rect x="1237.2" y="550" class="st10" width="48.2" height="30.3"/>
<path class="st7" d="M1342.2,553.7c11.2-1,22.4,2,31.6,7.8c1.5,1,2.4,1.5,2.9,2.9c0.5,1.5,0,2.9-1.5,4.4c-1,1-2.4,1.5-3.9,2.4
	c-5.9,2-11.8,2.9-18,3.4c-6.4,1-13.1,1.5-19.5,1c-1.5,0-3.4-0.5-3.9-2c-0.5-1,0-2.5,0.5-3.4c2-4.4,3.9-8.8,5.9-13.1
	c0.5-1,1-2,1.5-2.5c1.5-1,4.4-0.5,4.9-2.4"/>
<rect x="1342.9" y="526.2" class="st10" width="49.8" height="30.3"/>
<rect x="1321.7" y="557.3" class="st7" width="16.6" height="17.5"/>
<rect x="1169" y="573.2" class="st10" width="222.3" height="31.2"/>
<path class="st5" d="M1316.3,696.8c-8.2-6.9-25.4-16.6-25.4-16.6c-1-0.5-2,0-2,1v16.1c-18,3.4-31.8,12.6-35.1,24.4
	c-6.4-9.8-23.9-16.6-23.9-16.6c-1-0.5-2,0-2,1V752c0,1,1,1.5,2,1c0,0,18.5-7.4,24.4-17.5c4.4,10.7,17.5,19,34.6,22.4v4.4
	c0,1,1,1.5,2,1c0,0,3.9-1.5,8.2-3.9c2,0,3.9,0,5.4,0c28.8,0,51.6-14.1,51.6-31.8C1356.3,712.8,1339.2,700.2,1316.3,696.8z
	 M1322.2,724c-6.4,0-11.2-4.4-11.2-9.7c0-5.4,4.9-9.8,11.2-9.8c6.4,0,11.2,4.4,11.2,9.8C1333.4,719.7,1328,724,1322.2,724z"/>
<g>
	<g>
		<path class="st9" d="M145.8,469.3c-6.2,0-12.1-2-17.1-5.6c-1.6,1.4-3.4,2.2-5.4,2.8c-5.4,1.6-10.6,2.2-16.2,2.2
			c-3.6,0-6.8-0.3-10.1-0.6c-5-0.6-9.5-3.9-12.4-8.8c-2.9-5-4-11-3.1-17.1l11.2-68.9c-2.2-4.5-5.1-12.4-5.4-22
			c-0.2-8.5,3.9-16.2,9.9-20c6.1-3.6,16.4-7.6,24.2-7.6c9.6,0,18,4.2,23.4,12.4c4.8,7,6.8,16.4,5.9,26.4
			c14.6,5.4,24.5,21.1,24.5,41.1c0,3.9-0.2,7.2-0.9,10.6l-0.6,3.6c4.2,6.5,6.2,13.7,6.8,19.4c0.5,6.5-1.4,13-5.4,17.8
			C173.6,457.2,162.3,469.3,145.8,469.3z"/>
		<path class="st9" d="M195.6,469.3c-24.5,0-42.5-20.3-42.5-48.1c0-4,0.2-7.6,0.9-11c5-29.5,26.1-50,51.5-50
			c23.9,0,41.6,21.4,41.6,50c0,3.9-0.5,7-0.6,9.5c0,0.3,0,0.5,0,0.5C242.3,449,221.5,469.3,195.6,469.3z"/>
		<path class="st9" d="M282.7,469c-3.4,0-6.2-1.1-9-2.9c-0.9,0.5-2,0.9-3.1,1.1c-7.4,1.7-14.6,1.7-19.4,1.7c-8.5,0-16-7.4-17.8-17.5
			l-5.4-33.1c-1.4-1.1-2.8-2.5-3.9-4.2c-1.4-1.7-7.4-11.7-7.9-25.9c-0.2-8.5,3.6-16.4,9.6-20.3c2.2-1.4,13.5-8.1,23-8.1
			c10.1,0,17.1,4,21.6,10.1c1.4-0.5,7.2-2.2,14-2.2c0.6,0,1.4,0,2,0c0.2,0,0.6,0,0.9,0c1.4,0.3,4,0.6,5.1,0.6c1.6-2.2,3.9-4,6.1-5.1
			c1.6-0.9,6.5-3.6,20-3.6c7.9,0,14.6,6.1,17.1,15.1c1.1,4.2,1.6,8.5,1.6,13c0,9.2-2.2,18.9-6.1,27l-19.1,41c-2.5,5-6.2,8.8-11,10.4
			C294.1,468.8,284.5,469,282.7,469z"/>
		<path class="st9" d="M422.3,469.3c-5.4,0-10.4-1.6-14.6-4.2c-1.1,0.6-2.2,1.1-3.6,1.4c-5.6,1.6-9.9,2.2-14.4,2.2
			c-3.1,0-6.5-0.5-10.4-1.1c-1.1-0.2-2-0.5-2.9-0.9c-5.4,1.6-10.4,2.2-15.5,2.2c-3.9,0-7.4-0.5-9.9-0.9c-5-0.6-9.5-4-12.4-8.8
			c-2.9-5-4-11-3.1-16.9l5.1-32.6c-2-4.2-5.1-11.8-5.6-20.9c-0.5-8.8,3.4-16.9,9.6-20.8c3.9-2.2,13.5-7.6,23-7.6
			c4.2,0,8.4,0.9,11.9,2.8c4-1.8,8.4-2.8,12.9-2.8c5.1,0,9.9,1.1,14,3.1c6.1-2.8,11-3.1,13.8-3.1c20,0,32.9,14.9,32.9,37.8
			c0,4.2-0.5,8.5-1.1,12.9l-1.1,7.4c5.1,7.6,6.5,15.3,6.8,17.8c0.9,7-1.1,14-5.1,18.6C450.7,457.2,439.5,469.3,422.3,469.3z"/>
		<path class="st9" d="M470.7,469.3c-0.5,0-1.1,0-1.6,0h-0.4c-18.6,0-38.5-16.4-38.5-46.6c0-43.2,29.8-62.5,51.1-62.5
			c3.6,0,7,0.5,10.1,1.8c3.4-0.9,7.2-1.4,11.2-1.4c5.6,0,10.1,0.9,10.8,0.9c5,0.9,9.2,4.2,11.9,9.2c2.8,5,3.9,11,2.8,16.9
			c-1.6,9.2-3.6,21.6-5.1,30.9c5.4,8.1,6.5,15.8,6.8,18.5c0.6,6.5-1.1,13-5,17.8c-2,2.5-13,15.1-30.4,15.1l-0.3-10.8l-0.2,0.2v10.6
			c-4.8,0-8.5-0.9-11.9-2.2C478.8,468.5,474.8,469.3,470.7,469.3z"/>
		<path class="st9" d="M564.6,469.3c-5.6,0-10.6-1.6-14.9-4.5c-1.1,0.6-2.2,1.1-3.6,1.6c-5.6,1.6-10.8,2.5-16.2,2.5
			c-3.9,0-7.4-0.5-10.4-0.9c-5-0.6-9.5-3.9-12.4-8.8c-2.9-5-4-11-3.1-17.1l5.1-32.4c-2-4.2-5-11.8-5.6-21.1
			c-0.5-8.5,3.1-16.6,9.5-20.5c5.6-3.6,14.1-8.1,23.6-8.1c4.2,0,8.4,0.9,11.9,2.8c4-1.8,8.5-2.5,13-2.5c20.8,0,34.2,16,34.2,40.5
			c0,4.7-0.3,8.8-1.1,12.6l-0.6,4.7c5.4,7.9,6.8,15.5,7,18c0.9,7.2-1.4,14.6-5.9,19.4C592.7,457.5,581.2,469.3,564.6,469.3z"/>
		<path class="st9" d="M590.2,504.4c-2.9,0-5.9-0.9-8.5-2.5c-13.8-9-17.4-25.6-17.8-29c-1.4-8.1,1.1-16.2,6.5-21.4
			c2.5-2.5,5-4.5,7-6.5c3.9-3.6,6.2-5.9,8.8-8.8l-3.6-18.5c-1.1-1.1-2-2.2-2.9-3.6c-1.4-1.8-7.4-11.8-7.9-25.9
			c-0.2-8.5,3.6-16.4,9.6-20.3c6.2-3.9,16.6-8.1,24.5-8.1c5.9,0,11.2,1.8,15.5,5c0.6-0.5,1.6-1.1,2.5-1.4c1.8-0.9,7-3.6,23-3.6
			c8.8,0,16.4,7.6,17.8,18.2c0.3,2.5,0.6,5.6,0.6,9.5c0,10.4-2.5,20.8-6.7,28.8c0,0-20,38.9-20,39.1c-7.9,14.4-20,29-37.6,44.5
			C597.7,502.8,593.8,504.4,590.2,504.4z"/>
		<path class="st9" d="M683,504.4c-4,0-8.1-1.6-11.5-5c-10.6-10.6-14.1-20.9-15.1-23.9c-1.8-6.2-1.1-13.2,1.8-18.9
			c1.6-2.9,3.4-9.9,4-13.5l4.8-28.4c-0.5-0.5-0.6-0.9-1.1-1.6c-3.4-5-5-11.5-4-17.8c0.2-1.8,1.8-11.8,7-23c1.6-3.4,3.9-6.2,6.5-8.4
			c5-25,21.9-40.8,43.4-40.8c11,0,18.2,3.4,22.8,6.5h0.2c15.7,0,28.6,14.9,28.6,32.9c0,7-1.8,13.5-5,18.6c0.5,2.8,0.6,6.2,0.6,10.4
			c0,3.9-0.2,7.2-0.9,10.4l-2.8,16c5,7.4,6.2,14.6,6.8,17.1c1.1,7.2-1.1,14.6-5.4,19.6c-2,2.5-13.5,14.4-29.8,14.4
			c-7,0-13.2-2.2-18.5-6.5c-3.1,13.5-8.8,27.5-23,38.5C689.5,503.3,686.3,504.4,683,504.4z"/>
		<path class="st9" d="M777.8,469.3c-23.4,0-37.4-19.4-38.8-37.4c-0.5-7.6,2.5-15.1,7.4-19.4c-0.9-5-0.6-10.4,0.2-15.8
			c3.6-21.6,21.1-36.6,42.5-36.6c21.9,0,33.5,15.5,36.6,28.8c1.6,6.8,0.5,14-2.9,19.4c-0.2,0.5-0.9,1.4-1.6,2
			c1.4,4.8,2,10.1,1.6,16.6C821.7,447.9,805.8,469.3,777.8,469.3z"/>
		<path class="st9" d="M860.2,469.3c-6.2,0-12.1-2-17.1-5.6c-1.6,1.4-3.4,2.2-5.4,2.8c-5.4,1.6-10.6,2.2-16.2,2.2
			c-3.6,0-6.8-0.3-10.1-0.6c-5-0.6-9.5-3.9-12.4-8.8c-2.9-5-4-11-3.1-17.1l11.2-68.9c-2.2-4.5-5.1-12.4-5.4-22
			c-0.2-8.5,3.9-16.2,9.9-20c6.1-3.6,16.4-7.6,24.2-7.6c9.6,0,18,4.2,23.4,12.4c4.7,7,6.8,16.4,5.9,26.4
			c14.6,5.4,24.5,21.1,24.5,41.1c0,3.6-0.2,7.2-0.9,10.6l-0.6,3.9c4.3,6.5,6.2,13.8,6.8,19.4c0.5,6.5-1.4,13-5.4,17.8
			C887.7,457.2,876.7,469.3,860.2,469.3z"/>
		<path class="st9" d="M898.7,469.5c-15.1,0-27.2-14.1-27.2-31.2c0-5.4,1.1-10.4,3.1-14.9c-0.6-2.8-0.9-5.6-0.5-8.5
			c1.1-11,3.9-19.4,7-26.1c-4-3.6-8.5-8.5-11-15.1c-3.1-7.9-2.2-17.4,2.8-23.9l0.2-0.2c3.9-5.4,15.7-22,39.1-22c23.1,0,40,18,40,43
			c0,2.9-0.3,5.9-0.6,9c0,0.2,0,0.6-0.3,0.9c-3.4,17.1-12.1,26.1-18,32.1c-5.4,5.4-6.5,6.8-7,11.9c-0.2,2-0.6,4-1.1,5.9
			c0.6,2.8,0.9,5.4,0.9,8.1C926,455.5,913.8,469.5,898.7,469.5z"/>
	</g>
	<g>
		<path class="st7" d="M137.7,408.3c1.1-6.8-1.1-11.2-5.1-11.2c-0.9,0-2.9,0.2-5.6,2.5l-7.4,45.6c-4.5,1.4-8.4,1.6-12.1,1.6
			c-2.5,0-5.1-0.2-7.9-0.5l13.2-80.5c0.6-4-3.4-2-3.4-2s-3.6-5.4-3.6-12.9c5.1-3.1,12.6-5.4,16.4-5.4c7.9,0,13,5,11.2,15.8
			l-3.9,24.5c1.8-1.8,5.9-3.6,10.1-3.6c11.8,0,18.2,9.2,18.2,21.4c0,2-0.2,4-0.5,6.1l-2.5,15.8c-0.9,5.4,2.7,2.8,2.7,2.8
			c5.1,5,5.9,11.3,5.9,11.3s-7.2,8.5-17.1,8.5c-10.1,0-13.5-9.2-11.9-17.5L137.7,408.3z"/>
		<path class="st7" d="M195.6,447.4c-15.5,0-24.5-11.8-24.5-26.4c0-2,0.2-4.2,0.5-6.5c3.6-21.9,18.9-32.9,34-32.9
			s23.6,12.9,23.6,28.1c0,2-0.2,4.2-0.5,6.2C225.7,437.5,210.2,447.4,195.6,447.4z M208.5,415.3c0.5-1.8,0.6-4.7,0.6-7.9
			c0-5-1.1-9.9-5.9-9.9c-5.9,0-9.6,8.4-11.5,17.8c-0.5,2-0.6,4.5-0.6,7c0,5,1.4,9.9,6.1,9.9C202.8,432.2,207.5,422.9,208.5,415.3z"
			/>
		<path class="st7" d="M280.5,427.4c-0.6-6.2-1.1-14-1.1-14s-2.8,9.6-5,14.4l-7.6,18c-5.6,1.4-11.5,1.4-15.8,1.4l-7.2-44.5
			c-0.6-4.5-5.6-2.5-5.6-2.5s-3.6-5.4-3.9-12.9c5.4-3.4,11.8-5.6,14.6-5.6c6.2,0,10.1,2.8,10.8,9.2l2.2,18
			c0.9,7.2,0.9,16.9,0.9,16.9s2.5-8.5,5.1-15.8l7-19.1c0,0,5.1-1.6,10.8-1.4c1.4,0.2,4.5,0.6,4.5,0.6l1.4,20.2
			c0.5,6.2,0.2,15.5,0.2,15.5s2.2-8.1,5.9-15.5l5.4-11.7c2.9-6.1,2.8-15.5,2.8-15.5c3.1-1.6,12.9-1.6,12.9-1.6c0.5,2,0.6,4,0.6,6.2
			c0,5.1-1.4,11.2-3.6,16.2L296.7,445c-5.4,1.8-14.1,1.8-14.1,1.8L280.5,427.4z"/>
		<path class="st7" d="M415.8,407.2c0.5-3.1,1.1-8.5-2.8-8.5c-3.1,0-5.4,2-5.4,2l-7.3,44.3c-4,1.1-7.2,1.6-10.6,1.6
			c-2.2,0-4.5-0.3-7.4-0.9l6.5-40.5c0.6-3.9-0.5-6.8-3.1-6.8c-3.1,0-5.6,1.8-5.6,1.8l-7.4,44.5c-4.2,1.4-7.9,1.7-11.9,1.7
			c-2.5,0-5-0.2-7.6-0.6l7.2-44.5c0.6-3.9-3.4-2-3.4-2s-3.6-5.6-3.9-12.9c4.8-2.9,10.6-5.1,14.9-5.1c3.6,0,8.5,1.4,10.6,6.7
			c5.1-5.1,9.9-6.7,14.4-6.7c5.9,0,9.2,1.7,12.4,7.4c6.1-6.1,12.1-7.4,15.2-7.4c11.2,0,14.9,6.7,14.9,16.2c0,2.8-0.3,5.6-0.6,8.5
			l-3.4,19.8c-0.6,5.1,3.1,2.8,3.1,2.8c5,5,5.4,10.4,5.4,10.4s-7.2,8.5-17.8,8.5c-7.9,0-11-6.2-11-13.2c0-1.4,0.2-2.9,0.5-4.2
			L415.8,407.2z"/>
		<path class="st7" d="M494,383.3c2.9-0.9,6.1-1.4,9-1.4c4.5,0,7.9,0.6,7.9,0.6s-6.5,38-7.4,43.4s3.4,2.5,3.4,2.5
			c5,5,5.4,10.4,5.4,10.4s-6.7,8.5-17.4,8.5c-2.5,0-8.8,0.2-11.2-6.1c-6.2,7-12.1,6.1-14.6,6.1c-8.8,0-20.5-6.8-20.5-25
			c0-29.8,20.9-41,33.1-41c5.4,0,8.4,2,10.6,5.1L494,383.3z M488.1,399.9c0,0-2.5-3.4-6.2-3.4c-7,0-13.3,11.8-13.3,26.1
			c0,6.5,2.5,9.6,7.2,9.6c2.2,0,5.1-0.9,7.4-2.5L488.1,399.9z"/>
		<path class="st7" d="M557.3,408.5c0-0.2,0.5-2,0.5-4c0-2.8-0.6-6.1-4.2-6.1c-2.2,0-4.5,2-4.5,2l-7.4,44.5
			c-4.2,1.4-8.1,1.8-11.9,1.8c-2.8,0-5.1-0.3-8.4-0.6l7.2-44.5c0.6-3.9-3.4-2-3.4-2s-3.4-5.4-3.9-12.9c4-2.8,9.9-5.4,15.1-5.4
			c4.2,0,8.1,1.8,10.1,7c4.5-5,9.5-6.8,14.6-6.8c11.5,0,16.2,7.4,16.2,18.6c0,2.8-0.2,5.4-0.6,8.4l-2.8,17.4
			c-0.6,5.1,3.4,2.8,3.4,2.8c5,5,5.4,10.4,5.4,10.4s-7.9,8.5-18.5,8.5c-7.9,0-11-6.5-11-13.5c0-1.4,0.2-2.8,0.5-4L557.3,408.5z"/>
		<path class="st7" d="M598.1,402.7c-0.9-3.9-4.8-2.5-4.8-2.5s-3.6-5.4-3.9-12.9c5.4-3.4,12.6-5.6,16.4-5.6c5.6,0,9,2.9,9.6,9.2
			l2.5,19.7c0.6,5.9,0.6,13,0.6,13s3.1-9.2,4.8-12.6l5.4-12.1c1.6-3.6,2-7.9,2-10.8c0-2.8-0.2-4.5-0.2-4.5
			c3.6-1.8,15.8-1.8,15.8-1.8c0.2,2,0.5,3.9,0.5,6.1c0,5.9-1.4,12.1-3.9,17.4L623.1,444c-7.2,13.3-18.9,26.4-33.1,38.8
			c-7-4.5-8.5-14-8.5-14c11.2-10.8,16.4-14.1,24.1-26.4L598.1,402.7z"/>
		<path class="st7" d="M687.7,399h-8.4c0,0,1.1-7.4,5-16.2h6.1l2-12.4c3.1-18.6,15.5-25.2,26.1-25.2c10.8,0,14.6,4.5,14.6,4.5
			s-3.9,8.8-10.4,14c0,0-1.4-0.9-3.9-0.9c-2.2,0-5.1,0.9-6.5,7.9l-2,12.1h36.5c0,0,0.9,4.2,0.9,9c0,1.7-0.2,3.9-0.5,5.4l-5,28.8
			c-1.1,5.9,3.1,2.8,3.1,2.8c4.7,4.7,5.4,10.4,5.4,10.4s-7.4,8.5-17.4,8.5c-10.1,0-13.2-9-11.9-17.5l5-30.9h-18.6l-8.1,49.8
			c-2.8,15.8-5.9,25.6-16.6,33.8c-7.6-7.4-9.5-14.1-9.5-14.1c3.6-7,5.9-17.8,6.2-20.9L687.7,399z M741.7,373.7
			c-5.9,0-10.4-4.5-10.4-10.8c0-6.1,4.5-11,10.4-11s10.6,5,10.6,11C752,369.2,747.3,373.7,741.7,373.7z"/>
		<path class="st7" d="M775.2,420.4c-8.4-3.4-12.4-10.1-10.6-19.1c1.6-9.6,10.1-19.6,25-19.6c14.4,0,18.6,9.9,19.6,13.3
			c0,0-3.6,5.6-13.5,7.4c0,0-2.8-5.6-6.5-5.6c-1.8,0-3.6,0.5-4,2.8c-0.5,2.2,0.5,3.9,2.8,4.7l5.4,2.2c9.3,3.9,13,9.6,12.4,18.5
			c-0.6,8.5-8.1,22.5-27.6,22.5c-14.9,0-20.2-11.5-20.7-17.4c6.5-4,13.2-5.4,13.2-5.4s2,7.9,8.8,7.9c3.9,0,5.1-2.8,5.6-4.5
			c0.5-2-0.5-3.6-3.9-5L775.2,420.4z"/>
		<path class="st7" d="M852,408.3c1.1-6.8-1.1-11.2-5.1-11.2c-0.9,0-2.9,0.2-5.6,2.5l-7.4,45.6c-4.5,1.4-8.4,1.6-12.1,1.6
			c-2.5,0-5.1-0.2-7.9-0.5l13.2-80.5c0.6-4-3.4-2-3.4-2s-3.6-5.4-3.6-12.9c5.1-3.1,12.6-5.4,16.4-5.4c7.9,0,13,5,11.2,15.8
			l-3.9,24.5c1.8-1.8,5.9-3.6,10.1-3.6c11.8,0,18.2,9.2,18.2,21.4c0,2-0.2,4-0.5,6.1l-2.5,15.8c-0.9,5.4,2.8,2.8,2.8,2.8
			c5.1,5,5.9,11.3,5.9,11.3s-7.2,8.5-17.1,8.5c-10.1,0-13.5-9.2-11.9-17.5L852,408.3z"/>
		<path class="st7" d="M892,417.3c2.9-27.9,18.5-29.2,21.1-42.1c0.6-4.2-0.2-9.6-5-9.6c-5.4,0-11.8,9-11.8,9s-8.1-5-10.6-10.8
			c2.9-4.2,10.4-14.9,25.9-14.9c12.6,0,22,8.4,22,21.1c0,1.6-0.2,3.1-0.5,5c-4.3,21.6-23,20.8-25.3,46.8
			C895.8,422.7,892,417.3,892,417.3z M898.7,447.7c-5,0-9.3-4.2-9.3-9.6s4.3-9.9,9.3-9.9s9.2,4.5,9.2,9.9S903.7,447.7,898.7,447.7z"
			/>
	</g>
	<g>
		<path class="st11" d="M137.7,408.3c1.1-6.8-1.1-11.2-5.1-11.2c-0.9,0-2.9,0.2-5.6,2.5l-7.4,45.6c-4.5,1.4-8.4,1.6-12.1,1.6
			c-2.5,0-5.1-0.2-7.9-0.5l13.2-80.5c0.6-4-3.4-2-3.4-2s-3.6-5.4-3.6-12.9c5.1-3.1,12.6-5.4,16.4-5.4c7.9,0,13,5,11.2,15.8
			l-3.9,24.5c1.8-1.8,5.9-3.6,10.1-3.6c11.8,0,18.2,9.2,18.2,21.4c0,2-0.2,4-0.5,6.1l-2.5,15.8c-0.9,5.4,2.7,2.8,2.7,2.8
			c5.1,5,5.9,11.3,5.9,11.3s-7.2,8.5-17.1,8.5c-10.1,0-13.5-9.2-11.9-17.5L137.7,408.3z"/>
		<path class="st11" d="M195.6,447.4c-15.5,0-24.5-11.8-24.5-26.4c0-2,0.2-4.2,0.5-6.5c3.6-21.9,18.9-32.9,34-32.9
			s23.6,12.9,23.6,28.1c0,2-0.2,4.2-0.5,6.2C225.7,437.5,210.2,447.4,195.6,447.4z M208.5,415.3c0.5-1.8,0.6-4.7,0.6-7.9
			c0-5-1.1-9.9-5.9-9.9c-5.9,0-9.6,8.4-11.5,17.8c-0.5,2-0.6,4.5-0.6,7c0,5,1.4,9.9,6.1,9.9C202.8,432.2,207.5,422.9,208.5,415.3z"
			/>
		<path class="st11" d="M280.5,427.4c-0.6-6.2-1.1-14-1.1-14s-2.8,9.6-5,14.4l-7.6,18c-5.6,1.4-11.5,1.4-15.8,1.4l-7.2-44.5
			c-0.6-4.5-5.6-2.5-5.6-2.5s-3.6-5.4-3.9-12.9c5.4-3.4,11.8-5.6,14.6-5.6c6.2,0,10.1,2.8,10.8,9.2l2.2,18
			c0.9,7.2,0.9,16.9,0.9,16.9s2.5-8.5,5.1-15.8l7-19.1c0,0,5.1-1.6,10.8-1.4c1.4,0.2,4.5,0.6,4.5,0.6l1.4,20.2
			c0.5,6.2,0.2,15.5,0.2,15.5s2.2-8.1,5.9-15.5l5.4-11.7c2.9-6.1,2.8-15.5,2.8-15.5c3.1-1.6,12.9-1.6,12.9-1.6c0.5,2,0.6,4,0.6,6.2
			c0,5.1-1.4,11.2-3.6,16.2L296.7,445c-5.4,1.8-14.1,1.8-14.1,1.8L280.5,427.4z"/>
		<path class="st11" d="M415.8,407.2c0.5-3.1,1.1-8.5-2.8-8.5c-3.1,0-5.4,2-5.4,2l-7.3,44.3c-4,1.1-7.2,1.6-10.6,1.6
			c-2.2,0-4.5-0.3-7.4-0.9l6.5-40.5c0.6-3.9-0.5-6.8-3.1-6.8c-3.1,0-5.6,1.8-5.6,1.8l-7.4,44.5c-4.2,1.4-7.9,1.7-11.9,1.7
			c-2.5,0-5-0.2-7.6-0.6l7.2-44.5c0.6-3.9-3.4-2-3.4-2s-3.6-5.6-3.9-12.9c4.8-2.9,10.6-5.1,14.9-5.1c3.6,0,8.5,1.4,10.6,6.7
			c5.1-5.1,9.9-6.7,14.4-6.7c5.9,0,9.2,1.7,12.4,7.4c6.1-6.1,12.1-7.4,15.2-7.4c11.2,0,14.9,6.7,14.9,16.2c0,2.8-0.3,5.6-0.6,8.5
			l-3.4,19.8c-0.6,5.1,3.1,2.8,3.1,2.8c5,5,5.4,10.4,5.4,10.4s-7.2,8.5-17.8,8.5c-7.9,0-11-6.2-11-13.2c0-1.4,0.2-2.9,0.5-4.2
			L415.8,407.2z"/>
		<path class="st11" d="M494,383.3c2.9-0.9,6.1-1.4,9-1.4c4.5,0,7.9,0.6,7.9,0.6s-6.5,38-7.4,43.4s3.4,2.5,3.4,2.5
			c5,5,5.4,10.4,5.4,10.4s-6.7,8.5-17.4,8.5c-2.5,0-8.8,0.2-11.2-6.1c-6.2,7-12.1,6.1-14.6,6.1c-8.8,0-20.5-6.8-20.5-25
			c0-29.8,20.9-41,33.1-41c5.4,0,8.4,2,10.6,5.1L494,383.3z M488.1,399.9c0,0-2.5-3.4-6.2-3.4c-7,0-13.3,11.8-13.3,26.1
			c0,6.5,2.5,9.6,7.2,9.6c2.2,0,5.1-0.9,7.4-2.5L488.1,399.9z"/>
		<path class="st11" d="M557.3,408.5c0-0.2,0.5-2,0.5-4c0-2.8-0.6-6.1-4.2-6.1c-2.2,0-4.5,2-4.5,2l-7.4,44.5
			c-4.2,1.4-8.1,1.8-11.9,1.8c-2.8,0-5.1-0.3-8.4-0.6l7.2-44.5c0.6-3.9-3.4-2-3.4-2s-3.4-5.4-3.9-12.9c4-2.8,9.9-5.4,15.1-5.4
			c4.2,0,8.1,1.8,10.1,7c4.5-5,9.5-6.8,14.6-6.8c11.5,0,16.2,7.4,16.2,18.6c0,2.8-0.2,5.4-0.6,8.4l-2.8,17.4
			c-0.6,5.1,3.4,2.8,3.4,2.8c5,5,5.4,10.4,5.4,10.4s-7.9,8.5-18.5,8.5c-7.9,0-11-6.5-11-13.5c0-1.4,0.2-2.8,0.5-4L557.3,408.5z"/>
		<path class="st11" d="M598.1,402.7c-0.9-3.9-4.8-2.5-4.8-2.5s-3.6-5.4-3.9-12.9c5.4-3.4,12.6-5.6,16.4-5.6c5.6,0,9,2.9,9.6,9.2
			l2.5,19.7c0.6,5.9,0.6,13,0.6,13s3.1-9.2,4.8-12.6l5.4-12.1c1.6-3.6,2-7.9,2-10.8c0-2.8-0.2-4.5-0.2-4.5
			c3.6-1.8,15.8-1.8,15.8-1.8c0.2,2,0.5,3.9,0.5,6.1c0,5.9-1.4,12.1-3.9,17.4L623.1,444c-7.2,13.3-18.9,26.4-33.1,38.8
			c-7-4.5-8.5-14-8.5-14c11.2-10.8,16.4-14.1,24.1-26.4L598.1,402.7z"/>
		<path class="st11" d="M687.7,399h-8.4c0,0,1.1-7.4,5-16.2h6.1l2-12.4c3.1-18.6,15.5-25.2,26.1-25.2c10.8,0,14.6,4.5,14.6,4.5
			s-3.9,8.8-10.4,14c0,0-1.4-0.9-3.9-0.9c-2.2,0-5.1,0.9-6.5,7.9l-2,12.1h36.5c0,0,0.9,4.2,0.9,9c0,1.7-0.2,3.9-0.5,5.4l-5,28.8
			c-1.1,5.9,3.1,2.8,3.1,2.8c4.7,4.7,5.4,10.4,5.4,10.4s-7.4,8.5-17.4,8.5c-10.1,0-13.2-9-11.9-17.5l5-30.9h-18.6l-8.1,49.8
			c-2.8,15.8-5.9,25.6-16.6,33.8c-7.6-7.4-9.5-14.1-9.5-14.1c3.6-7,5.9-17.8,6.2-20.9L687.7,399z M741.7,373.7
			c-5.9,0-10.4-4.5-10.4-10.8c0-6.1,4.5-11,10.4-11s10.6,5,10.6,11C752,369.2,747.3,373.7,741.7,373.7z"/>
		<path class="st11" d="M775.2,420.4c-8.4-3.4-12.4-10.1-10.6-19.1c1.6-9.6,10.1-19.6,25-19.6c14.4,0,18.6,9.9,19.6,13.3
			c0,0-3.6,5.6-13.5,7.4c0,0-2.8-5.6-6.5-5.6c-1.8,0-3.6,0.5-4,2.8c-0.5,2.2,0.5,3.9,2.8,4.7l5.4,2.2c9.3,3.9,13,9.6,12.4,18.5
			c-0.6,8.5-8.1,22.5-27.6,22.5c-14.9,0-20.2-11.5-20.7-17.4c6.5-4,13.2-5.4,13.2-5.4s2,7.9,8.8,7.9c3.9,0,5.1-2.8,5.6-4.5
			c0.5-2-0.5-3.6-3.9-5L775.2,420.4z"/>
		<path class="st11" d="M852,408.3c1.1-6.8-1.1-11.2-5.1-11.2c-0.9,0-2.9,0.2-5.6,2.5l-7.4,45.6c-4.5,1.4-8.4,1.6-12.1,1.6
			c-2.5,0-5.1-0.2-7.9-0.5l13.2-80.5c0.6-4-3.4-2-3.4-2s-3.6-5.4-3.6-12.9c5.1-3.1,12.6-5.4,16.4-5.4c7.9,0,13,5,11.2,15.8
			l-3.9,24.5c1.8-1.8,5.9-3.6,10.1-3.6c11.8,0,18.2,9.2,18.2,21.4c0,2-0.2,4-0.5,6.1l-2.5,15.8c-0.9,5.4,2.8,2.8,2.8,2.8
			c5.1,5,5.9,11.3,5.9,11.3s-7.2,8.5-17.1,8.5c-10.1,0-13.5-9.2-11.9-17.5L852,408.3z"/>
		<path class="st11" d="M892,417.3c2.9-27.9,18.5-29.2,21.1-42.1c0.6-4.2-0.2-9.6-5-9.6c-5.4,0-11.8,9-11.8,9s-8.1-5-10.6-10.8
			c2.9-4.2,10.4-14.9,25.9-14.9c12.6,0,22,8.4,22,21.1c0,1.6-0.2,3.1-0.5,5c-4.3,21.6-23,20.8-25.3,46.8
			C895.8,422.7,892,417.3,892,417.3z M898.7,447.7c-5,0-9.3-4.2-9.3-9.6s4.3-9.9,9.3-9.9s9.2,4.5,9.2,9.9S903.7,447.7,898.7,447.7z"
			/>
	</g>
</g>
</svg>
