<?xml version="1.0" encoding="utf-8"?>
<!-- Generator: Adobe Illustrator 19.1.0, SVG Export Plug-In . SVG Version: 6.00 Build 0)  -->
<svg version="1.1" id="Layer_1" xmlns="http://www.w3.org/2000/svg" xmlns:xlink="http://www.w3.org/1999/xlink" x="0px" y="0px"
	 viewBox="0 0 1808 1070" style="enable-background:new 0 0 1808 1070;" xml:space="preserve">
<style type="text/css">
	.st0{fill:#0A3C78;stroke:#0A3C78;stroke-miterlimit:10;}
	.st1{opacity:0.8;fill:#246EB9;}
	.st2{opacity:0.8;}
	.st3{fill:#246EB9;}
	.st4{fill:none;}
	.st5{fill:#FFFFFF;}
	.st6{font-family:'Otari-HeavyItalic';}
	.st7{font-size:54px;}
	.st8{font-family:'OpenSans-Bold';}
	.st9{font-size:32px;}
	.st10{font-family:'OpenSans';}
	.st11{font-size:27px;}
	.st12{font-size:30px;}
</style>
<rect x="-9.6" y="-1.3" class="st0" width="1817.6" height="1071.3"/>
<path class="st1" d="M1674.4,499.5c-5.3-33.3-33-58.5-64.7-67.8c11.8-13,18.7-33.1,20.4-49.1c3.3-3.2,5.5-7.7,5.5-12.6
	c0-3.6-1.1-7-3-9.8c1.1-1.9,1.7-4.1,1.7-6.5c0-5.5-3.3-10.2-8-12.3c1.2-2.8,1.8-5.8,1.8-9c0-12.7-10.3-23-23-23
	c-4.4,0-8.6,1.3-12.1,3.5c-4.2-5.8-11-9.6-18.7-9.6c-11.2,0-20.5,8-22.6,18.6c-0.7-0.1-1.3-0.2-2-0.2c-12.7,0-23,10.3-23,23
	c0,5.1,1.7,9.8,4.5,13.6c-2.8,3.1-4.5,7.1-4.5,11.6c0,6.4,3.5,12,8.7,15c2.1,15.6,9,34.5,20.3,46.9c-31.4,9.5-58.8,34.5-64,67.6
	c-2.2,13.7,13.8,22.8,24.2,27.5c20.3,9.1,43.5,12.2,65.6,12.4c22.4,0.2,45.7-2.7,66.5-11.5C1659,523.3,1676.7,514,1674.4,499.5z"/>
<path class="st1" d="M489.5,343.3c-5.3-33.3-33-58.5-64.7-67.8c13.6-15.1,20.8-39.6,20.9-56.3c0-3.1-0.3-6.1-0.9-9.2
	c10.2-5.5,15.8-15.1,18.8-30.2c-2.8,6.9-21.1,11.5-35.4-2.7c-24.3-24.2-47.9-13.4-53.4-7.5l-2.3,4.8c-2.3-0.2-4.5,0-5.9,0.7
	c0,0-27.5,8-20.2,58.9c1.1-0.2,2.7-1.2,4.7-2.5c2.5,15.1,9.2,32.5,19.9,44.2c-31.4,9.5-58.8,34.5-64,67.6
	c-2.2,13.7,13.8,22.8,24.2,27.5c20.3,9.1,43.5,12.2,65.6,12.4c22.4,0.2,45.7-2.7,66.5-11.5C474,367.1,491.8,357.7,489.5,343.3z"/>
<g class="st2">
	<g>
		<path class="st3" d="M1317,977.1c6.6,23.4,90.9,27.7,103.9,26.7c12.9,0.9,97.3-3.4,103.9-26.7c20.3-81.6-73.3-51.2-76.7-94.7
			l24.8,11.3c26.5-23.6,25.6-112.2-32.9-131.7c-4.4-1.1-12.3-2.2-19,1.7l-0.2,0.1l-0.2-0.1c-7.3-3.7-14.8-2.7-19-1.7
			c-58.4,19.5-59.3,108-32.8,131.6l24.9-11.3C1390.4,925.9,1296.6,895.5,1317,977.1z"/>
	</g>
</g>
<g class="st2">
	<g>
		<path class="st3" d="M125.1,715c6.4,22.7,88.3,26.8,100.9,26c12.6,0.9,94.5-3.3,100.8-26c19.3-77.2-66.7-51.1-74.1-89
			c1.5,0.5,2.3,0.8,2.3,0.8c25.3,7.4,41.3-4.3,41.3-4.3c-28.7-29.1-6.6-108.9-53.4-123.4c0,0-9.6-3.1-16.9,1.6c0,0-0.3,0-0.3,0
			c-7.3-4.7-16.9-1.6-16.9-1.6c-46.7,14.5-24.7,94.3-53.4,123.4c0,0,16.1,11.8,41.3,4.3c0,0,0.8-0.3,2.3-0.8
			C191.9,663.9,105.8,637.8,125.1,715z"/>
	</g>
</g>
<g>
	<rect x="182.1" y="40.8" class="st4" width="1460.1" height="72.6"/>
	<text transform="matrix(1 0 0 1.2 182.1035 88.3815)" class="st5 st6 st7">We asked users to describe how OkCupid’s matching works:</text>
</g>
<g>
	<rect x="467.2" y="232.1" class="st4" width="571.1" height="129.8"/>
	<text transform="matrix(1 0 0 1.06 467.2352 257.8429)"><tspan x="0" y="0" class="st5 st8 st9">I have</tspan><tspan x="96.4" y="0" class="st10 st9"> </tspan><tspan x="104.7" y="0" class="st5 st8 st9">no idea how</tspan><tspan x="298.6" y="0" class="st8 st9"> </tspan><tspan x="307" y="0" class="st5 st8 st9">they do it.</tspan></text>
</g>
<g>
	<rect x="773" y="330.9" class="st4" width="726.5" height="271.5"/>
	<text transform="matrix(1 0 0 1.06 840.5366 352.6921)"><tspan x="0" y="0" class="st5 st10 st11">I thought...it was through the questions you answer? </tspan><tspan x="144" y="32.4" class="st5 st10 st11">Based on how important they are to you.</tspan><tspan x="658.9" y="32.4" class="st10 st11"> </tspan><tspan x="256.9" y="70.8" class="st5 st8 st9">Through some algorithm</tspan><tspan x="651.2" y="70.8" class="st5 st8 st11">.</tspan><tspan x="658.9" y="70.8" class="st10 st11"> </tspan></text>
</g>
<g>
	<rect x="617.3" y="769.6" class="st4" width="712.1" height="196.7"/>
	<text transform="matrix(1 0 0 1.06 769.7305 791.3134)"><tspan x="0" y="0" class="st5 st10 st11">I’m not sure how it matched me with people, </tspan><tspan x="14.3" y="38.4" class="st5 st8 st9">I filled out a lot of those questions</tspan><tspan x="-131.7" y="70.8" class="st10 st11"> </tspan><tspan x="-124.7" y="70.8" class="st5 st10 st11">and I guess those were supposed to have matched me </tspan><tspan x="85.8" y="103.2" class="st5 st10 st11">algorithmically or something like that.</tspan></text>
</g>
<g>
	<rect x="349.6" y="523.5" class="st4" width="964.9" height="190.9"/>
	<text transform="matrix(1 0 0 1.06 349.6199 545.2297)"><tspan x="0" y="0" class="st5 st10 st11">I used to try to tailor my answers to attract certain types of people, </tspan><tspan x="0" y="38.4" class="st5 st10 st11">but</tspan><tspan x="42.6" y="38.4" class="st5 st10 st12"> </tspan><tspan x="50.4" y="38.4" class="st5 st8 st9">the more I used it</tspan><tspan x="332.5" y="38.4" class="st5 st10 st9"> </tspan><tspan x="340.8" y="38.4" class="st5 st8 st9">the more random it felt.</tspan><tspan x="726.7" y="38.4" class="st10 st9">  </tspan><tspan x="0" y="70.8" class="st5 st10 st11">Even with the algorithm and match percentage, you still really don’t know </tspan><tspan x="0" y="103.2" class="st5 st10 st11">what you’re going to get.</tspan></text>
</g>
</svg>
