<?xml version="1.0" encoding="utf-8"?>
<!-- Generator: Adobe Illustrator 19.1.0, SVG Export Plug-In . SVG Version: 6.00 Build 0)  -->
<svg version="1.1" id="Layer_1" xmlns="http://www.w3.org/2000/svg" xmlns:xlink="http://www.w3.org/1999/xlink" x="0px" y="0px"
	 viewBox="0 0 150 150" style="enable-background:new 0 0 150 150;" xml:space="preserve">
<style type="text/css">
	.st0{fill:#3260C7;}
	.st1{fill:#FFFFFF;}
</style>
<path class="st0" d="M119.3,112.5c-0.2-2.6-0.7-8.9-1.7-11.8c-1.4-3.8-3-5.5-5.1-6.9c-1-0.7-4.8-2.1-10.5-4.2
	c-5.2-1.9-11-4.1-13.1-5.3c-1.9-1.1-3.4-6-3.3-7.6c0-0.1,0.2-0.4,1.3-1.6c2.2-2.4,5.2-7.1,6.4-11.7c1.7-6.2,2.9-18.7-2.8-26.4
	c-3.3-4.4-8.3-6.7-15.1-6.9l-0.5,0l-0.2,0c-6.7,0.2-11.8,2.5-15.1,6.9c-5.7,7.7-4.5,20.2-2.8,26.4c1.2,4.5,4.2,9.2,6.4,11.6
	c0,0,0,0,0,0c0,0,0,0,0,0c0.3,0.4,1.1,1.2,1.3,1.7c0.6,1.7-1.6,6.5-3.3,7.5c-2.1,1.2-7.9,3.4-13.2,5.3c-5.6,2.1-9.4,3.5-10.4,4.2
	c-2.1,1.4-3.7,3.1-5.1,6.9c-1.1,2.9-1.6,9.3-1.7,11.9l0,0.7l0.5,0.5c1.5,1.5,9.2,6.2,43.8,6.2c34.3,0,42.2-4.8,43.8-6.3l0.5-0.5
	L119.3,112.5z"/>
<g>
	<path class="st1" d="M61.3,98.3l-2.4-6.1c0-0.1-0.4-0.4-1-0.4c0,0,0-1.5,0.5-2.3c0.7-0.3,1.5-0.5,2.3-0.5c0.3,0,0.6,0,0.9,0.1
		l1.5,4.8c0.3,0.9,0.4,2.1,0.4,2.1s0.6-1.4,1.2-2.2l3.4-5.1c2,0.2,3,1.3,3,1.3l-5.9,8.3l-1.3,7.3c-0.8,0.2-1.5,0.3-2.2,0.3
		c-0.6,0-1.1,0-1.7-0.1L61.3,98.3z"/>
	<path class="st1" d="M73.7,106c-3,0-4.7-2.1-4.7-4.7c0-0.4,0-0.8,0.1-1.2c0.7-3.9,3.6-5.9,6.5-5.9c2.9,0,4.5,2.3,4.5,5
		c0,0.4,0,0.8-0.1,1.1C79.4,104.2,76.4,106,73.7,106z M76.1,100.2c0.1-0.3,0.1-0.8,0.1-1.4c0-0.9-0.2-1.8-1.1-1.8
		c-1.1,0-1.8,1.5-2.2,3.2c-0.1,0.3-0.1,0.8-0.1,1.2c0,0.9,0.2,1.8,1.1,1.8C75,103.3,75.9,101.6,76.1,100.2z"/>
	<path class="st1" d="M86.2,101.7c-0.2,1.1,0.2,1.7,0.9,1.7c0.2,0,0.5-0.1,0.7-0.2l1.5-8.6c0.9-0.2,1.5-0.3,2.3-0.3
		c0.5,0,1,0,1.6,0.1l-1.3,7.8c-0.1,0.9,0.6,0.5,0.6,0.5c0.9,0.9,1,1.8,1,1.8c-0.2,0.2-1.5,1.5-3.3,1.5c-1,0-1.8-0.5-2.1-1
		c-0.7,0.8-1.5,1-2.3,1c-2.2,0-3.4-1.5-3.4-3.6c0-0.3,0-0.6,0.1-0.9l0.6-3.6c0.1-0.7-0.6-0.3-0.6-0.3s-0.7-1-0.7-2.3
		c1-0.6,2.4-1,3.1-1c1.5,0,2.5,0.9,2.2,2.8L86.2,101.7z"/>
</g>
</svg>
